<svg width="256" height="256" viewBox="0 0 256 256" fill="none" xmlns="http://www.w3.org/2000/svg">
<rect width="256" height="256" fill="#E4E4E7"/>
<path d="M96.5732 75.2604L89.0396 67.7268H203.341V182.028L195.807 174.494V169.296L172.332 145.813L169.356 148.043L163.977 142.664L170.411 137.843C171.14 137.296 172.041 137.03 172.95 137.093C173.859 137.157 174.715 137.546 175.36 138.189L195.807 158.636V75.2604H96.5732ZM60.2006 188.266V184.356L82.4024 162.154C83.9832 162.956 85.73 163.377 87.5027 163.382C88.8991 163.383 90.2819 163.107 91.5711 162.57C92.8603 162.034 94.0304 161.247 95.0138 160.255L116.982 138.287L111.663 132.961L89.695 154.929C89.3388 155.247 88.9226 155.49 88.4708 155.645C88.019 155.799 87.5409 155.861 87.0647 155.827C86.5885 155.794 86.1239 155.665 85.6983 155.448C85.2728 155.232 84.8949 154.932 84.5871 154.568C83.872 153.881 82.9161 153.501 81.9245 153.511C80.933 153.521 79.9848 153.919 79.2834 154.62L60.2006 173.703V81.4983L52.6669 73.9646V195.799H174.502L166.968 188.266H60.2006ZM165.672 101.628C165.672 103.863 165.009 106.048 163.768 107.907C162.526 109.765 160.761 111.213 158.696 112.069C156.631 112.924 154.359 113.148 152.167 112.712C149.975 112.276 147.961 111.199 146.381 109.619C144.801 108.039 143.724 106.025 143.288 103.833C142.852 101.641 143.076 99.3687 143.931 97.3038C144.787 95.2389 146.235 93.474 148.093 92.2323C149.952 90.9906 152.137 90.3278 154.372 90.3278C157.369 90.3278 160.243 91.5184 162.362 93.6377C164.482 95.7569 165.672 98.6313 165.672 101.628ZM158.138 101.628C158.138 100.883 157.918 100.155 157.504 99.5356C157.09 98.9161 156.501 98.4333 155.813 98.1482C155.125 97.8631 154.367 97.7885 153.637 97.9339C152.906 98.0792 152.235 98.438 151.708 98.9648C151.181 99.4916 150.823 100.163 150.677 100.893C150.532 101.624 150.606 102.382 150.892 103.07C151.177 103.758 151.659 104.346 152.279 104.76C152.898 105.174 153.627 105.395 154.372 105.395C155.371 105.395 156.329 104.998 157.035 104.292C157.742 103.585 158.138 102.627 158.138 101.628ZM200.674 206L206 200.674L55.3263 50L50 55.3263L200.674 206Z" fill="#71717A"/>
</svg>
