<svg width="100" height="100" viewBox="0 0 100 100" fill="none" xmlns="http://www.w3.org/2000/svg">
<path d="M51.4922 34.668V44.7396L58.7446 51.4232C59.5227 52.1402 59.5227 53.3026 58.7446 54.0196C57.9666 54.7366 56.7052 54.7365 55.9273 54.0196L48.0913 46.7982C47.7177 46.454 47.5078 45.9869 47.5078 45.5V34.668C47.5078 33.654 48.3997 32.832 49.5 32.832C50.6003 32.832 51.4922 33.654 51.4922 34.668V34.668ZM57.336 22H41.664C37.4914 22 33.3748 23.3514 30.0811 25.9911V23.8359C30.0811 22.8219 29.1892 22 28.0889 22C26.9886 22 26.0967 22.8219 26.0967 23.8359V31.0573C26.0967 32.0713 26.9962 32.8933 28.0889 32.8933H35.9248C37.0251 32.8933 37.917 32.0713 37.917 31.0573C37.917 30.0433 37.0251 29.2214 35.9248 29.2214H32.1563C34.6778 26.9811 38.0816 25.6719 41.664 25.6719H57.3359C64.879 25.6719 71.0156 31.3272 71.0156 38.2786V52.7213C71.0156 59.6728 64.879 65.3281 57.336 65.3281H41.664C34.121 65.3281 27.9844 59.6728 27.9844 52.7214V45.5C27.9844 44.486 27.0925 43.6641 25.9922 43.6641C24.8919 43.6641 24 44.486 24 45.5V52.7214C24 61.6975 31.924 69 41.664 69H57.3359C67.076 69 75 61.6975 75 52.7214V38.2786C75 29.3025 67.076 22 57.336 22V22Z" fill="#FFA600"/>
<path d="M82.4219 3.90625H58.7891C57.7105 3.90625 56.8359 4.78086 56.8359 5.85938C56.8359 6.93789 57.7105 7.8125 58.7891 7.8125H82.4219C89.9605 7.8125 96.0938 13.9457 96.0938 21.4844V66.7969C96.0938 74.3355 89.9605 80.4688 82.4219 80.4688H56.7658C56.0682 80.4688 55.4232 80.841 55.0744 81.4453L50 90.2344L44.9256 81.4453C44.5768 80.841 43.932 80.4688 43.2342 80.4688H17.5781C10.0395 80.4688 3.90625 74.3355 3.90625 66.7969V21.4844C3.90625 13.9457 10.0395 7.8125 17.5781 7.8125H41.2107C42.2895 7.8125 43.1639 6.93789 43.1639 5.85938C43.1639 4.78086 42.2895 3.90625 41.2107 3.90625H17.5781C7.88555 3.90625 0 11.7918 0 21.4844V66.7969C0 76.4895 7.88555 84.375 17.5781 84.375H42.1064L48.3084 95.1172C48.6572 95.7215 49.302 96.0938 49.9998 96.0938C50.6975 96.0938 51.3424 95.7215 51.6912 95.1172L57.8932 84.375H82.4219C92.1145 84.375 100 76.4895 100 66.7969V21.4844C100 11.7918 92.1145 3.90625 82.4219 3.90625V3.90625Z" fill="#FFA600"/>
<path d="M50 7.8125C50.5137 7.8125 51.0156 7.60352 51.3807 7.24004C51.7441 6.87695 51.9531 6.37305 51.9531 5.85938C51.9531 5.3457 51.7441 4.8418 51.3807 4.47852C51.0176 4.11504 50.5137 3.90625 50 3.90625C49.4863 3.90625 48.9824 4.11504 48.6191 4.47852C48.2559 4.8418 48.0469 5.3457 48.0469 5.85938C48.0469 6.37305 48.2559 6.87695 48.6191 7.24004C48.9824 7.60352 49.4863 7.8125 50 7.8125Z" fill="#FFA600"/>
</svg>
