<svg width="100" height="100" viewBox="0 0 100 100" fill="none" xmlns="http://www.w3.org/2000/svg">
<g clip-path="url(#clip0)">
<path d="M35.439 41.5989L46.8367 23.8171C51.2287 16.97 62.2905 19.9321 62.2905 27.9612V37.3512H71.6132C74.4095 37.3512 77.023 38.6839 78.5792 40.916C79.9576 42.8892 80.3578 45.3426 79.6711 47.6219L75.1505 62.7053C74.3848 65.2482 71.9442 67 69.1726 67H47.0442C45.2508 67 43.5018 66.4019 42.1185 65.3047L35.439 60.0258M31.9856 67H23.4485C21.5414 67 20 65.526 20 63.7083V37.9163C20 36.0986 21.5414 34.6246 23.4485 34.6246H31.9856C33.8926 34.6246 35.439 36.0986 35.439 38.1612V63.9579C35.439 65.526 33.8926 67 31.9807 67H31.9856Z" stroke="#56C9AC" stroke-width="3.5" stroke-linecap="round" stroke-linejoin="round"/>
<path d="M82.4219 3.90625H58.7891C57.7105 3.90625 56.8359 4.78086 56.8359 5.85938C56.8359 6.93789 57.7105 7.8125 58.7891 7.8125H82.4219C89.9605 7.8125 96.0938 13.9457 96.0938 21.4844V66.7969C96.0938 74.3355 89.9605 80.4688 82.4219 80.4688H56.7658C56.0682 80.4688 55.4232 80.841 55.0744 81.4453L50 90.2344L44.9256 81.4453C44.5768 80.841 43.932 80.4688 43.2342 80.4688H17.5781C10.0395 80.4688 3.90625 74.3355 3.90625 66.7969V21.4844C3.90625 13.9457 10.0395 7.8125 17.5781 7.8125H41.2107C42.2895 7.8125 43.1639 6.93789 43.1639 5.85938C43.1639 4.78086 42.2895 3.90625 41.2107 3.90625H17.5781C7.88555 3.90625 0 11.7918 0 21.4844V66.7969C0 76.4895 7.88555 84.375 17.5781 84.375H42.1064L48.3084 95.1172C48.6572 95.7215 49.302 96.0938 49.9998 96.0938C50.6975 96.0938 51.3424 95.7215 51.6912 95.1172L57.8932 84.375H82.4219C92.1145 84.375 100 76.4895 100 66.7969V21.4844C100 11.7918 92.1145 3.90625 82.4219 3.90625V3.90625Z" fill="#56C9AC"/>
<path d="M50 7.8125C50.5137 7.8125 51.0156 7.60352 51.3807 7.24004C51.7441 6.87695 51.9531 6.37305 51.9531 5.85938C51.9531 5.3457 51.7441 4.8418 51.3807 4.47852C51.0176 4.11504 50.5137 3.90625 50 3.90625C49.4863 3.90625 48.9824 4.11504 48.6191 4.47852C48.2559 4.8418 48.0469 5.3457 48.0469 5.85938C48.0469 6.37305 48.2559 6.87695 48.6191 7.24004C48.9824 7.60352 49.4863 7.8125 50 7.8125Z" fill="#56C9AC"/>
</g>
<defs>
<clipPath id="clip0">
<rect width="100" height="100" fill="white"/>
</clipPath>
</defs>
</svg>
