<svg xmlns="http://www.w3.org/2000/svg" width="25.973" height="37.227" viewBox="0 0 25.973 37.227"><defs><style>.a{fill:#fff;}.b{fill:#363449;}</style></defs><g transform="translate(-145.49 -204)"><g transform="translate(-70.081 73.683)"><path class="a" d="M266.574,176.571V158.378H253.516v18.193a2.643,2.643,0,0,0,.007.962l-.007,0v12.586l6.529-2.9,6.529,2.9V177.529l-.058.033A2.24,2.24,0,0,0,266.574,176.571Z" transform="translate(-31.468 -23.296)"/><path class="b" d="M254.8,181.975h-.329l-6.195-3.183a.011.011,0,0,0-.01,0l-6.195,3.183h-.329a2.451,2.451,0,0,1-2.448-2.448V150.147a2.451,2.451,0,0,1,2.448-2.448H254.8a2.451,2.451,0,0,1,2.448,2.448v29.379A2.451,2.451,0,0,1,254.8,181.975Zm-6.529-5.9a2.73,2.73,0,0,1,1.248.3l5.008,2.574V150.419H242.016v28.526l5.008-2.574A2.733,2.733,0,0,1,248.273,176.07Z" transform="translate(-19.696 -14.431)"/><path class="a" d="M244.146,139.022a6.533,6.533,0,0,1,1.763,9.068,13.01,13.01,0,0,1-3.961,3.184,54.93,54.93,0,0,1-6.529,3.156,54.916,54.916,0,0,1-6.529-3.156,13.01,13.01,0,0,1-3.961-3.184,6.533,6.533,0,0,1,1.763-9.068,7.36,7.36,0,0,1,2.2-1.037c2.278-.624,4.541.2,6.529,2.662,1.988-2.467,4.251-3.286,6.529-2.662A7.357,7.357,0,0,1,244.146,139.022Z" transform="translate(-6.843 -6.199)"/><path class="b" d="M241.414,136.74a8.05,8.05,0,0,0-3.139-4.988,7.148,7.148,0,0,0-5.2-1.372,7.6,7.6,0,0,0-4.516,2.454,7.6,7.6,0,0,0-4.516-2.454,7.149,7.149,0,0,0-5.2,1.372,8.05,8.05,0,0,0-3.139,4.988,8.449,8.449,0,0,0,1.611,6.567c.294.412,1.189,1.668,6.172,4.164,1.952.978,3.744,1.755,4.351,2.013a1.363,1.363,0,0,0,.7.2h.037a1.364,1.364,0,0,0,.7-.2c.607-.259,2.4-1.036,4.351-2.014,4.983-2.5,5.878-3.752,6.172-4.164A8.449,8.449,0,0,0,241.414,136.74Zm-3.827,4.988c-.89,1.249-5.633,3.649-9.029,5.107-3.4-1.458-8.138-3.857-9.029-5.107-2.186-3.069-1.193-6.237.918-7.78,1.676-1.225,4.431-1.592,6.679,1.406a2,2,0,0,0,1.451.725,1.766,1.766,0,0,0,1.413-.725c2.249-3,5-2.631,6.679-1.406C238.78,135.491,239.774,138.659,237.587,141.728Z"/><g transform="translate(219.963 134.266)"><path class="b" d="M245.058,153.573a3.631,3.631,0,0,0-3.627,3.627,1.451,1.451,0,0,0,2.9,0,.727.727,0,0,1,.725-.725,1.451,1.451,0,1,0,0-2.9Z" transform="translate(-241.431 -153.573)"/></g></g></g></svg>