<svg xmlns="http://www.w3.org/2000/svg" width="25.821" height="37.5" viewBox="0 0 25.821 37.5"><defs><style>.a{fill:#7e9dff;}.b{fill:#363449;}</style></defs><g transform="translate(-592.563 -128.861)"><path class="a" d="M643.488,157.627V139.541h-12.98v18.086a2.626,2.626,0,0,0,.007.956l-.007,0v12.512l6.49-2.885,6.49,2.885V158.579l-.057.033A2.227,2.227,0,0,0,643.488,157.627Z" transform="translate(-31.506 -8.877)"/><path class="b" d="M631.7,162.935h-.327l-6.158-3.165a.01.01,0,0,0-.01,0l-6.158,3.165h-.327a2.437,2.437,0,0,1-2.434-2.434V131.295a2.437,2.437,0,0,1,2.434-2.434H631.7a2.437,2.437,0,0,1,2.434,2.434V160.5A2.437,2.437,0,0,1,631.7,162.935Zm-6.49-5.869a2.715,2.715,0,0,1,1.241.3l4.979,2.559V131.565h-12.44v28.358l4.979-2.559A2.714,2.714,0,0,1,625.211,157.066Z" transform="translate(-19.719)"/><path class="a" d="M621.019,245.662a6.5,6.5,0,0,1,1.752,9.014,12.935,12.935,0,0,1-3.938,3.166,54.578,54.578,0,0,1-6.49,3.137,54.578,54.578,0,0,1-6.49-3.137,12.935,12.935,0,0,1-3.938-3.166,6.5,6.5,0,0,1,1.753-9.014,7.319,7.319,0,0,1,2.185-1.031c2.264-.62,4.514.195,6.49,2.647,1.976-2.452,4.226-3.267,6.49-2.647A7.32,7.32,0,0,1,621.019,245.662Z" transform="translate(-6.851 -96.061)"/><path class="b" d="M618.254,243.351a8,8,0,0,0-3.121-4.959,7.107,7.107,0,0,0-5.17-1.364,7.559,7.559,0,0,0-4.489,2.44,7.559,7.559,0,0,0-4.489-2.44,7.107,7.107,0,0,0-5.17,1.364,8,8,0,0,0-3.121,4.959,8.4,8.4,0,0,0,1.6,6.528c.292.41,1.181,1.658,6.135,4.14,1.941.972,3.722,1.745,4.326,2a1.356,1.356,0,0,0,.7.2h.036a1.356,1.356,0,0,0,.7-.2c.6-.257,2.385-1.03,4.326-2,4.954-2.481,5.843-3.729,6.136-4.14A8.4,8.4,0,0,0,618.254,243.351Zm-3.8,4.959c-.885,1.242-5.6,3.627-8.976,5.077-3.375-1.449-8.09-3.834-8.976-5.077-2.174-3.051-1.186-6.2.913-7.735,1.666-1.218,4.4-1.583,6.64,1.4a1.989,1.989,0,0,0,1.442.721,1.756,1.756,0,0,0,1.4-.721c2.235-2.981,4.974-2.616,6.64-1.4C615.636,242.109,616.623,245.259,614.449,248.309Z" transform="translate(0 -89.855)"/><g transform="translate(596.929 151.036)"><path class="b" d="M622.029,260.221a3.61,3.61,0,0,0-3.606,3.606,1.442,1.442,0,1,0,2.885,0,.722.722,0,0,1,.721-.721,1.442,1.442,0,1,0,0-2.885Z" transform="translate(-618.423 -260.221)"/></g></g></svg>