<svg xmlns="http://www.w3.org/2000/svg" width="31.052" height="34.368" viewBox="0 0 31.052 34.368">
  <g id="Group_112" data-name="Group 112" transform="translate(-536.25 -457)">
    <g id="Group_14" data-name="Group 14" transform="translate(536.25 457)">
      <path id="Path_1594" data-name="Path 1594" d="M661.034,713.832a8.374,8.374,0,0,0-6.17,2.725,8.375,8.375,0,0,0-6.172-2.725c-.168,0-6.351,3.248-6.516,3.264-1.357,1.73-1.882,5.3-1.876,7.5,0,5.359,9.821,10.7,14.564,14.133,4.325-3.3,14.665-11.872,14.665-16.187A8.605,8.605,0,0,0,661.034,713.832Z" transform="translate(-639.337 -705.06)" fill="#c5d3ff"/>
      <path id="Path_1597" data-name="Path 1597" d="M639.67,737.392a.86.86,0,0,1-.46-.134,70.17,70.17,0,0,1-7.434-5.56c-5.06-4.37-7.631-8.134-7.631-11.192a9.478,9.478,0,0,1,9.354-9.57,9.135,9.135,0,0,1,6.171,2.377,9.134,9.134,0,0,1,6.172-2.377,9.478,9.478,0,0,1,9.355,9.574c0,3.056-2.567,6.822-7.631,11.192a70.166,70.166,0,0,1-7.434,5.56A.863.863,0,0,1,639.67,737.392ZM633.5,712.654a7.754,7.754,0,0,0-7.634,7.852c0,2.5,2.432,5.918,7.034,9.888a70.4,70.4,0,0,0,6.773,5.118c4.249-2.771,13.8-10.051,13.8-15a7.755,7.755,0,0,0-7.634-7.852,7.469,7.469,0,0,0-5.542,2.449.86.86,0,0,1-1.215.049c-.017-.016-.034-.032-.05-.049a7.469,7.469,0,0,0-5.536-2.455Z" transform="translate(-624.144 -703.024)" fill="#363449"/>
      <path id="Path_1599" data-name="Path 1599" d="M674.379,688.271a.86.86,0,0,1-.86-.86h0v-2.248a.86.86,0,1,1,1.72-.005v2.251a.86.86,0,0,1-.858.863Z" transform="translate(-658.853 -684.3)" fill="#363449"/>
      <path id="Path_1600" data-name="Path 1600" d="M642.385,697.752a.858.858,0,0,1-.6-.252l-1.588-1.588a.86.86,0,1,1,1.217-1.217h0L643,696.284a.86.86,0,0,1-.609,1.469Z" transform="translate(-635.25 -691.431)" fill="#363449"/>
      <path id="Path_1601" data-name="Path 1601" d="M702.624,697.752a.86.86,0,0,1-.608-1.469L703.6,694.7a.86.86,0,0,1,1.217,1.217h0l-1.588,1.588A.857.857,0,0,1,702.624,697.752Z" transform="translate(-678.708 -691.431)" fill="#363449"/>
      <path id="Path_38" data-name="Path 38" d="M671.555,743.98h-1.782v-8.79a1.22,1.22,0,0,1,.293-.793l.133-.155,1.742-.758-3.144-1.953-.087-.1a1.221,1.221,0,0,1,.055-1.664l.088-.088L671.863,728l-1.664-.718-.134-.156a1.22,1.22,0,0,1-.293-.793V722h1.782v3.927l2.425,1.047.134.156a1.223,1.223,0,0,1-.064,1.654l-.088.088-3.2,1.782,3.267,2.03.088.1a1.224,1.224,0,0,1,.008,1.594l-.133.155-2.438,1.061Z" transform="translate(-655.261 -710.802)" fill="#363449"/>
    </g>
  </g>
</svg>
