<svg xmlns="http://www.w3.org/2000/svg" width="31.052" height="34.368" viewBox="0 0 31.052 26.456">
  <g id="Group_109" data-name="Group 109" transform="translate(-417.607 -406)">
    <g id="Group_16" data-name="Group 16" transform="translate(417.607 406)">
      <g id="love">
        <path id="Path_1597" data-name="Path 1597" d="M255.67,737.392a.859.859,0,0,1-.46-.134,70.152,70.152,0,0,1-7.434-5.56c-5.06-4.37-7.631-8.134-7.631-11.192a9.477,9.477,0,0,1,9.354-9.57,9.134,9.134,0,0,1,6.171,2.377,9.135,9.135,0,0,1,6.172-2.377,9.478,9.478,0,0,1,9.355,9.574c0,3.056-2.567,6.822-7.631,11.192a70.157,70.157,0,0,1-7.434,5.56A.864.864,0,0,1,255.67,737.392ZM249.5,712.654a7.755,7.755,0,0,0-7.634,7.852c0,2.5,2.432,5.918,7.034,9.888a70.39,70.39,0,0,0,6.773,5.118c4.249-2.771,13.8-10.051,13.8-15a7.755,7.755,0,0,0-7.634-7.852,7.469,7.469,0,0,0-5.542,2.449.86.86,0,0,1-1.215.049c-.017-.016-.034-.032-.05-.049a7.469,7.469,0,0,0-5.536-2.455Z" transform="translate(-240.144 -710.936)" fill="#363449"/>
        <path id="Path_1598" data-name="Path 1598" d="M307.765,730.035a.86.86,0,0,1-.86-.86,4.086,4.086,0,0,0-3.968-4.188,3.861,3.861,0,0,0-.66.056.86.86,0,1,1-.3-1.695,5.55,5.55,0,0,1,.957-.083,5.808,5.808,0,0,1,5.689,5.9.86.86,0,0,1-.854.866Zm-8.3-3.5a.86.86,0,0,1-.626-1.446v-.006a.86.86,0,1,1,1.265,1.166h0l-.018.019a.858.858,0,0,1-.621.266Z" transform="translate(-281.24 -719.604)" fill="#363449"/>
      </g>
    </g>
  </g>
</svg>
