<svg xmlns="http://www.w3.org/2000/svg" width="31.052" height="34.368" viewBox="0 0 31.052 26.456">
  <g id="Group_110" data-name="Group 110" transform="translate(-536.25 -406)">
    <g id="Group_13" data-name="Group 13" transform="translate(536.25 406)">
      <path id="Path_1597" data-name="Path 1597" d="M639.67,737.392a.86.86,0,0,1-.46-.134,70.17,70.17,0,0,1-7.434-5.56c-5.06-4.37-7.631-8.134-7.631-11.192a9.478,9.478,0,0,1,9.354-9.57,9.135,9.135,0,0,1,6.171,2.377,9.134,9.134,0,0,1,6.172-2.377,9.478,9.478,0,0,1,9.355,9.574c0,3.056-2.567,6.822-7.631,11.192a70.166,70.166,0,0,1-7.434,5.56A.863.863,0,0,1,639.67,737.392ZM633.5,712.654a7.754,7.754,0,0,0-7.634,7.852c0,2.5,2.432,5.918,7.034,9.888a70.4,70.4,0,0,0,6.773,5.118c4.249-2.771,13.8-10.051,13.8-15a7.755,7.755,0,0,0-7.634-7.852,7.469,7.469,0,0,0-5.542,2.449.86.86,0,0,1-1.215.049c-.017-.016-.034-.032-.05-.049a7.469,7.469,0,0,0-5.536-2.455Z" transform="translate(-624.144 -710.936)" fill="#363449"/>
      <path id="Path_37" data-name="Path 37" d="M671.555,743.98h-1.782v-8.79a1.22,1.22,0,0,1,.293-.793l.133-.155,1.742-.758-3.144-1.953-.087-.1a1.221,1.221,0,0,1,.055-1.664l.088-.088L671.863,728l-1.664-.718-.134-.156a1.22,1.22,0,0,1-.293-.793V722h1.782v3.927l2.425,1.047.134.156a1.223,1.223,0,0,1-.064,1.654l-.088.088-3.2,1.782,3.267,2.03.088.1a1.224,1.224,0,0,1,.008,1.594l-.133.155-2.438,1.061Z" transform="translate(-655.261 -718.714)" fill="#363449"/>
    </g>
  </g>
</svg>
