<svg xmlns="http://www.w3.org/2000/svg" width="34" height="34" viewBox="0 0 34 34">
  <g id="Group_2206" data-name="Group 2206" transform="translate(-2297 760)">
    <g id="Group_119" data-name="Group 119" transform="translate(-234.04 -1414.4)">
      <g id="Group_27" data-name="Group 27">
        <circle id="Ellipse_9-2" data-name="Ellipse 9-2" cx="17" cy="17" r="17" transform="translate(2531.04 654.4)" fill="#f15249"/>
        <path id="Path_85" data-name="Path 85" d="M2540.339,678.849l9.386,9.386a17.309,17.309,0,0,0,15.149-15.04l-9.441-9.441Z" fill="#ad0e0e"/>
        <path id="Path_86-2" data-name="Path 86-2" d="M2555.9,675.068a1.963,1.963,0,0,1,0,2.725l-1.467,1.467a1.961,1.961,0,0,1-2.725,0l-11.527-11.529a1.964,1.964,0,0,1,0-2.725l1.52-1.52a1.961,1.961,0,0,1,2.725,0Z" fill="#fff"/>
        <path id="Path_88-2" data-name="Path 88-2" d="M2549.793,668.714l-4.446,4.446,6.422,6.367a2.056,2.056,0,0,0,2.854,0l1.592-1.592a2.056,2.056,0,0,0,0-2.854Z" fill="#d6d6d6"/>
        <path id="Path_87-2" data-name="Path 87-2" d="M2551.711,663.541a1.961,1.961,0,0,1,2.725,0l1.52,1.52a1.962,1.962,0,0,1,0,2.725l-11.585,11.475a1.961,1.961,0,0,1-2.725,0l-1.468-1.467a1.962,1.962,0,0,1,0-2.725Z" fill="#fff"/>
      </g>
    </g>
  </g>
</svg>
