<svg xmlns="http://www.w3.org/2000/svg" width="30.707" height="30.707" viewBox="0 0 30.707 30.707">
  <g id="Group_105" data-name="Group 105" transform="translate(-411.315 -286)">
    <path id="Path_25" data-name="Path 25" d="M259,955.964a1.249,1.249,0,0,1-.886-.367l-5.765-5.765,1.772-1.773L259,952.938l10.227-10.227L271,944.483,259.89,955.6A1.249,1.249,0,0,1,259,955.964Z" transform="translate(166.536 -647.711)" fill="#fff"/>
    <circle id="Ellipse_3" data-name="Ellipse 3" cx="14.727" cy="14.727" r="14.727" transform="translate(411.941 287)" fill="#fff"/>
    <path id="Path_26" data-name="Path 26" d="M242.363,905.5a15.353,15.353,0,1,0,4.5,10.857A15.253,15.253,0,0,0,242.363,905.5Zm-10.857,24.957a14.1,14.1,0,1,1,14.1-14.1A14.116,14.116,0,0,1,231.507,930.454Z" transform="translate(195.162 -615)" fill="#231f20"/>
    <path id="Path_28" data-name="Path 28" d="M256.635,952.058l-4.436-4.436a.627.627,0,0,0-.886,0l-1.772,1.773a.627.627,0,0,0,0,.886l5.765,5.765a1.88,1.88,0,0,0,2.659,0l11.113-11.113a.627.627,0,0,0,0-.886l-1.773-1.772a.627.627,0,0,0-.886,0Zm10.227-8.454.886.886-10.67,10.67a.627.627,0,0,1-.886,0l-5.322-5.322.886-.886,4.436,4.436a.627.627,0,0,0,.886,0Z" transform="translate(168.905 -647.494)" fill="#231f20"/>
  </g>
</svg>
