<svg xmlns="http://www.w3.org/2000/svg" width="34" height="34" viewBox="0 0 34 34">
  <g id="Group_2205" data-name="Group 2205" transform="translate(-2341 760)">
    <g id="Group_120" data-name="Group 120" transform="translate(-234.04 -1414.4)">
      <g id="Group_26" data-name="Group 26">
        <circle id="Ellipse_8" data-name="Ellipse 8" cx="17" cy="17" r="17" transform="translate(2575.04 654.4)" fill="#32ba7c"/>
        <path id="Path_83" data-name="Path 83" d="M2587.345,678.774l8.755,8.755a17.014,17.014,0,0,0,12.623-16.436v-.484l-6.875-6.338Z" fill="#0aa06e"/>
        <g id="Group_25" data-name="Group 25">
          <path id="Path_78-2" data-name="Path 78-2" d="M2592.122,674.911a2.011,2.011,0,0,1,0,2.793l-1.558,1.558a2.011,2.011,0,0,1-2.793,0l-6.821-6.875a2.011,2.011,0,0,1,0-2.793l1.558-1.558a2.011,2.011,0,0,1,2.793,0Z" fill="#fff"/>
          <path id="Path_79-2" data-name="Path 79-2" d="M2598.082,663.033a2.011,2.011,0,0,1,2.793,0l1.558,1.558a2.011,2.011,0,0,1,0,2.793l-11.817,11.763a2.011,2.011,0,0,1-2.793,0l-1.558-1.558a2.011,2.011,0,0,1,0-2.793Z" fill="#fff"/>
        </g>
      </g>
    </g>
  </g>
</svg>
