<svg xmlns="http://www.w3.org/2000/svg" width="30.707" height="30.707" viewBox="0 0 30.707 30.707">
  <g id="Group_107" data-name="Group 107" transform="translate(-530.226 -286)">
    <g id="Group_36" data-name="Group 36" transform="translate(270 -46)">
      <circle id="Ellipse_1" data-name="Ellipse 1" cx="14.727" cy="14.727" r="14.727" transform="translate(260.853 333)" fill="#fff"/>
      <path id="Path_11" data-name="Path 11" d="M645.6,929.678l-1.773-1.773-7.533,7.533-7.533-7.533-1.772,1.773,7.533,7.533-7.533,7.533,1.772,1.773,7.533-7.533,7.533,7.533,1.773-1.773-7.533-7.533Z" transform="translate(-360.717 -589.905)" fill="#fff"/>
    </g>
    <g id="Group_7" data-name="Group 7" transform="translate(530.226 286)">
      <path id="Path_12" data-name="Path 12" d="M624.3,903.5a15.353,15.353,0,1,0,4.5,10.857A15.253,15.253,0,0,0,624.3,903.5Zm-10.857,24.957a14.1,14.1,0,1,1,14.1-14.1A14.116,14.116,0,0,1,613.439,928.454Z" transform="translate(-598.085 -899)" fill="#231f20"/>
      <path id="Path_17" data-name="Path 17" d="M643.676,926.866l-1.772-1.773a.627.627,0,0,0-.886,0l-7.09,7.09-7.09-7.09a.626.626,0,0,0-.886,0l-1.773,1.772a.627.627,0,0,0,0,.886l7.09,7.09-7.09,7.09a.627.627,0,0,0,0,.886l1.772,1.773a.627.627,0,0,0,.886,0l7.09-7.09,7.09,7.09a.627.627,0,0,0,.886,0l1.772-1.772a.627.627,0,0,0,0-.886l-7.09-7.09,7.09-7.09A.627.627,0,0,0,643.676,926.866Zm-8.419,7.533a.627.627,0,0,0,0,.886l7.09,7.09-.886.886-7.09-7.09a.627.627,0,0,0-.886,0l-7.09,7.09-.886-.886,7.09-7.09a.627.627,0,0,0,0-.886l-7.09-7.09.886-.886,7.09,7.09a.626.626,0,0,0,.886,0l7.09-7.09.886.886Z" transform="translate(-618.574 -919.489)" fill="#231f20"/>
    </g>
  </g>
</svg>
