<svg xmlns="http://www.w3.org/2000/svg" width="34" height="34" viewBox="0 0 34 34">
  <g id="Group_2207" data-name="Group 2207" transform="translate(-2252 760)">
    <g id="Group_118" data-name="Group 118" transform="translate(-234.04 -1413.4)">
      <g id="Group_28" data-name="Group 28" transform="translate(2486.04 653.4)">
        <path id="Path_6000" data-name="Path 6000" d="M2503.04,687.4a17,17,0,1,1,17-17A17.019,17.019,0,0,1,2503.04,687.4Zm0-32.111a15.111,15.111,0,1,0,15.111,15.111A15.129,15.129,0,0,0,2503.04,655.289Z" transform="translate(-2486.04 -653.4)" fill="#f15249"/>
        <path id="Path_86" data-name="Path 86" d="M2511.9,675.068a1.963,1.963,0,0,1,0,2.725l-1.467,1.468a1.961,1.961,0,0,1-2.725,0l-11.527-11.529a1.963,1.963,0,0,1,0-2.725l1.52-1.52a1.961,1.961,0,0,1,2.725,0Z" transform="translate(-2487.04 -654.397)" fill="#f15249"/>
        <path id="Path_88" data-name="Path 88" d="M2505.793,668.714l-4.446,4.446,6.422,6.367a2.056,2.056,0,0,0,2.854,0l1.592-1.592a2.056,2.056,0,0,0,0-2.854Z" transform="translate(-2487.287 -654.645)" fill="#f15249"/>
        <path id="Path_87" data-name="Path 87" d="M2507.711,663.541a1.963,1.963,0,0,1,2.725,0l1.52,1.52a1.962,1.962,0,0,1,0,2.725l-11.585,11.475a1.961,1.961,0,0,1-2.725,0l-1.468-1.467a1.962,1.962,0,0,1,0-2.725Z" transform="translate(-2487.043 -654.4)" fill="#f15249"/>
      </g>
    </g>
  </g>
</svg>
