<svg xmlns="http://www.w3.org/2000/svg" width="34" height="34" viewBox="0 0 34 34">
  <g id="Group_2208" data-name="Group 2208" transform="translate(-2208 760)">
    <g id="Group_117" data-name="Group 117" transform="translate(-234.04 -1413.4)">
      <path id="Path_5999" data-name="Path 5999" d="M2459.04,687.4a17,17,0,1,1,17-17A17.019,17.019,0,0,1,2459.04,687.4Zm0-32.111a15.111,15.111,0,1,0,15.111,15.111A15.129,15.129,0,0,0,2459.04,655.289Z" transform="translate(0 0)" fill="#0aa06e"/>
      <g id="Group_23" data-name="Group 23" transform="translate(2447.438 660.985)">
        <path id="Path_78" data-name="Path 78" d="M2460.122,674.339a2.011,2.011,0,0,1,0,2.793l-1.558,1.558a2.011,2.011,0,0,1-2.793,0l-6.821-6.875a2.011,2.011,0,0,1,0-2.793l1.558-1.558a2.011,2.011,0,0,1,2.793,0Z" transform="translate(-2448.386 -661.897)" fill="#0aa06e"/>
        <path id="Path_79" data-name="Path 79" d="M2466.082,662.461a2.011,2.011,0,0,1,2.793,0l1.558,1.558a2.011,2.011,0,0,1,0,2.793l-11.817,11.763a2.011,2.011,0,0,1-2.793,0l-1.558-1.558a2.011,2.011,0,0,1,0-2.793Z" transform="translate(-2448.386 -661.897)" fill="#0aa06e"/>
      </g>
    </g>
  </g>
</svg>
