<svg xmlns="http://www.w3.org/2000/svg" width="39.864" height="53.46" viewBox="0 0 39.864 53.46"><defs><style>.a{fill:#ebeef2;}.b{fill:#c9cdd3;}.c{fill:#f4d34c;}.d{fill:#d6a10d;}.e{fill:#f6bb93;}.f{fill:#e49775;}.g{fill:#f15249;}.h{fill:#ad0e0e;}</style></defs><rect class="a" width="4.959" height="26.859" transform="translate(21.832 21.679)"/><path class="b" d="M274.2,213.062a9.978,9.978,0,0,0,4.96,0v-5.441H274.2v5.441Z" transform="translate(-252.364 -185.942)"/><ellipse class="c" cx="9.904" cy="9.904" rx="9.904" ry="9.904" transform="translate(14.408 4.804)"/><path class="d" d="M237.06,62.221a9.905,9.905,0,0,1-13.283,14.387A9.9,9.9,0,1,0,237.06,62.221Z" transform="translate(-207.209 -55.724)"/><path class="e" d="M184.456,267.424a1.878,1.878,0,0,0-1.878-1.878,1.878,1.878,0,0,0,1.875-1.968,1.912,1.912,0,0,0-1.928-1.787h-9.308a.413.413,0,0,1-.368-.6,13.308,13.308,0,0,0,1.607-5.993,2.319,2.319,0,0,0-2.242-2.36,2.28,2.28,0,0,0-2.317,2.279,8.916,8.916,0,0,1-1.469,4.605,7.146,7.146,0,0,1-1.594,1.83,1.172,1.172,0,0,1-.711.242H162.8v14.661h7.661a23.787,23.787,0,0,0,12.477.29,1.858,1.858,0,0,0-.356-3.685,1.878,1.878,0,0,0,0-3.755A1.877,1.877,0,0,0,184.456,267.424Z" transform="translate(-152.596 -226.435)"/><path class="f" d="M291.147,348.006a1.878,1.878,0,0,0-1.878-1.878,1.878,1.878,0,1,0,0-3.755,1.878,1.878,0,0,0,1.877-1.942,1.91,1.91,0,0,0-1.926-1.813H286a1.912,1.912,0,0,1,1.928,1.787,1.877,1.877,0,0,1-1,1.754.244.244,0,0,0,0,.431,1.878,1.878,0,0,1,0,3.323.244.244,0,0,0,0,.432,1.878,1.878,0,0,1,0,3.323.244.244,0,0,0-.006.43,1.852,1.852,0,0,1-.513,3.471,34.5,34.5,0,0,1-4.483.634,28.219,28.219,0,0,0,7.7-.634,1.858,1.858,0,0,0-.356-3.685A1.878,1.878,0,0,0,291.147,348.006Z" transform="translate(-259.287 -303.261)"/><path class="a" d="M131.979,334.425v16.2h4.172a1.047,1.047,0,0,0,1.047-1.047v-14.1a1.047,1.047,0,0,0-1.047-1.047Z" transform="translate(-124.996 -299.506)"/><path class="b" d="M136.151,456.167h-4.172v2.549h4.172a1.047,1.047,0,0,0,1.047-1.047V455.12A1.047,1.047,0,0,1,136.151,456.167Z" transform="translate(-124.996 -407.599)"/><path class="g" d="M78.805,320.647v17a1.161,1.161,0,0,1-1.161,1.161H72.606V319.486h5.038A1.161,1.161,0,0,1,78.805,320.647Z" transform="translate(-71.823 -286.127)"/><path class="h" d="M77.644,470.128H72.606v2.549h5.038a1.161,1.161,0,0,0,1.161-1.161v-2.549A1.161,1.161,0,0,1,77.644,470.128Z" transform="translate(-71.823 -420)"/><g transform="translate(0)"><path d="M393.354,25.61a.781.781,0,0,0,.554-.229L395.69,23.6a.783.783,0,0,0-1.108-1.107L392.8,24.273a.783.783,0,0,0,.554,1.337Z" transform="translate(-358.379 -19.938)"/><path d="M363.52,4.35a.783.783,0,0,0,.783-.783V.783a.783.783,0,0,0-1.566,0V3.567A.783.783,0,0,0,363.52,4.35Z" transform="translate(-331.66)"/><path d="M408.8,69.157h-2.784a.783.783,0,0,0,0,1.566H408.8a.783.783,0,0,0,0-1.566Z" transform="translate(-369.716 -61.936)"/><path d="M100.1,49.2a10.688,10.688,0,1,0-13.95,10.178v1.113a2.983,2.983,0,0,0-1.418-.383h-.052a3.062,3.062,0,0,0-3.061,3.063,8.118,8.118,0,0,1-1.346,4.183,6.338,6.338,0,0,1-1.408,1.628c-.188.143-.29.058-1.423.083a1.822,1.822,0,0,0-1.187-.438H72.832a1.948,1.948,0,0,0-1.906-1.56H65.888a.783.783,0,0,0-.783.783V71.02a.783.783,0,0,0,1.566,0V68.634h4.255a.379.379,0,0,1,.378.378v17a.379.379,0,0,1-.378.378H66.671V74.152a.783.783,0,1,0-1.566,0V87.169a.783.783,0,0,0,.783.783h5.038a1.948,1.948,0,0,0,1.906-1.56H76.26a1.833,1.833,0,0,0,1.678-1.1h4.908a21.341,21.341,0,0,0,5.262.948h.043a.783.783,0,0,0,.041-1.565,19.811,19.811,0,0,1-4.99-.914.783.783,0,0,0-.237-.037H78.09V70.632h.542a1.971,1.971,0,0,0,1.186-.4A7.854,7.854,0,0,0,81.6,68.2a9.717,9.717,0,0,0,1.592-5.025,1.5,1.5,0,0,1,1.522-1.5,1.518,1.518,0,0,1,1.443,1.257v.982a12.873,12.873,0,0,1-1.487,4.964,1.2,1.2,0,0,0,1.059,1.754h9.309a1.135,1.135,0,0,1,1.146,1.04,1.1,1.1,0,0,1-1.094,1.149.783.783,0,1,0,0,1.566,1.095,1.095,0,1,1,0,2.19.783.783,0,1,0,0,1.566,1.094,1.094,0,1,1,0,2.189.783.783,0,0,0,0,1.566,1.075,1.075,0,0,1,.2,2.134,34.469,34.469,0,0,1-4.076.6.783.783,0,0,0,.062,1.564l.063,0a36.026,36.026,0,0,0,4.26-.624,2.631,2.631,0,0,0,1.4-4.431l-.022-.022a2.656,2.656,0,0,0,0-3.754,2.656,2.656,0,0,0,0-3.755l.041-.042a2.641,2.641,0,0,0,.733-1.965,2.685,2.685,0,0,0-2.711-2.532H92.68V59.379A10.707,10.707,0,0,0,100.1,49.2ZM76.524,84.562a.265.265,0,0,1-.264.264H72.871V70.194H76.26a.265.265,0,0,1,.264.264ZM80.3,49.2a9.121,9.121,0,1,1,9.121,9.121A9.132,9.132,0,0,1,80.3,49.2ZM91.114,69.065H87.721V59.754a10.767,10.767,0,0,0,3.393,0Z" transform="translate(-65.105 -34.492)"/><path d="M255.726,106.236v-.656a.783.783,0,1,0-1.566,0v.656a.783.783,0,1,0,1.566,0Z" transform="translate(-234.42 -93.855)"/><path d="M327.515,107.02a.783.783,0,0,0,.783-.783v-.656a.783.783,0,1,0-1.566,0v.656A.783.783,0,0,0,327.515,107.02Z" transform="translate(-299.414 -93.855)"/><path d="M8.553.783a.783.783,0,0,0-1.566,0,2.71,2.71,0,0,1-5.421,0A.783.783,0,0,0,0,.783a4.277,4.277,0,1,0,8.553,0Z" transform="translate(28.589 20.918) rotate(180)"/></g></svg>