<?xml version="1.0" encoding="utf-8"?>
<!-- Generator: Adobe Illustrator 24.0.2, SVG Export Plug-In . SVG Version: 6.00 Build 0)  -->
<svg version="1.1" id="Layer_1" xmlns="http://www.w3.org/2000/svg" xmlns:xlink="http://www.w3.org/1999/xlink" x="0px" y="0px"
	 viewBox="0 0 65.7 41.7" style="enable-background:new 0 0 65.7 41.7;" xml:space="preserve">
<style type="text/css">
	.st0{fill:#BDDBFF;}
	.st1{fill:#3D9AE2;}
</style>
<title>Artboard 1 copy</title>
<g id="Electric_Car">
	<path id="Path_646" class="st0" d="M64.7,29.6v2.2c0,1.2-1,2.2-2.2,2.2h-4.4c-0.1-3.6-3.2-6.5-6.8-6.3c-3.4,0.1-6.2,2.9-6.3,6.3
		h-8.8V16.5h21.9c2.8,0,5.3,1.7,6.2,4.4h-5.1c-0.6,0-1.1,0.5-1.1,1.1v2.2c0,0.6,0.5,1.1,1.1,1.1h5.5V29.6z"/>
	<path id="Path_647" class="st0" d="M14.2,27.4c-3.6,0-6.6,2.9-6.6,6.6H3.3c-1.2,0-2.2-1-2.2-2.2v-9.5c0-2.4,0.5-4.8,1.5-7L7,5.1
		c1-2.4,3.4-3.9,6-3.9h27.5c1.4,0,2.8,0.7,3.6,1.9l1.8,2.5h-34c-0.5,0-1,0.4-1.1,0.9L9,15.2c-0.1,0.6,0.3,1.2,0.9,1.3h0.2h26.1V34
		H20.8C20.8,30.4,17.9,27.4,14.2,27.4L14.2,27.4z"/>
	<g id="Group_278">
		<path id="Path_648" class="st1" d="M58.1,15.4h-3.8l-9.3-13c-1-1.5-2.7-2.4-4.5-2.4H13.1c-3,0-5.8,1.8-7,4.6L1.6,14.9
			c-1,2.4-1.6,4.9-1.6,7.5v9.5c0,1.8,1.5,3.3,3.3,3.3c0,0,0,0,0,0h3.4c0.6,4.2,4.5,7.1,8.7,6.5c3.4-0.5,6-3.1,6.5-6.5h22.1
			c0.6,4.2,4.5,7.1,8.7,6.5c3.4-0.5,6-3.1,6.5-6.5h3.4c1.8,0,3.3-1.5,3.3-3.3c0,0,0,0,0,0V23C65.7,18.8,62.3,15.4,58.1,15.4z
			 M63.5,23v1.1h-4.4V22h4.3C63.5,22.3,63.6,22.7,63.5,23z M37.3,6.6h8l6.3,8.8H37.3V6.6z M35.1,15.4h-25l1.8-8.8h23.3V15.4z
			 M2.2,31.8v-1.1h3.3v-2.2H2.2v-6.2c0-2.3,0.5-4.5,1.4-6.6L8,5.5c0.9-2,2.8-3.3,5-3.3h27.5c1.1,0,2.1,0.5,2.7,1.4l0.6,0.8H11.9
			c-1,0-1.9,0.7-2.2,1.8L8,15c-0.2,1.2,0.5,2.3,1.7,2.6c0,0,0,0,0,0c0.1,0,0.3,0,0.4,0h25v15.3H21.8c-0.6-4.2-4.5-7.1-8.7-6.5
			c-3.4,0.5-6,3.1-6.5,6.5H3.3C2.7,32.9,2.2,32.4,2.2,31.8C2.2,31.8,2.2,31.8,2.2,31.8z M14.2,39.5c-3,0-5.5-2.5-5.5-5.5
			s2.5-5.5,5.5-5.5c3,0,5.5,2.4,5.5,5.5C19.7,37,17.3,39.5,14.2,39.5L14.2,39.5z M51.5,39.5c-3,0-5.5-2.5-5.4-5.5s2.5-5.5,5.5-5.4
			c3,0,5.4,2.5,5.4,5.5C57,37,54.6,39.5,51.5,39.5C51.5,39.5,51.5,39.5,51.5,39.5L51.5,39.5z M62.5,32.9h-3.4
			c-0.6-4.2-4.5-7.1-8.7-6.5c-3.4,0.5-6,3.1-6.5,6.5h-6.7V17.6h20.8c1.7,0,3.3,0.8,4.3,2.2h-3.3c-1.2,0-2.2,1-2.2,2.2c0,0,0,0,0,0
			l0,0v2.2c0,1.2,1,2.2,2.2,2.2h4.4v2.2h-3.3v2.2h3.3v1.1C63.5,32.5,63.1,33,62.5,32.9L62.5,32.9z"/>
		<path id="Path_649" class="st1" d="M39.5,19.8h4.4V22h-4.4V19.8z"/>
		<path id="Path_650" class="st1" d="M11,19.8h4.4V22H11V19.8z"/>
		<path id="Path_651" class="st1" d="M13.1,32.9h2.2v2.2h-2.2L13.1,32.9z"/>
		<path id="Path_652" class="st1" d="M50.4,32.9h2.2v2.2h-2.2V32.9z"/>
	</g>
</g>
</svg>
