<?xml version="1.0" encoding="utf-8"?>
<!-- Generator: Adobe Illustrator 24.0.2, SVG Export Plug-In . SVG Version: 6.00 Build 0)  -->
<svg version="1.1" id="Layer_1" xmlns="http://www.w3.org/2000/svg" xmlns:xlink="http://www.w3.org/1999/xlink" x="0px" y="0px"
	 viewBox="0 0 65.8 41.7" style="enable-background:new 0 0 65.8 41.7;" xml:space="preserve">
<style type="text/css">
	.st0{fill:#E6E7E8;}
	.st1{fill:#FF9811;}
	.st2{fill:#EE8700;}
	.st3{fill:#D1D3D4;}
	.st4{fill:#CC7400;}
	.st5{fill:#57565C;}
</style>
<title>Artboard 1</title>
<g id="Electric_Car">
	<path id="Path_634" class="st0" d="M64.7,23v2.2h-5.5c-0.6,0-1.1-0.5-1.1-1.1l0,0v-2.2c0-0.6,0.5-1.1,1.1-1.1h5.1
		C64.5,21.5,64.7,22.3,64.7,23z"/>
	<path id="Path_635" class="st1" d="M64.7,25.2v6.6c0,1.2-1,2.2-2.2,2.2c0,0,0,0,0,0h-4.4c-0.1-3.6-3.1-6.5-6.7-6.4
		c-3.4,0.1-6.2,2.8-6.4,6.3V34h-8.8V16.4h21.9c2.8,0,5.3,1.8,6.2,4.4h-5.1c-0.6,0-1.1,0.5-1.1,1.1l0,0v2.2c0,0.6,0.5,1.1,1.1,1.1
		L64.7,25.2L64.7,25.2z"/>
	<path id="Path_636" class="st0" d="M45.9,5.5l7.8,11H36.2v-11L45.9,5.5z"/>
	<path id="Path_637" class="st2" d="M10.8,6.4L9,15.1c-0.1,0.6,0.3,1.2,0.9,1.3h0.2h26.1V34H20.8c-0.1-3.6-3.2-6.5-6.8-6.3
		c-3.4,0.1-6.2,2.9-6.3,6.3H3.3c-1.2,0-2.2-1-2.2-2.2c0,0,0,0,0,0v-9.5c0-2.4,0.5-4.8,1.5-7L7.1,5c1-2.4,3.4-3.9,6-3.9h27.4
		c1.4,0,2.8,0.7,3.6,1.8l1.8,2.5h-34C11.3,5.4,10.9,5.8,10.8,6.4z"/>
	<path id="Path_638" class="st3" d="M36.2,5.5v11H10.1C9.5,16.5,9,16,9,15.4c0,0,0,0,0,0c0-0.1,0-0.1,0-0.2l1.8-8.8
		c0.1-0.5,0.6-0.9,1.1-0.9L36.2,5.5z"/>
	<path id="Path_639" class="st4" d="M23,34h-2.2c-0.1-3.6-3.2-6.5-6.8-6.3c-3.4,0.1-6.2,2.9-6.3,6.3H5.5c0.2-4.8,4.3-8.6,9.2-8.3
		C19.2,25.9,22.8,29.5,23,34z"/>
	<path id="Path_640" class="st2" d="M60.3,34h-2.2c-0.1-3.6-3.2-6.5-6.8-6.3c-3.4,0.1-6.2,2.9-6.3,6.3h-2.2c0-4.8,3.9-8.8,8.8-8.8
		C56.3,25.2,60.3,29.2,60.3,34z"/>
	<ellipse id="Ellipse_55" class="st5" cx="51.8" cy="33.4" rx="6.5" ry="7"/>
	<ellipse id="Ellipse_56" class="st5" cx="13.8" cy="33.4" rx="6.5" ry="7"/>
	<path id="Path_641" d="M28.5,35.1h15.4c0.6,4.2,4.5,7.1,8.7,6.5c3.4-0.5,6-3.1,6.5-6.5h3.4c1.8,0,3.3-1.5,3.3-3.3l0,0V23
		c0-4.2-3.4-7.7-7.7-7.7h-3.8l-9.3-13c-1-1.5-2.7-2.3-4.5-2.3H13.1C10,0,7.2,1.8,6,4.6L1.6,14.8c-1,2.4-1.6,4.9-1.6,7.5v9.5
		c0,1.8,1.5,3.3,3.3,3.3c0,0,0,0,0,0h3.4c0.6,4.2,4.5,7.1,8.7,6.5c3.4-0.5,6-3.1,6.5-6.5h4.5 M63.5,23v1.1h-4.4v-2.2h4.3
		C63.5,22.3,63.6,22.6,63.5,23z M37.3,6.6h8l6.3,8.8H37.3L37.3,6.6z M35.1,15.3h-25l1.8-8.8h23.3V15.3z M2.2,31.8v-1.1h3.3v-2.2H2.2
		v-6.2c0-2.3,0.5-4.5,1.4-6.6L8.1,5.5c0.9-2,2.8-3.3,5-3.3h27.4c1.1,0,2.1,0.5,2.7,1.4l0.6,0.8H11.9c-1,0-1.9,0.7-2.1,1.8L8,14.9
		c-0.2,1.2,0.5,2.3,1.7,2.6c0.1,0,0.3,0,0.4,0h25v15.4H21.8c-0.6-4.2-4.5-7.1-8.7-6.5c-3.4,0.5-6,3.1-6.5,6.5H3.3
		C2.7,32.9,2.2,32.4,2.2,31.8L2.2,31.8L2.2,31.8z M14.2,39.5c-3,0-5.5-2.5-5.5-5.5c0-3,2.5-5.5,5.5-5.5c3,0,5.5,2.5,5.5,5.5
		c0,0,0,0,0,0C19.7,37,17.3,39.5,14.2,39.5L14.2,39.5z M51.5,39.5c-3,0-5.5-2.5-5.5-5.5c0-3,2.5-5.5,5.5-5.5S57,31,57,34
		c0,0,0,0,0,0C57,37,54.5,39.5,51.5,39.5L51.5,39.5z M62.5,32.9h-3.4c-0.6-4.2-4.5-7.1-8.7-6.5c-3.4,0.5-6,3.1-6.5,6.5h-6.7V17.5
		h20.8c1.7,0,3.3,0.8,4.4,2.2h-3.3c-1.2,0-2.2,1-2.2,2.2l0,0v2.2c0,1.2,1,2.2,2.2,2.2h4.4v2.2h-3.3v2.2h3.3v1.1
		C63.5,32.4,63.1,32.9,62.5,32.9L62.5,32.9L62.5,32.9z"/>
	<path id="Path_642" d="M39.5,19.7h4.4v2.2h-4.4V19.7z"/>
	<path id="Path_643" d="M11,19.7h4.4v2.2H11V19.7z"/>
	<path id="Path_644" d="M13.1,32.9h2.2v2.2h-2.2V32.9z"/>
	<path id="Path_645" d="M50.4,32.9h2.2v2.2h-2.2V32.9z"/>
</g>
</svg>
