<?xml version="1.0" encoding="utf-8"?>
<!-- Generator: Adobe Illustrator 24.0.2, SVG Export Plug-In . SVG Version: 6.00 Build 0)  -->
<svg version="1.1" id="Layer_1" xmlns="http://www.w3.org/2000/svg" xmlns:xlink="http://www.w3.org/1999/xlink" x="0px" y="0px"
	 viewBox="0 0 67.7 69.2" style="enable-background:new 0 0 67.7 69.2;" xml:space="preserve">
<style type="text/css">
	.st0{fill:#E6E7E8;}
	.st1{fill:#5AAAE7;}
	.st2{fill:#3D9AE2;}
	.st3{fill:#D1D3D4;}
	.st4{fill:#787680;}
	.st5{fill:#1E81CE;}
	.st6{fill:#57565C;}
</style>
<title>Artboard 1 copy 2</title>
<g id="Breakdown-2">
	<path id="Path_653" class="st0" d="M61,38.8l-5.4,1.4c-0.6,0.2-1.2-0.2-1.4-0.8l0,0l-0.6-2.2c-0.2-0.6,0.2-1.2,0.8-1.3c0,0,0,0,0,0
		l5.4-1.5L61,38.8z"/>
	<path id="Path_654" class="st1" d="M61.1,47.9l-2.8,0.7l-1.5,0.4c-0.9-3.6-4.5-5.8-8.1-4.9l0,0c-3.6,0.9-5.8,4.5-4.9,8c0,0,0,0,0,0
		l0,0c0,0.1,0,0.2,0.1,0.3l-1.5,0.4l-7,1.9l-4.6-17.2l15-4l11.6-1.1c1.1-0.1,2.1,0.6,2.4,1.6l0.1,0.3l-5.4,1.5
		c-0.6,0.2-0.9,0.8-0.8,1.3l0.6,2.2c0.2,0.6,0.8,0.9,1.4,0.8l0,0l5.4-1.5l1.2,4.3l0.6,2.2C63,46.4,62.3,47.6,61.1,47.9
		C61.2,47.9,61.2,47.9,61.1,47.9L61.1,47.9z"/>
	<path id="Path_655" class="st2" d="M16.6,33.1l-0.9,7.1c0,0.6,0.5,1.1,1.1,1.2l0,0c0.1,0,0.2,0,0.3,0l13.6-3.7l4.6,17.2l-9.4,2.5
		l-1.3,0.3c-1-3.6-4.6-5.7-8.2-4.7l0,0c-3.6,1-5.7,4.6-4.7,8.2l0,0l-1.3,0.3l-3,0.8c-1.2,0.3-2.4-0.4-2.7-1.5c0,0,0,0,0,0l0,0
		l-0.6-2.2l-2.7-9.9c-0.3-1.1,0.3-2.2,1.3-2.6l6.5-2.6L13,29.8c0.2-0.8,0.8-1.4,1.6-1.6l18-4.8c0.7-0.2,1.4,0,2,0.5l2.9,2.6
		l-0.2,0.3l-8.9,2.4l-11,3C16.9,32.2,16.6,32.6,16.6,33.1L16.6,33.1z"/>
	<path id="Path_656" class="st3" d="M28.5,29.1l2.3,8.6l-13.6,3.7c-0.6,0.2-1.2-0.2-1.4-0.8l0,0c0-0.1,0-0.2,0-0.3l0.9-7.1
		c0-0.5,0.3-0.9,0.8-1L28.5,29.1z"/>
	<path id="Path_657" class="st0" d="M45.8,33.6l-15,4L28.5,29l8.9-2.4l0.2-0.3L45.8,33.6z"/>
	<circle id="Ellipse_57" class="st4" cx="63.3" cy="3.7" r="2.2"/>
	<path id="Path_658" class="st5" d="M25.9,57.4l-1.3,0.3c-1-3.5-4.6-5.6-8.2-4.7l0,0c-3.6,1-5.7,4.6-4.7,8.2l0,0l-1.3,0.3
		c-1.1-4.3,1.4-8.7,5.7-9.8c0,0,0,0,0,0l0,0C20.4,50.6,24.8,53.1,25.9,57.4L25.9,57.4L25.9,57.4z"/>
	<path id="Path_659" class="st2" d="M58.4,48.7l-1.5,0.4c-0.9-3.6-4.5-5.8-8.1-4.9l0,0c-3.6,0.9-5.8,4.5-4.9,8c0,0,0,0,0,0l0,0
		c0,0.1,0,0.2,0.1,0.3l-1.5,0.4c-1.2-4.4,1.4-8.9,5.8-10.1l0,0C52.7,41.6,57.2,44.3,58.4,48.7C58.4,48.7,58.4,48.7,58.4,48.7z"/>
	<path id="Path_660" class="st6" d="M24.6,57.7c0.9,3.6-1.2,7.2-4.7,8.2l0,0c-3.6,1-7.2-1.2-8.2-4.7l0,0c-0.8-3.6,1.4-7.2,5-8
		C20.2,52.3,23.6,54.3,24.6,57.7L24.6,57.7z"/>
	<path id="Path_661" class="st6" d="M56.8,49.1c1.3,3.5-0.5,7.3-3.9,8.6c-3.5,1.3-7.3-0.5-8.6-3.9c-0.1-0.4-0.2-0.8-0.3-1.2l0,0
		c-0.9-3.6,1.2-7.2,4.7-8.2S55.9,45.5,56.8,49.1L56.8,49.1L56.8,49.1z"/>
	<path id="Path_662" d="M34.9,40l4.3-1.2l0.6,2.2l-4.3,1.2L34.9,40z"/>
	<path id="Path_663" d="M18.8,44.3l4.3-1.2l0.6,2.1l-4.3,1.2L18.8,44.3z"/>
	<path id="Path_664" d="M16.9,58.7l2.1-0.6l0.6,2.2l-2.1,0.6L16.9,58.7z"/>
	<path id="Path_665" d="M49,50l2.1-0.6l0.6,2.1l-2.2,0.6L49,50z"/>
	<path id="Path_666" d="M65,9.6c-0.4-0.2-0.6-0.6-0.6-1V6.8c1.7-0.6,2.6-2.5,2-4.2s-2.5-2.6-4.2-2s-2.6,2.5-2,4.2
		c0.3,0.9,1.1,1.7,2,2v1.8c0,1.3,0.8,2.5,2,3c1.1,0.5,1.6,1.9,1,3c-0.5,1.1-1.9,1.6-3,1c-0.7-0.4-1.2-1.1-1.2-1.9h-2.2
		c0,2,1.4,3.8,3.3,4.3v20.9l-1.3-5c-0.4-1.6-1.9-2.6-3.5-2.5l-9.4,0.9l7.3-12.7l1.7-0.5L56.3,17l-2.1,0.6c-0.3,0.1-0.5,0.3-0.7,0.5
		l-8,13.8L35.4,23c-0.8-0.7-2-1-3.1-0.7l-18,4.8c-1.1,0.3-2,1.2-2.3,2.3L8.4,42.6l-6,2.4c-1.6,0.6-2.5,2.4-2,4l3.3,12
		c0.5,1.8,2.3,2.8,4.1,2.4c0,0,0,0,0,0l0,0l3.3-0.9c1.7,3.9,6.2,5.8,10.2,4.1c3.2-1.4,5.1-4.7,4.7-8.1l17.3-4.6
		c1.7,3.9,6.2,5.8,10.2,4.1c3.2-1.4,5.1-4.7,4.7-8.1l3.3-0.9c0.3-0.1,0.5-0.2,0.7-0.3v1.6c0,0.6-0.5,1.1-1.1,1.2c0,0,0,0,0,0h-2.2
		v2.2H61c1.8,0,3.3-1.5,3.3-3.3V18c2.4-0.6,3.8-3,3.2-5.4l0,0C67.2,11.2,66.2,10.1,65,9.6L65,9.6z M63.3,2.6c0.6,0,1.1,0.5,1.1,1.1
		s-0.5,1.1-1.1,1.1c-0.6,0-1.1-0.5-1.1-1.1S62.7,2.6,63.3,2.6L63.3,2.6z M59,35.8l0.6,2.2l-4.3,1.2L54.7,37L59,35.8z M27.6,30.4
		l1.7,6.5l-12.5,3.4l0.9-7.2L27.6,30.4z M29.8,29.9l7.7-2l6,5.3l-11.9,3.2L29.8,29.9z M19.6,64.8c-3,0.8-6-1-6.8-3.9s1-6,3.9-6.8
		c3-0.8,6,1,6.8,3.9C24.3,61,22.6,64,19.6,64.8z M16.2,51.9c-3.7,1-6.2,4.6-5.7,8.4l-3.3,0.9C6.6,61.4,6,61,5.8,60.5c0,0,0,0,0,0
		l0,0l-0.3-1.1l3.2-0.9l-0.6-2.1L5,57.2l-2.4-8.8c-0.1-0.5,0.1-1.1,0.7-1.3l6.5-2.6c0.3-0.1,0.6-0.4,0.6-0.7L14.1,30
		c0.1-0.4,0.4-0.7,0.8-0.8l18-4.8c0.4-0.1,0.7,0,1,0.2l1.6,1.4l-18.3,5c-0.9,0.2-1.6,1-1.6,2l-0.9,7.2c0,1.2,0.9,2.3,2.1,2.3
		c0.2,0,0.4,0,0.7-0.1L30,39l4,15l-8.7,2.3C23.8,52.8,19.9,50.9,16.2,51.9L16.2,51.9z M55.2,53.6c-1.7,2.6-5.1,3.3-7.7,1.7
		c-2.4-1.6-3.3-4.7-1.9-7.3l0,0c0.8-1.3,2-2.2,3.4-2.6c0.5-0.1,1-0.2,1.4-0.2c3.1,0,5.5,2.5,5.5,5.6l0,0
		C56,51.8,55.7,52.7,55.2,53.6L55.2,53.6z M61.5,46.3c-0.1,0.3-0.4,0.4-0.7,0.5l-3.3,0.9c-1.7-3.9-6.2-5.8-10.2-4.1c0,0,0,0,0,0l0,0
		c-3.2,1.3-5.1,4.6-4.7,8.1l-6.5,1.8l-4-15L46,34.7l11.5-1.1c0.2,0,0.5,0,0.7,0.2l-4,1.1c-1.2,0.3-1.9,1.5-1.6,2.7c0,0,0,0,0,0l0,0
		l0.6,2.1c0.3,1.2,1.5,1.9,2.7,1.6c0,0,0,0,0,0l0,0l4.3-1.2l0.6,2.2l-3.2,0.9l0.6,2.2l3.2-0.9l0.3,1.1
		C61.7,45.8,61.6,46.1,61.5,46.3L61.5,46.3z"/>
	<path id="Path_667" d="M42.5,20.3h2.2c0-0.4,0.2-0.8,0.5-1.1c1.4-1.4,1.4-3.7,0-5.1c-0.6-0.5-0.7-1.5-0.2-2.1c0,0,0,0,0,0l0,0
		c0-0.1,0.1-0.1,0.2-0.1c0.7-0.7,1-1.6,1-2.6H44c0,0.4-0.2,0.8-0.5,1.1c-1.4,1.4-1.4,3.7,0,5.1c0.6,0.6,0.7,1.5,0.1,2.1l0,0
		l-0.1,0.1C42.8,18.4,42.5,19.4,42.5,20.3L42.5,20.3z"/>
	<path id="Path_668" d="M49.1,18.1h2.2c0-0.4,0.2-0.8,0.5-1.1c1.4-1.4,1.4-3.7,0-5.1c-0.6-0.5-0.7-1.5-0.2-2.1l0,0l0.2-0.1
		c0.7-0.7,1-1.6,1-2.6h-2.2c0,0.4-0.2,0.9-0.5,1.1c-1.4,1.4-1.4,3.7,0,5.1c0.6,0.5,0.7,1.5,0.2,2.1l0,0l-0.2,0.1
		C49.5,16.3,49.2,17.2,49.1,18.1L49.1,18.1z"/>
</g>
</svg>
