<svg xmlns="http://www.w3.org/2000/svg" width="13.5" height="12.167" viewBox="0 0 13.5 12.167"><defs><style>.a{fill:#ca4875;}</style></defs><g transform="translate(-0.25 -0.917)"><path class="a" d="M3.579,10.269,3.23,9.987C1.228,8.32,0,6.513,0,4.59A4.493,4.493,0,0,1,4.283,0,3.858,3.858,0,0,1,6.668.786L6.75.851,6.832.786A3.827,3.827,0,0,1,8.964.007L9.217,0A4.493,4.493,0,0,1,13.5,4.59c0,1.923-1.228,3.73-3.23,5.4a11.876,11.876,0,0,1-3.52,2.18A10.784,10.784,0,0,1,3.579,10.269Z" transform="translate(0.25 0.917)"/></g></svg>