<svg xmlns="http://www.w3.org/2000/svg" width="32.64" height="32.64" viewBox="0 0 32.64 32.64">
  <g id="Group_124" data-name="Group 124" transform="translate(-529.707 -857.832)">
    <g id="Group_32" data-name="Group 32" transform="translate(529.707 857.832)">
      <path id="Path_99" data-name="Path 99" d="M1612.87,889.173a15.7,15.7,0,1,1-15.7-15.7A15.7,15.7,0,0,1,1612.87,889.173Z" transform="translate(-1580.854 -872.854)" fill="#ff9d6c"/>
      <path id="Path_100" data-name="Path 100" d="M1615.547,945.094h19.175v4.987h-19.175Z" transform="translate(-1608.814 -931.268)" fill="#fff"/>
      <path id="Path_101" data-name="Path 101" d="M1631.845,947.851h-19.129a.635.635,0,0,1-.646-.623v-4.987a.635.635,0,0,1,.646-.623h19.129a.635.635,0,0,1,.646.623v4.987A.635.635,0,0,1,1631.845,947.851Zm-18.483-1.247H1631.2v-3.741h-17.836Z" transform="translate(-1605.961 -928.414)"/>
      <path id="Path_102" data-name="Path 102" d="M1594.316,902.64q-.624,0-1.251-.048a16.317,16.317,0,1,1,14.519-6.76.638.638,0,1,1-1.035-.744,15.045,15.045,0,1,0-3.461,3.461.638.638,0,0,1,.744,1.035A16.318,16.318,0,0,1,1594.316,902.64Z" transform="translate(-1578 -870)"/>
    </g>
  </g>
</svg>
