<svg xmlns="http://www.w3.org/2000/svg" width="32.635" height="32.636" viewBox="0 0 32.635 32.636">
  <g id="Group_123" data-name="Group 123" transform="translate(-404.439 -856.925)">
    <path id="Path_113" data-name="Path 113" d="M1191.916,889.235a15.68,15.68,0,1,1-15.681-15.68A15.681,15.681,0,0,1,1191.916,889.235Z" transform="translate(-755.777 -16.63)" fill="#91def5"/>
    <path id="Path_115" data-name="Path 115" d="M1214.258,915.275h-6.884v-6.884h-5.1v6.884h-6.884v5.1h6.884v6.884h5.1v-6.884h6.884Z" transform="translate(-784.606 -44.213)" fill="#fff"/>
    <path id="Path_116" data-name="Path 116" d="M1204.457,924.978h-5.1a.637.637,0,0,1-.637-.637v-6.247h-6.247a.637.637,0,0,1-.638-.637v-5.1a.637.637,0,0,1,.638-.637h6.247v-6.247a.637.637,0,0,1,.637-.637h5.1a.637.637,0,0,1,.637.637v6.247h6.247a.637.637,0,0,1,.638.637v5.1a.637.637,0,0,1-.638.637h-6.247v6.247A.637.637,0,0,1,1204.457,924.978Zm-4.462-1.275h3.824v-6.247a.637.637,0,0,1,.638-.638h6.247v-3.824h-6.247a.637.637,0,0,1-.638-.638v-6.246h-3.824v6.246a.637.637,0,0,1-.638.638h-6.246v3.824h6.246a.637.637,0,0,1,.638.638Z" transform="translate(-781.051 -41.565)"/>
    <path id="Path_114" data-name="Path 114" d="M1173.314,902.635q-.625,0-1.251-.048a16.314,16.314,0,1,1,14.517-6.759.637.637,0,1,1-1.035-.744,15.043,15.043,0,1,0-3.46,3.46.638.638,0,0,1,.744,1.035A16.317,16.317,0,0,1,1173.314,902.635Z" transform="translate(-752.561 -13.075)"/>
  </g>
</svg>
