<svg xmlns="http://www.w3.org/2000/svg" width="32.636" height="32.636" viewBox="0 0 32.636 32.636">
  <g id="Group_121" data-name="Group 121" transform="translate(-404.439 -803.439)">
    <path id="Path_109" data-name="Path 109" d="M1191.916,889.235a15.68,15.68,0,1,1-15.681-15.68A15.681,15.681,0,0,1,1191.916,889.235Z" transform="translate(-756.116 -70.116)" fill="#fff"/>
    <path id="Path_111" data-name="Path 111" d="M1214.258,915.275h-6.884v-6.884h-5.1v6.884h-6.884v5.1h6.884v6.884h5.1v-6.884h6.884Z" transform="translate(-784.606 -97.699)" fill="#fff"/>
    <path id="Path_112" data-name="Path 112" d="M1204.457,924.978h-5.1a.637.637,0,0,1-.637-.637v-6.247h-6.247a.637.637,0,0,1-.638-.637v-5.1a.637.637,0,0,1,.638-.637h6.247v-6.247a.637.637,0,0,1,.637-.637h5.1a.637.637,0,0,1,.637.637v6.247h6.247a.637.637,0,0,1,.638.637v5.1a.637.637,0,0,1-.638.637h-6.247v6.247A.637.637,0,0,1,1204.457,924.978Zm-4.462-1.275h3.824v-6.247a.637.637,0,0,1,.638-.638h6.247v-3.824h-6.247a.637.637,0,0,1-.638-.638v-6.246h-3.824v6.246a.637.637,0,0,1-.638.638h-6.246v3.824h6.246a.637.637,0,0,1,.638.638Z" transform="translate(-781.051 -95.051)"/>
    <path id="Path_110" data-name="Path 110" d="M1173.314,902.635q-.625,0-1.251-.048a16.314,16.314,0,1,1,14.517-6.759.637.637,0,1,1-1.035-.744,15.043,15.043,0,1,0-3.46,3.46.638.638,0,0,1,.744,1.035A16.317,16.317,0,0,1,1173.314,902.635Z" transform="translate(-752.561 -66.561)"/>
  </g>
</svg>
