<svg xmlns="http://www.w3.org/2000/svg" width="24.144" height="24.144" viewBox="0 0 24.144 24.144"><defs><style>.a{fill:#fff;}</style></defs><path class="a" d="M20.072,8A12.072,12.072,0,1,0,32.144,20.072,12.082,12.082,0,0,0,20.072,8ZM13.03,16.552a.755.755,0,0,1,1.509,0,1.007,1.007,0,1,0,2.013,0,.755.755,0,0,1,1.509,0,2.516,2.516,0,1,1-5.031,0ZM25.868,27.668a1.005,1.005,0,0,1-1.421,0,6.191,6.191,0,0,0-8.746,0,1.006,1.006,0,0,1-1.423-1.423,8.2,8.2,0,0,1,11.591,0A1.007,1.007,0,0,1,25.868,27.668Zm-1.269-8.6a2.517,2.517,0,0,1-2.516-2.516.755.755,0,1,1,1.509,0,1.007,1.007,0,1,0,2.013,0,.755.755,0,1,1,1.509,0A2.516,2.516,0,0,1,24.6,19.066Z" transform="translate(-8 -8)"/></svg>