<?xml version="1.0" encoding="utf-8"?>
<!-- Generator: Adobe Illustrator 22.1.0, SVG Export Plug-In . SVG Version: 6.00 Build 0)  -->
<svg version="1.1" id="Layer_1" xmlns="http://www.w3.org/2000/svg" xmlns:xlink="http://www.w3.org/1999/xlink" x="0px" y="0px"
	 viewBox="0 0 56 56" style="enable-background:new 0 0 56 56;" xml:space="preserve">
<style type="text/css">
	.st0{fill:#5D5360;}
	.st1{fill:#4B3F4E;}
	.st2{fill:#ECEAEC;}
	.st3{fill:#FDA756;}
	.st4{fill:#FFC261;}
	.st5{fill:#FCC1AD;}
	.st6{fill:#FCDFD6;}
	.st7{fill:#FFFFFF;}
	.st8{fill:#C5D3FF;}
</style>
<g id="Group_235" transform="translate(-1108 -1389.427)">
	<g id="girl-5" transform="translate(1031.599 1207.962)">
		<g id="Group_159-5">
			<path id="Path_332-5" class="st0" d="M119.6,231.7c-0.5-2.8-2-5.3-4.2-7H105c-2.2,1.7-3.8,4.2-4.2,7c-0.2,0.8-0.2,1.6-0.2,2.4
				h19.2C119.8,233.3,119.7,232.5,119.6,231.7z"/>
			<path id="Path_333-5" class="st1" d="M108.2,224.7H105c-2.2,1.7-3.8,4.2-4.2,7c-0.2,0.8-0.2,1.6-0.2,2.4h3.1
				c0-0.8,0.1-1.6,0.2-2.4C104.4,229,105.9,226.4,108.2,224.7z"/>
			<circle id="Ellipse_20-5" class="st2" cx="107.5" cy="225.8" r="2.7"/>
			<circle id="Ellipse_21-5" class="st2" cx="112.9" cy="225.8" r="2.7"/>
			<circle id="Ellipse_22-5" class="st3" cx="110.2" cy="187" r="4.7"/>
			<path id="Path_334-5" class="st4" d="M130.2,210.7c0.1-0.9,0.2-1.9,0.2-2.8c0-5.3-2.1-10.4-5.9-14.1c-7.9-7.8-20.6-7.8-28.6,0
				c-3.8,3.7-5.9,8.8-5.9,14.1c0,0.9,0.1,1.9,0.2,2.8H130.2z"/>
			<path id="Path_335-5" class="st3" d="M100.1,193.8c3.3-3.2,7.6-5.3,12.2-5.7c-0.7-0.1-1.4-0.1-2.1-0.1c-5.3,0-10.5,2.1-14.3,5.8
				c-3.8,3.7-5.9,8.8-5.9,14.1c0,0.9,0.1,1.9,0.2,2.8h4.2c-0.1-0.9-0.2-1.9-0.2-2.8C94.1,202.6,96.3,197.5,100.1,193.8z"/>
			<circle id="Ellipse_23-5" class="st5" cx="128" cy="210.7" r="3.6"/>
			<path id="Path_336-5" class="st6" d="M128.1,207.8c0-0.5-0.1-1.1-0.4-1.5c-1.4-2.7-6.8-11.6-16.2-3.9c-0.7,0.6-1.8,0.6-2.5,0
				c-9.6-7.8-14.9,1.4-16.2,4c-0.2,0.4-0.3,0.9-0.4,1.4v0.1c0.2,9.9,8.3,17.7,18.2,17.6C120.1,225.3,127.9,217.5,128.1,207.8
				C128.1,207.9,128.1,207.9,128.1,207.8z"/>
			<path id="Path_337-5" class="st5" d="M95.5,207.9L95.5,207.9c0-0.4,0.1-3.6,0.2-5.7c-1.2,1.3-2.2,2.7-2.9,4.2
				c-0.1,0.2-0.2,0.4-0.2,0.7h-0.1c-2,0-3.6,1.5-3.6,3.5c0,2,1.5,3.6,3.5,3.6l0,0h0.1c0.4,0,0.7-0.1,1.1-0.2
				c2.7,6.9,9.3,11.5,16.7,11.4c0.5,0,1.1,0,1.6-0.1C102.6,224.7,95.5,217.1,95.5,207.9z"/>
		</g>
		<g id="Group_160-5">
			<path id="Path_339-5" d="M119.3,207.7c-0.4,0-0.8,0.4-0.8,0.8v1.6c0,0.4,0.3,0.8,0.8,0.8c0.4,0,0.8-0.3,0.8-0.8l0,0
				c0,0,0,0,0-0.1v-1.6C120.1,208,119.7,207.7,119.3,207.7z"/>
			<path id="Path_340-5" d="M101.1,210.8c0.4,0,0.8-0.4,0.8-0.8v-1.6c0-0.4-0.3-0.8-0.8-0.8c-0.4,0-0.8,0.3-0.8,0.8c0,0,0,0,0,0.1
				v1.6C100.3,210.5,100.7,210.8,101.1,210.8z"/>
			<path id="Path_341-5" d="M110,211.7c-1.2,0-2.4,0.5-3.2,1.4c-0.4,0.5-0.4,1.2,0.1,1.6s1.2,0.4,1.6-0.1l0,0
				c0.8-0.8,2.1-0.9,2.9-0.1c0,0,0.1,0.1,0.1,0.1c0.4,0.5,1.1,0.5,1.6,0.1s0.5-1.1,0.1-1.6l0,0C112.4,212.3,111.2,211.7,110,211.7z"
				/>
			<path id="Path_343-5" d="M89.2,207.7c-1.6,1.8-1.5,4.5,0.2,6.2c1,0.9,2.3,1.3,3.6,1.1c2,4.6,5.8,8.2,10.5,10
				c-1.8,1.8-3,4.1-3.4,6.6c-0.2,0.8-0.2,1.7-0.2,2.6c0,0.4,0.4,0.8,0.8,0.8h19.2c0.4,0,0.8-0.4,0.8-0.8c0-0.9-0.1-1.7-0.2-2.6
				c-0.4-2.5-1.6-4.8-3.4-6.6c4.7-1.8,8.5-5.4,10.5-10c2.4,0.3,4.6-1.3,4.9-3.7c0.2-1.3-0.2-2.6-1.1-3.6c-0.1-5.1-2-10-5.5-13.7
				c-0.3-0.3-0.8-0.3-1.1,0c-0.3,0.3-0.3,0.8,0,1.1c2.9,3.2,4.7,7.2,5,11.5c-0.3-0.1-0.7-0.2-1-0.3c0-0.1-0.1-0.3-0.2-0.4
				c-0.2-0.5-0.5-1-0.8-1.4c-0.9-1.5-2-2.8-3.3-3.9c-1.8-1.5-4-2.3-6.3-2.1h0c-2.5,0.3-4.8,1.4-6.7,3c-0.2,0.2-0.4,0.3-0.6,0.4
				c-0.3,0.1-0.7,0.1-1,0c-0.2-0.1-0.4-0.2-0.6-0.4c-1.9-1.6-4.2-2.7-6.7-3c-2.8-0.1-5.5,1-7.4,3c-1.4,1.3-2.4,2.9-3.2,4.7l0,0l0,0
				c-0.3,0-0.7,0.1-1,0.3c0.3-4.6,2.3-9,5.7-12.2c2.6-2.6,5.9-4.3,9.4-5.1c2.8-0.6,5.8-0.6,8.6,0c2.9,0.6,5.5,1.9,7.8,3.7
				c0.3,0.3,0.8,0.2,1.1-0.1c0.3-0.3,0.2-0.8-0.1-1.1l0,0c-2.3-1.8-4.9-3.1-7.7-3.9c0.5-3-1.5-5.8-4.5-6.3c-3-0.5-5.8,1.5-6.3,4.5
				c-0.1,0.6-0.1,1.2,0,1.9c-3.6,0.9-6.8,2.8-9.4,5.4C91.5,197,89.2,202.2,89.2,207.7z M92.4,213.5L92.4,213.5
				c-1.6,0-2.8-1.3-2.8-2.8c0-1.1,0.7-2.1,1.7-2.6c0.1,0,0.2-0.1,0.2-0.1c0,0.7,0.1,1.5,0.1,2.2v0C91.8,211.3,92.1,212.4,92.4,213.5
				z M109.4,226.2c-0.2,0.9-1,1.6-1.9,1.6c-1.1,0-2-0.9-2-2c0,0,0,0,0,0c0,0,0-0.1,0-0.1c0.3,0.1,0.6,0.2,0.9,0.2
				C107.4,226.1,108.4,226.2,109.4,226.2L109.4,226.2z M111.1,226.2c1.2-0.1,2.4-0.2,3.6-0.5c0.1,0,0.2,0,0.2-0.1c0,0.1,0,0.1,0,0.2
				c0,1.1-0.9,1.9-2,1.9C112,227.8,111.2,227.1,111.1,226.2C111,226.2,111.1,226.2,111.1,226.2L111.1,226.2z M118.8,231.9
				c0.1,0.5,0.2,1,0.2,1.5h-17.6c0-0.5,0.1-1,0.2-1.5c0.3-1.9,1.2-3.7,2.5-5.2c0.5,1.9,2.4,3,4.2,2.6c0.8-0.2,1.4-0.6,1.9-1.2
				c1.2,1.5,3.4,1.8,4.9,0.5c0.6-0.5,1-1.2,1.2-1.9C117.6,228.2,118.5,230,118.8,231.9L118.8,231.9z M115,224
				c-3.1,0.9-6.4,0.9-9.5,0c-6.5-1.8-11.3-7.3-12.2-14c-0.3-1.2-0.2-2.5,0.3-3.6c1.3-2.5,3.2-5,6-5.9c1.6-0.5,3.4-0.5,5,0.2
				c1.6,0.6,2.9,1.8,4.3,2.6c0.8,0.4,1.7,0.5,2.5,0.1l0,0c0.5-0.3,1-0.6,1.4-1c1.7-1.4,3.7-2.2,5.9-2.3c3.9-0.1,6.7,3.2,8.3,6.4
				c0.4,1.1,0.5,2.4,0.2,3.6C126.2,216.7,121.4,222.2,115,224L115,224z M128,213.5L128,213.5c0.3-1,0.5-2.1,0.7-3.2
				c0.1-0.6,0.1-1.3,0.1-1.9c0-0.1,0-0.2,0-0.4c0,0,0.1,0.1,0.2,0.1c1.4,0.6,2.1,2.2,1.5,3.6C130.2,212.8,129.2,213.5,128,213.5
				L128,213.5z M106.3,187.6c-0.3-2.1,1.2-4.2,3.3-4.5c2.1-0.3,4.2,1.2,4.5,3.3c0.1,0.4,0.1,0.8,0,1.2c-1.3-0.2-2.6-0.4-3.9-0.4
				c-0.7,0-1.3,0-2,0.1h0C108.1,187.3,106.3,187.5,106.3,187.6z"/>
		</g>
	</g>
</g>
<g id="Group_236" transform="translate(-1108 -1389.427)">
	<g id="girl-6" transform="translate(1031.599 1207.962)">
		<g id="Group_159-6">
			<path id="Path_332-6" class="st0" d="M207.9,318.7c-0.5-3.2-2.2-6-4.8-8h-11.7c-2.6,2-4.3,4.8-4.8,8c-0.2,0.9-0.3,1.8-0.3,2.7
				h21.9C208.2,320.5,208.1,319.6,207.9,318.7z"/>
			<path id="Path_333-6" class="st1" d="M194.9,310.7h-3.6c-2.6,2-4.3,4.8-4.8,8c-0.2,0.9-0.3,1.8-0.3,2.7h3.6
				c0-0.9,0.1-1.8,0.3-2.7C190.6,315.6,192.4,312.7,194.9,310.7z"/>
			<circle id="Ellipse_20-6" class="st2" cx="194.1" cy="312" r="3.1"/>
			<circle id="Ellipse_21-6" class="st2" cx="200.3" cy="312" r="3.1"/>
			<circle id="Ellipse_22-6" class="st3" cx="197.2" cy="267.8" r="5.4"/>
			<path id="Path_334-6" class="st4" d="M220,294.8c0.1-1.1,0.2-2.1,0.2-3.2c0-6-2.4-11.8-6.8-16.1c-9-8.8-23.5-8.8-32.5,0
				c-4.3,4.2-6.8,10-6.8,16.1c0,1.1,0.1,2.1,0.2,3.2H220z"/>
			<path id="Path_335-6" class="st3" d="M185.7,275.5c3.7-3.7,8.6-6,13.9-6.5c-0.8-0.1-1.6-0.1-2.4-0.1c-6.1,0-11.9,2.4-16.3,6.6
				c-4.3,4.2-6.8,10-6.8,16.1c0,1.1,0.1,2.1,0.2,3.2h4.8c-0.1-1.1-0.2-2.1-0.2-3.2C179,285.6,181.4,279.8,185.7,275.5z"/>
			<circle id="Ellipse_23-6" class="st5" cx="217.5" cy="294.7" r="4.1"/>
			<path id="Path_336-6" class="st6" d="M217.6,291.5c0-0.6-0.1-1.2-0.4-1.7c-1.6-3.1-7.7-13.2-18.5-4.5c-0.8,0.7-2.1,0.7-2.9,0
				c-10.9-8.8-17,1.6-18.5,4.6c-0.3,0.5-0.4,1.1-0.4,1.6v0.1c0.2,11.2,9.5,20.2,20.7,20C208.5,311.4,217.4,302.6,217.6,291.5
				C217.6,291.6,217.6,291.5,217.6,291.5z"/>
			<path id="Path_337-6" class="st5" d="M180.5,291.6L180.5,291.6c0-0.4,0.1-4.1,0.2-6.5c-1.4,1.4-2.5,3.1-3.4,4.8
				c-0.1,0.2-0.2,0.5-0.3,0.8h-0.1c-2.3,0-4.1,1.8-4.1,4c0,2.3,1.8,4.1,4,4.1c0,0,0.1,0,0.1,0c0.4,0,0.8-0.1,1.2-0.2
				c3,7.9,10.6,13,19.1,13c0.6,0,1.2,0,1.8-0.1C188.6,310.7,180.5,302,180.5,291.6z"/>
		</g>
		<g id="Group_160-6">
			<path id="Path_339-6" d="M207.6,291.3c-0.5,0-0.9,0.4-0.9,0.9v1.8c0,0.5,0.4,0.9,0.9,0.9s0.9-0.4,0.9-0.9l0,0c0,0,0,0,0-0.1v-1.8
				C208.5,291.7,208.1,291.3,207.6,291.3z"/>
			<path id="Path_340-6" d="M186.9,294.9c0.5,0,0.9-0.4,0.9-0.9v-1.8c0-0.5-0.4-0.9-0.9-0.9c-0.5,0-0.9,0.4-0.9,0.9c0,0,0,0,0,0.1
				v1.8C186,294.5,186.4,294.9,186.9,294.9z"/>
			<path id="Path_341-6" d="M197,299.8c1.4,0,2.7-0.6,3.7-1.6c0.5-0.5,0.4-1.4-0.1-1.8c-0.5-0.5-1.4-0.4-1.8,0.1l0,0
				c-0.9,0.9-2.4,1-3.3,0.1c0,0-0.1-0.1-0.1-0.1c-0.5-0.5-1.3-0.6-1.8-0.1c-0.5,0.5-0.6,1.3-0.1,1.8l0,0
				C194.2,299.2,195.6,299.8,197,299.8z"/>
			<path id="Path_343-6" d="M173.3,291.3c-1.9,2-1.8,5.1,0.2,7c1.1,1,2.6,1.5,4.1,1.3c2.3,5.3,6.6,9.4,11.9,11.4
				c-2,2-3.4,4.7-3.9,7.5c-0.2,1-0.3,1.9-0.3,2.9c0,0.5,0.4,0.9,0.9,0.9h21.9c0.5,0,0.9-0.4,0.9-0.9c0-1-0.1-2-0.3-2.9
				c-0.5-2.8-1.9-5.4-3.9-7.5c5.4-2,9.7-6.2,11.9-11.4c2.7,0.4,5.2-1.5,5.6-4.2c0.2-1.5-0.3-3-1.3-4.1c-0.1-5.8-2.3-11.4-6.2-15.6
				c-0.3-0.4-0.9-0.4-1.3,0c-0.3,0.3-0.4,0.9,0,1.2c3.3,3.6,5.4,8.2,5.7,13.1c-0.4-0.1-0.8-0.2-1.2-0.3c-0.1-0.1-0.1-0.3-0.2-0.4
				c-0.3-0.5-0.6-1.1-0.9-1.6c-1-1.7-2.3-3.2-3.7-4.4c-2-1.7-4.6-2.6-7.2-2.4h0c-2.8,0.4-5.5,1.5-7.6,3.4c-0.2,0.2-0.4,0.3-0.7,0.5
				c-0.4,0.1-0.7,0.1-1.1,0c-0.2-0.1-0.5-0.3-0.7-0.5c-2.2-1.8-4.8-3-7.6-3.4c-3.2-0.1-6.2,1.1-8.4,3.5c-1.5,1.5-2.8,3.3-3.6,5.3
				l0,0l-0.1,0c-0.4,0.1-0.8,0.1-1.2,0.3c0.4-5.3,2.7-10.2,6.4-13.9c3-2.9,6.7-5,10.8-5.9c3.2-0.7,6.6-0.7,9.8,0
				c3.3,0.7,6.3,2.2,8.9,4.3c0.4,0.3,0.9,0.2,1.3-0.1c0.3-0.4,0.2-0.9-0.1-1.3l0,0c-2.6-2.1-5.6-3.6-8.8-4.4
				c0.6-3.4-1.7-6.6-5.1-7.2c-3.4-0.6-6.6,1.7-7.2,5.1c-0.1,0.7-0.1,1.4,0,2.1c-4,1.1-7.7,3.2-10.7,6.1
				C175.9,279.2,173.4,285.1,173.3,291.3z M177,297.9L177,297.9c-1.8,0-3.2-1.4-3.2-3.2c0-1.3,0.8-2.4,2-2.9c0.1,0,0.3-0.1,0.3-0.1
				c0,0.9,0.1,1.7,0.2,2.5v0C176.3,295.5,176.6,296.7,177,297.9L177,297.9z M196.3,312.5c-0.2,1-1.1,1.8-2.2,1.8
				c-1.2,0-2.2-1.1-2.2-2.3c0,0,0,0,0,0c0,0,0-0.1,0-0.1c0.3,0.1,0.7,0.2,1,0.2C194,312.3,195.2,312.4,196.3,312.5L196.3,312.5z
				 M198.2,312.5c1.4-0.1,2.7-0.3,4.1-0.6c0.1,0,0.2,0,0.3-0.1c0,0.1,0,0.1,0,0.2c0,1.2-1,2.2-2.3,2.2
				C199.3,314.2,198.4,313.5,198.2,312.5C198.2,312.5,198.2,312.5,198.2,312.5L198.2,312.5z M207,318.9c0.1,0.6,0.2,1.1,0.2,1.7
				h-20.1c0-0.6,0.1-1.1,0.2-1.7c0.4-2.2,1.4-4.2,2.8-5.9c0.5,2.1,2.7,3.5,4.8,3c0.9-0.2,1.6-0.7,2.2-1.4c1.4,1.7,3.9,2,5.6,0.6
				c0.7-0.6,1.2-1.3,1.4-2.2C205.7,314.7,206.6,316.7,207,318.9L207,318.9z M202.6,309.9c-3.5,1-7.3,1-10.8,0
				c-7.4-2.1-12.8-8.3-13.9-15.9c-0.3-1.4-0.2-2.8,0.3-4.1c1.5-2.8,3.7-5.6,6.8-6.7c1.8-0.6,3.8-0.5,5.6,0.2c1.8,0.7,3.2,2,4.9,3
				c0.9,0.5,1.9,0.5,2.9,0.1l0,0c0.6-0.3,1.1-0.7,1.6-1.1c1.9-1.5,4.2-2.5,6.7-2.6c4.4-0.1,7.6,3.7,9.5,7.3c0.5,1.3,0.6,2.7,0.3,4.1
				C215.5,301.6,210,307.9,202.6,309.9L202.6,309.9z M217.5,297.9L217.5,297.9c0.3-1.2,0.6-2.4,0.8-3.6c0.1-0.7,0.1-1.4,0.2-2.2
				c0-0.1,0-0.3,0-0.4c0,0,0.2,0.1,0.2,0.1c1.6,0.7,2.4,2.5,1.8,4.1C220,297.1,218.8,297.9,217.5,297.9L217.5,297.9z M192.8,268.4
				c-0.4-2.4,1.3-4.7,3.8-5.1c2.4-0.4,4.7,1.3,5.1,3.8c0.1,0.4,0.1,0.9,0,1.3c-1.5-0.3-2.9-0.4-4.4-0.4c-0.7,0-1.5,0-2.2,0.1h0
				C194.8,268.1,192.8,268.4,192.8,268.4z"/>
		</g>
	</g>
	<g id="Group_197" transform="translate(1031.599 1207.962)">
		<g id="Group_15-4">
			<g id="love-4">
				<path id="Path_1594-4" class="st7" d="M179.1,305.2c-2.3,0-4.4,1-5.9,2.6c-1.5-1.7-3.7-2.6-5.9-2.6c-0.2,0-4.4,1.3-4.6,1.3
					c-1.3,1.7-3.4,3.8-3.4,5.9c0,5.1,9.3,13.2,13.9,16.5c1.6-1.2,6.7-5.5,6.7-5.5s7.3-7.2,7.3-9.8
					C187.4,309,183.7,305.3,179.1,305.2C179.1,305.2,179.1,305.2,179.1,305.2L179.1,305.2z"/>
				<path id="Path_1597-4" d="M173.2,329.8c-0.2,0-0.3,0-0.4-0.1c-2.5-1.6-4.9-3.4-7.1-5.3c-4.9-4.2-7.3-7.8-7.3-10.7
					c-0.1-5,4-9.1,9-9.2c2.2,0,4.3,0.8,5.9,2.3c1.6-1.5,3.7-2.3,5.9-2.3c5,0.1,9,4.2,9,9.2c0,2.9-2.5,6.6-7.3,10.7
					c-2.3,1.9-4.6,3.7-7.1,5.3C173.5,329.8,173.4,329.8,173.2,329.8z M167.3,306c-4.1,0.1-7.4,3.4-7.3,7.5c0,2.4,2.3,5.7,6.8,9.5
					c2.1,1.8,4.2,3.4,6.5,4.9c4.1-2.7,13.3-9.7,13.3-14.4c0.1-4.1-3.2-7.5-7.3-7.5c-2,0-4,0.9-5.3,2.4c-0.3,0.3-0.8,0.4-1.2,0
					c0,0,0,0,0,0C171.2,306.9,169.3,306.1,167.3,306L167.3,306z"/>
				<path id="Path_1598-4" d="M183.8,314.4c-0.5,0-0.8-0.4-0.8-0.8c0.1-2.2-1.6-4-3.8-4c-0.2,0-0.4,0-0.6,0.1
					c-0.4,0.1-0.9-0.2-1-0.7c-0.1-0.4,0.2-0.9,0.7-1l0,0c0.3-0.1,0.6-0.1,0.9-0.1c3.1,0.1,5.5,2.6,5.5,5.7
					C184.6,314,184.2,314.4,183.8,314.4C183.8,314.4,183.8,314.4,183.8,314.4L183.8,314.4L183.8,314.4z M175.8,311.1
					c-0.5,0-0.8-0.4-0.8-0.8c0-0.2,0.1-0.4,0.2-0.6v0c0.3-0.3,0.8-0.4,1.2,0c0.3,0.3,0.4,0.8,0,1.2l0,0l0,0
					C176.2,311,176,311.1,175.8,311.1L175.8,311.1z"/>
			</g>
		</g>
	</g>
</g>
<g id="Group_237" transform="translate(-1108 -1389.427)">
	<g id="girl-2" transform="translate(1031.599 1207.962)">
		<g id="Group_159-2">
			<path id="Path_332-2" class="st0" d="M336.9,318.7c-0.5-3.2-2.2-6-4.8-8h-11.7c-2.6,2-4.3,4.8-4.8,8c-0.2,0.9-0.3,1.8-0.3,2.7
				h21.9C337.2,320.5,337.1,319.6,336.9,318.7z"/>
			<path id="Path_333-2" class="st1" d="M323.9,310.7h-3.6c-2.6,2-4.3,4.8-4.8,8c-0.2,0.9-0.3,1.8-0.3,2.7h3.6
				c0-0.9,0.1-1.8,0.3-2.7C319.6,315.6,321.4,312.7,323.9,310.7z"/>
			<circle id="Ellipse_20-2" class="st2" cx="323.1" cy="312" r="3.1"/>
			<circle id="Ellipse_21-2" class="st2" cx="329.3" cy="312" r="3.1"/>
			<circle id="Ellipse_22-2" class="st3" cx="326.2" cy="267.8" r="5.4"/>
			<path id="Path_334-2" class="st4" d="M349,294.8c0.1-1.1,0.2-2.1,0.2-3.2c0-6-2.4-11.8-6.8-16.1c-9-8.8-23.5-8.8-32.5,0
				c-4.3,4.2-6.8,10-6.8,16.1c0,1.1,0.1,2.1,0.2,3.2H349z"/>
			<path id="Path_335-2" class="st3" d="M314.7,275.5c3.7-3.7,8.6-6,13.9-6.5c-0.8-0.1-1.6-0.1-2.4-0.1c-6.1,0-11.9,2.4-16.3,6.6
				c-4.3,4.2-6.8,10-6.8,16.1c0,1.1,0.1,2.1,0.2,3.2h4.8c-0.1-1.1-0.2-2.1-0.2-3.2C308,285.6,310.4,279.8,314.7,275.5z"/>
			<circle id="Ellipse_23-2" class="st5" cx="346.5" cy="294.7" r="4.1"/>
			<path id="Path_336-2" class="st6" d="M346.6,291.5c0-0.6-0.1-1.2-0.4-1.7c-1.6-3.1-7.7-13.2-18.5-4.5c-0.8,0.7-2.1,0.7-2.9,0
				c-10.9-8.8-17,1.6-18.5,4.6c-0.3,0.5-0.4,1.1-0.4,1.6v0.1c0.2,11.2,9.5,20.2,20.7,20C337.5,311.4,346.4,302.6,346.6,291.5
				C346.6,291.6,346.6,291.5,346.6,291.5z"/>
			<path id="Path_337-2" class="st5" d="M309.5,291.6L309.5,291.6c0-0.4,0.1-4.1,0.2-6.5c-1.4,1.4-2.5,3.1-3.4,4.8
				c-0.1,0.2-0.2,0.5-0.3,0.8h-0.1c-2.3,0-4.1,1.8-4.1,4c0,2.3,1.8,4.1,4,4.1l0,0c0,0,0.1,0,0.1,0c0.4,0,0.8-0.1,1.2-0.2
				c3,7.9,10.6,13,19.1,13c0.6,0,1.2,0,1.8-0.1C317.6,310.7,309.5,302,309.5,291.6z"/>
		</g>
		<g id="Group_160-2">
			<path id="Path_339-2" d="M336.6,291.3c-0.5,0-0.9,0.4-0.9,0.9v1.8c0,0.5,0.4,0.9,0.9,0.9s0.9-0.4,0.9-0.9c0,0,0,0,0-0.1v-1.8
				C337.5,291.7,337.1,291.3,336.6,291.3z"/>
			<path id="Path_340-2" d="M315.9,294.9c0.5,0,0.9-0.4,0.9-0.9v-1.8c0-0.5-0.4-0.9-0.9-0.9c-0.5,0-0.9,0.4-0.9,0.9l0,0
				c0,0,0,0,0,0.1v1.8C315,294.5,315.4,294.9,315.9,294.9z"/>
			<path id="Path_341-2" d="M326.2,296.4c-1.5,0-2.9,0.6-3.9,1.7c-0.5,0.6-0.4,1.4,0.2,1.9c0.6,0.5,1.4,0.4,1.9-0.1
				c0.9-1,2.5-1.1,3.5-0.1c0,0,0.1,0.1,0.1,0.1c0.5,0.6,1.4,0.6,1.9,0.1s0.6-1.4,0.1-1.9C329.1,297.1,327.7,296.4,326.2,296.4z"/>
			<path id="Path_343-2" d="M302.3,291.3c-1.9,2-1.8,5.1,0.2,7c1.1,1,2.6,1.5,4.1,1.3c2.3,5.3,6.6,9.4,11.9,11.4
				c-2,2-3.4,4.7-3.9,7.5c-0.2,1-0.3,1.9-0.3,2.9c0,0.5,0.4,0.9,0.9,0.9h21.9c0.5,0,0.9-0.4,0.9-0.9c0-1-0.1-2-0.3-2.9
				c-0.5-2.8-1.9-5.4-3.9-7.5c5.4-2,9.7-6.2,11.9-11.4c2.7,0.4,5.2-1.5,5.6-4.2c0.2-1.5-0.3-3-1.3-4.1c-0.1-5.8-2.3-11.4-6.2-15.6
				c-0.3-0.4-0.9-0.4-1.3,0c-0.3,0.3-0.4,0.9,0,1.2c3.3,3.6,5.4,8.2,5.7,13.1c-0.4-0.1-0.8-0.2-1.2-0.3c-0.1-0.1-0.1-0.3-0.2-0.4
				c-0.3-0.5-0.6-1.1-0.9-1.6c-1-1.7-2.3-3.2-3.7-4.4c-2-1.7-4.6-2.6-7.2-2.4h0c-2.8,0.4-5.5,1.5-7.6,3.4c-0.2,0.2-0.4,0.3-0.7,0.5
				c-0.4,0.1-0.7,0.1-1.1,0c-0.2-0.1-0.5-0.3-0.7-0.5c-2.2-1.8-4.8-3-7.6-3.4c-3.2-0.1-6.2,1.1-8.4,3.5c-1.5,1.5-2.8,3.3-3.6,5.3
				l0,0l-0.1,0c-0.4,0.1-0.8,0.1-1.2,0.3c0.4-5.3,2.7-10.2,6.4-13.9c3-2.9,6.7-5,10.8-5.9c3.2-0.7,6.6-0.7,9.8,0
				c3.3,0.7,6.3,2.2,8.9,4.3c0.4,0.3,0.9,0.2,1.3-0.1c0.3-0.4,0.2-0.9-0.1-1.3l0,0c-2.6-2.1-5.6-3.6-8.8-4.4
				c0.6-3.4-1.7-6.6-5.1-7.2s-6.6,1.7-7.2,5.1c-0.1,0.7-0.1,1.4,0,2.1c-4,1.1-7.7,3.2-10.7,6.1C304.9,279.2,302.4,285.1,302.3,291.3
				z M306,297.9L306,297.9c-1.8,0-3.2-1.4-3.2-3.2c0-1.3,0.8-2.4,2-2.9c0.1,0,0.3-0.1,0.3-0.1c0,0.9,0.1,1.7,0.2,2.5v0
				C305.3,295.5,305.6,296.7,306,297.9L306,297.9z M325.3,312.5c-0.2,1-1.1,1.8-2.2,1.8c-1.2,0-2.2-1.1-2.2-2.3c0,0,0,0,0,0
				c0,0,0-0.1,0-0.1c0.3,0.1,0.7,0.2,1,0.2C323,312.3,324.2,312.4,325.3,312.5L325.3,312.5z M327.2,312.5c1.4-0.1,2.7-0.3,4.1-0.6
				c0.1,0,0.2,0,0.3-0.1c0,0.1,0,0.1,0,0.2c0,1.2-1,2.2-2.3,2.2C328.3,314.2,327.4,313.5,327.2,312.5
				C327.2,312.5,327.2,312.5,327.2,312.5L327.2,312.5z M336,318.9c0.1,0.6,0.2,1.1,0.2,1.7h-20.1c0-0.6,0.1-1.1,0.2-1.7
				c0.4-2.2,1.4-4.2,2.8-5.9c0.5,2.1,2.7,3.5,4.8,3c0.9-0.2,1.6-0.7,2.2-1.4c1.4,1.7,3.9,2,5.6,0.6c0.7-0.6,1.2-1.3,1.4-2.2
				C334.7,314.7,335.6,316.7,336,318.9z M331.6,309.9c-3.5,1-7.3,1-10.8,0c-7.4-2.1-12.8-8.3-13.9-15.9c-0.3-1.4-0.2-2.8,0.3-4.1
				c1.5-2.8,3.7-5.6,6.8-6.7c1.8-0.6,3.8-0.5,5.6,0.2c1.8,0.7,3.2,2,4.9,3c0.9,0.5,1.9,0.5,2.9,0.1l0,0c0.6-0.3,1.1-0.7,1.6-1.1
				c1.9-1.5,4.2-2.5,6.7-2.6c4.4-0.1,7.6,3.7,9.5,7.3c0.5,1.3,0.6,2.7,0.3,4.1C344.5,301.6,339,307.9,331.6,309.9L331.6,309.9z
				 M346.5,297.9L346.5,297.9c0.3-1.2,0.6-2.4,0.8-3.6c0.1-0.7,0.1-1.4,0.2-2.2c0-0.1,0-0.3,0-0.4c0,0,0.2,0.1,0.2,0.1
				c1.6,0.7,2.4,2.5,1.8,4.1C349,297.1,347.8,297.9,346.5,297.9L346.5,297.9z M321.8,268.4c-0.4-2.4,1.3-4.7,3.8-5.1
				c2.4-0.4,4.7,1.3,5.1,3.8c0.1,0.4,0.1,0.9,0,1.3c-1.5-0.3-2.9-0.4-4.4-0.4c-0.7,0-1.5,0-2.2,0.1h0
				C323.8,268.1,321.8,268.4,321.8,268.4z"/>
		</g>
	</g>
	<g id="girl-4" transform="translate(1031.599 1207.962)">
		<g id="Group_159-4">
			<path id="Path_332-4" class="st0" d="M336.9,318.7c-0.5-3.2-2.2-6-4.8-8h-11.7c-2.6,2-4.3,4.8-4.8,8c-0.2,0.9-0.3,1.8-0.3,2.7
				h21.9C337.2,320.5,337.1,319.6,336.9,318.7z"/>
			<path id="Path_333-4" class="st1" d="M323.9,310.7h-3.6c-2.6,2-4.3,4.8-4.8,8c-0.2,0.9-0.3,1.8-0.3,2.7h3.6
				c0-0.9,0.1-1.8,0.3-2.7C319.6,315.6,321.4,312.7,323.9,310.7z"/>
			<circle id="Ellipse_20-4" class="st2" cx="323.1" cy="312" r="3.1"/>
			<circle id="Ellipse_21-4" class="st2" cx="329.3" cy="312" r="3.1"/>
			<circle id="Ellipse_22-4" class="st3" cx="326.2" cy="267.8" r="5.4"/>
			<path id="Path_334-4" class="st4" d="M349,294.8c0.1-1.1,0.2-2.1,0.2-3.2c0-6-2.4-11.8-6.8-16.1c-9-8.8-23.5-8.8-32.5,0
				c-4.3,4.2-6.8,10-6.8,16.1c0,1.1,0.1,2.1,0.2,3.2H349z"/>
			<path id="Path_335-4" class="st3" d="M314.7,275.5c3.7-3.7,8.6-6,13.9-6.5c-0.8-0.1-1.6-0.1-2.4-0.1c-6.1,0-11.9,2.4-16.3,6.6
				c-4.3,4.2-6.8,10-6.8,16.1c0,1.1,0.1,2.1,0.2,3.2h4.8c-0.1-1.1-0.2-2.1-0.2-3.2C308,285.6,310.4,279.8,314.7,275.5z"/>
			<circle id="Ellipse_23-4" class="st5" cx="346.5" cy="294.7" r="4.1"/>
			<path id="Path_336-4" class="st6" d="M346.6,291.5c0-0.6-0.1-1.2-0.4-1.7c-1.6-3.1-7.7-13.2-18.5-4.5c-0.8,0.7-2.1,0.7-2.9,0
				c-10.9-8.8-17,1.6-18.5,4.6c-0.3,0.5-0.4,1.1-0.4,1.6v0.1c0.2,11.2,9.5,20.2,20.7,20C337.5,311.4,346.4,302.6,346.6,291.5
				C346.6,291.6,346.6,291.5,346.6,291.5z"/>
			<path id="Path_337-4" class="st5" d="M309.5,291.6L309.5,291.6c0-0.4,0.1-4.1,0.2-6.5c-1.4,1.4-2.5,3.1-3.4,4.8
				c-0.1,0.2-0.2,0.5-0.3,0.8h-0.1c-2.3,0-4.1,1.8-4.1,4c0,2.3,1.8,4.1,4,4.1l0,0c0,0,0.1,0,0.1,0c0.4,0,0.8-0.1,1.2-0.2
				c3,7.9,10.6,13,19.1,13c0.6,0,1.2,0,1.8-0.1C317.6,310.7,309.5,302,309.5,291.6z"/>
		</g>
		<g id="Group_160-4">
			<path id="Path_339-4" d="M336.6,291.3c-0.5,0-0.9,0.4-0.9,0.9v1.8c0,0.5,0.4,0.9,0.9,0.9s0.9-0.4,0.9-0.9c0,0,0,0,0-0.1v-1.8
				C337.5,291.7,337.1,291.3,336.6,291.3z"/>
			<path id="Path_340-4" d="M315.9,294.9c0.5,0,0.9-0.4,0.9-0.9v-1.8c0-0.5-0.4-0.9-0.9-0.9c-0.5,0-0.9,0.4-0.9,0.9l0,0
				c0,0,0,0,0,0.1v1.8C315,294.5,315.4,294.9,315.9,294.9z"/>
			<path id="Path_341-4" d="M326,296.4c-1.4,0-2.7,0.6-3.7,1.6c-0.5,0.5-0.4,1.4,0.1,1.8c0.5,0.5,1.4,0.4,1.8-0.1l0,0l0,0
				c0.9-0.9,2.4-1,3.3-0.1c0,0,0.1,0.1,0.1,0.1c0.5,0.5,1.3,0.6,1.8,0.1c0.5-0.5,0.6-1.3,0.1-1.8l0,0l0,0
				C328.7,297,327.4,296.4,326,296.4z"/>
			<path id="Path_343-4" d="M302.3,291.3c-1.9,2-1.8,5.1,0.2,7c1.1,1,2.6,1.5,4.1,1.3c2.3,5.3,6.6,9.4,11.9,11.4
				c-2,2-3.4,4.7-3.9,7.5c-0.2,1-0.3,1.9-0.3,2.9c0,0.5,0.4,0.9,0.9,0.9h21.9c0.5,0,0.9-0.4,0.9-0.9c0-1-0.1-2-0.3-2.9
				c-0.5-2.8-1.9-5.4-3.9-7.5c5.4-2,9.7-6.2,11.9-11.4c2.7,0.4,5.2-1.5,5.6-4.2c0.2-1.5-0.3-3-1.3-4.1c-0.1-5.8-2.3-11.4-6.2-15.6
				c-0.3-0.4-0.9-0.4-1.3,0c-0.3,0.3-0.4,0.9,0,1.2c3.3,3.6,5.4,8.2,5.7,13.1c-0.4-0.1-0.8-0.2-1.2-0.3c-0.1-0.1-0.1-0.3-0.2-0.4
				c-0.3-0.5-0.6-1.1-0.9-1.6c-1-1.7-2.3-3.2-3.7-4.4c-2-1.7-4.6-2.6-7.2-2.4h0c-2.8,0.4-5.5,1.5-7.6,3.4c-0.2,0.2-0.4,0.3-0.7,0.5
				c-0.4,0.1-0.7,0.1-1.1,0c-0.2-0.1-0.5-0.3-0.7-0.5c-2.2-1.8-4.8-3-7.6-3.4c-3.2-0.1-6.2,1.1-8.4,3.5c-1.5,1.5-2.8,3.3-3.6,5.3
				l0,0l-0.1,0c-0.4,0.1-0.8,0.1-1.2,0.3c0.4-5.3,2.7-10.2,6.4-13.9c3-2.9,6.7-5,10.8-5.9c3.2-0.7,6.6-0.7,9.8,0
				c3.3,0.7,6.3,2.2,8.9,4.3c0.4,0.3,0.9,0.2,1.3-0.1c0.3-0.4,0.2-0.9-0.1-1.3l0,0c-2.6-2.1-5.6-3.6-8.8-4.4
				c0.6-3.4-1.7-6.6-5.1-7.2s-6.6,1.7-7.2,5.1c-0.1,0.7-0.1,1.4,0,2.1c-4,1.1-7.7,3.2-10.7,6.1C304.9,279.2,302.4,285.1,302.3,291.3
				z M306,297.9L306,297.9c-1.8,0-3.2-1.4-3.2-3.2c0-1.3,0.8-2.4,2-2.9c0.1,0,0.3-0.1,0.3-0.1c0,0.9,0.1,1.7,0.2,2.5v0
				C305.3,295.5,305.6,296.7,306,297.9L306,297.9z M325.3,312.5c-0.2,1-1.1,1.8-2.2,1.8c-1.2,0-2.2-1.1-2.2-2.3c0,0,0,0,0,0
				c0,0,0-0.1,0-0.1c0.3,0.1,0.7,0.2,1,0.2C323,312.3,324.2,312.4,325.3,312.5L325.3,312.5z M327.2,312.5c1.4-0.1,2.7-0.3,4.1-0.6
				c0.1,0,0.2,0,0.3-0.1c0,0.1,0,0.1,0,0.2c0,1.2-1,2.2-2.3,2.2C328.3,314.2,327.4,313.5,327.2,312.5
				C327.2,312.5,327.2,312.5,327.2,312.5L327.2,312.5z M336,318.9c0.1,0.6,0.2,1.1,0.2,1.7h-20.1c0-0.6,0.1-1.1,0.2-1.7
				c0.4-2.2,1.4-4.2,2.8-5.9c0.5,2.1,2.7,3.5,4.8,3c0.9-0.2,1.6-0.7,2.2-1.4c1.4,1.7,3.9,2,5.6,0.6c0.7-0.6,1.2-1.3,1.4-2.2
				C334.7,314.7,335.6,316.7,336,318.9z M331.6,309.9c-3.5,1-7.3,1-10.8,0c-7.4-2.1-12.8-8.3-13.9-15.9c-0.3-1.4-0.2-2.8,0.3-4.1
				c1.5-2.8,3.7-5.6,6.8-6.7c1.8-0.6,3.8-0.5,5.6,0.2c1.8,0.7,3.2,2,4.9,3c0.9,0.5,1.9,0.5,2.9,0.1l0,0c0.6-0.3,1.1-0.7,1.6-1.1
				c1.9-1.5,4.2-2.5,6.7-2.6c4.4-0.1,7.6,3.7,9.5,7.3c0.5,1.3,0.6,2.7,0.3,4.1C344.5,301.6,339,307.9,331.6,309.9L331.6,309.9z
				 M346.5,297.9L346.5,297.9c0.3-1.2,0.6-2.4,0.8-3.6c0.1-0.7,0.1-1.4,0.2-2.2c0-0.1,0-0.3,0-0.4c0,0,0.2,0.1,0.2,0.1
				c1.6,0.7,2.4,2.5,1.8,4.1C349,297.1,347.8,297.9,346.5,297.9L346.5,297.9z M321.8,268.4c-0.4-2.4,1.3-4.7,3.8-5.1
				c2.4-0.4,4.7,1.3,5.1,3.8c0.1,0.4,0.1,0.9,0,1.3c-1.5-0.3-2.9-0.4-4.4-0.4c-0.7,0-1.5,0-2.2,0.1h0
				C323.8,268.1,321.8,268.4,321.8,268.4z"/>
		</g>
	</g>
	<g id="broken-heart_2_4" transform="translate(1031.599 1207.962)">
		<g id="Group_194-4">
			<path id="Path_384-4" class="st7" d="M299.5,325.1l2.8-3.6l-3.7-5.9l3.1-7.4c-1.5-1.3-3.4-2-5.4-2c-4.8,0.1-8.7,4.1-8.6,8.9
				c0,7,10.6,13.9,13.9,15.8L299.5,325.1z"/>
			<path id="Path_385-4" class="st7" d="M308.7,306.1c-0.6,0-1.1,0.1-1.6,0.2l-3.5,8.7l3.5,4.7l-3.3,5l0.5,3.7l-1,2.7
				c3.3-2,13.9-8.8,13.9-15.8C317.4,310.2,313.6,306.2,308.7,306.1z"/>
		</g>
		<path id="Path_386-4" d="M308.3,307.8c-0.3,0-0.6,0.3-0.6,0.6c0,0.3,0.3,0.6,0.6,0.6l0,0c0.3,0,0.6-0.3,0.6-0.6
			C308.9,308.1,308.6,307.8,308.3,307.8z"/>
		<path id="Path_387-4" d="M310.7,308.3c-0.3-0.1-0.7,0-0.8,0.3c-0.1,0.3,0,0.7,0.3,0.8c2.3,1,3.9,3.2,3.8,5.8
			c0,0.3,0.3,0.6,0.6,0.6s0.6-0.3,0.6-0.6C315.4,312.2,313.5,309.5,310.7,308.3z"/>
		<path id="Path_388-4" d="M302.8,321.1l-3.5-5.6l2.9-7.1c0.1-0.2,0-0.5-0.2-0.7c-1.6-1.4-3.7-2.1-5.8-2.2c-5.2,0.1-9.3,4.4-9.2,9.5
			c0,3.2,2,6.6,5.9,10.3c2.6,2.3,5.3,4.3,8.3,6.1c0.3,0.2,0.7,0.1,0.8-0.2c0.1-0.2,0.1-0.4,0.1-0.5l-2-5.5l2.6-3.4
			C302.9,321.6,302.9,321.3,302.8,321.1z M299,324.7c-0.1,0.2-0.2,0.4-0.1,0.6l1.5,4.2c-2.4-1.5-4.6-3.2-6.6-5
			c-3.7-3.4-5.5-6.5-5.5-9.4c-0.1-4.5,3.5-8.2,8-8.3c1.7,0,3.4,0.6,4.7,1.6l-2.9,7c-0.1,0.2-0.1,0.4,0,0.5l3.4,5.5L299,324.7z"/>
		<path id="Path_389-4" d="M308.7,305.5c-0.6,0-1.2,0.1-1.8,0.2c-0.2,0-0.4,0.2-0.4,0.4l-3.5,8.7c-0.1,0.2-0.1,0.4,0.1,0.6l3.3,4.3
			l-3,4.6c-0.1,0.1-0.1,0.3-0.1,0.4l0.5,3.5l-0.9,2.5c-0.1,0.3,0,0.7,0.3,0.8c0.2,0.1,0.4,0,0.5-0.1c3-1.8,5.7-3.8,8.3-6.1
			c3.9-3.6,5.9-7.1,5.9-10.3C318,309.8,313.9,305.6,308.7,305.5z M311.2,324.4c-2.1,1.9-4.3,3.6-6.6,5l0.4-1.1c0-0.1,0-0.2,0-0.3
			l-0.5-3.4l3.1-4.8c0.1-0.2,0.1-0.5,0-0.7l-3.3-4.4l3.2-8c0.4-0.1,0.8-0.1,1.2-0.1c4.5,0.1,8.1,3.8,8,8.3
			C316.7,317.8,314.9,321,311.2,324.4L311.2,324.4z"/>
	</g>
</g>
<g id="Group_238" transform="translate(-1108 -1389.427)">
	<g id="broken-heart_2_2" transform="translate(1031.599 1207.962)">
		<g id="Group_194-2">
			<path id="Path_384-2" class="st8" d="M87.6,231.8l2.5-3.2l-3.3-5.2l2.7-6.6c-1.3-1.1-3-1.8-4.8-1.8c-4.3,0.1-7.7,3.6-7.6,7.9
				c0,6.2,9.4,12.3,12.3,14L87.6,231.8z"/>
			<path id="Path_385-2" class="st8" d="M95.8,215c-0.5,0-1,0-1.5,0.1l-3.1,7.7l3.1,4.1l-2.9,4.4l0.5,3.2l-0.8,2.4
				c2.9-1.7,12.3-7.8,12.3-14C103.5,218.6,100.1,215,95.8,215C95.8,215,95.8,215,95.8,215z"/>
		</g>
		<path id="Path_386-2" d="M95.4,216.5c-0.3,0-0.5,0.2-0.5,0.5c0,0.3,0.2,0.5,0.5,0.5l0,0l0,0c0.3,0,0.5-0.2,0.5-0.5
			C95.9,216.8,95.6,216.5,95.4,216.5z"/>
		<path id="Path_387-2" d="M97.6,216.9c-0.3-0.1-0.6,0-0.7,0.3c-0.1,0.3,0,0.6,0.3,0.7c2.1,0.8,3.4,2.9,3.4,5.1
			c0,0.3,0.2,0.5,0.5,0.5c0.3,0,0.5-0.2,0.5-0.5l0,0C101.7,220.4,100,218,97.6,216.9z"/>
		<path id="Path_388-2" d="M90.5,228.3l-3.1-5l2.6-6.3c0.1-0.2,0-0.5-0.1-0.6c-1.4-1.2-3.3-1.9-5.2-1.9c-4.6,0.1-8.2,3.9-8.2,8.5
			c0,2.8,1.8,5.9,5.2,9.1c2.3,2,4.7,3.8,7.3,5.4c0.2,0.2,0.6,0.1,0.7-0.2c0.1-0.1,0.1-0.3,0-0.5l-1.7-4.9l2.3-3
			C90.6,228.7,90.6,228.4,90.5,228.3z M87.1,231.4c-0.1,0.1-0.1,0.3-0.1,0.5l1.3,3.7c-2.1-1.3-4-2.8-5.9-4.5c-3.3-3-4.9-5.8-4.9-8.3
			c-0.1-4,3.1-7.3,7.1-7.4c1.5,0,3,0.5,4.2,1.4l-2.6,6.2c-0.1,0.2-0.1,0.3,0,0.5l3.1,4.9L87.1,231.4z"/>
		<path id="Path_389-2" d="M95.8,214.4c-0.5,0-1,0.1-1.6,0.2c-0.2,0-0.3,0.2-0.4,0.3l-3.1,7.7c-0.1,0.2,0,0.4,0.1,0.5l2.9,3.8
			L91,231c-0.1,0.1-0.1,0.2-0.1,0.4l0.4,3.1l-0.8,2.2c-0.1,0.3,0,0.6,0.3,0.7c0.2,0.1,0.3,0,0.5,0c2.6-1.6,5.1-3.4,7.3-5.4
			c3.5-3.2,5.2-6.3,5.2-9.1C104,218.3,100.4,214.5,95.8,214.4z M98,231.2c-1.8,1.7-3.8,3.1-5.9,4.5l0.3-0.9c0-0.1,0-0.2,0-0.3
			l-0.4-3l2.8-4.2c0.1-0.2,0.1-0.4,0-0.6l-2.9-3.9l2.9-7.1c0.4-0.1,0.7-0.1,1.1-0.1c4,0.1,7.2,3.4,7.1,7.4
			C102.9,225.4,101.2,228.2,98,231.2L98,231.2z"/>
	</g>
</g>
</svg>
