<svg xmlns="http://www.w3.org/2000/svg" width="24.144" height="24.144" viewBox="0 0 24.144 24.144"><defs><style>.a{fill:#f5e6fe;}</style></defs><path class="a" d="M20.072,8A12.072,12.072,0,1,0,32.144,20.072,12.073,12.073,0,0,0,20.072,8Zm-5.03,11.066a2.012,2.012,0,1,1,2.012-2.012A2.014,2.014,0,0,1,15.043,19.066Zm8.33,8.47a.758.758,0,0,1-1.068,0,3.236,3.236,0,0,0-4.467,0,.754.754,0,1,1-1.067-1.067,4.667,4.667,0,0,1,6.6,0A.754.754,0,0,1,23.372,27.536ZM23.09,17.054A2.012,2.012,0,1,1,25.1,19.066,2.014,2.014,0,0,1,23.09,17.054ZM26.108,25.1A2.014,2.014,0,0,1,24.1,23.09a7.5,7.5,0,0,1,1.391-2.944.784.784,0,0,1,1.242,0,7.486,7.486,0,0,1,1.391,2.944A2.016,2.016,0,0,1,26.108,25.1Z" transform="translate(-8 -8)"/></svg>