<svg xmlns="http://www.w3.org/2000/svg" width="24.144" height="24.183" viewBox="0 0 24.144 24.183"><defs><style>.a{fill:#ffe6e2;}</style></defs><path class="a" d="M32.144,11.327A2.414,2.414,0,0,0,29.68,8.973a2.523,2.523,0,0,0-1.559.543,2.526,2.526,0,0,0-1.559-.543,2.659,2.659,0,0,0-1.157.272A12.08,12.08,0,0,0,9.227,25.391,2.327,2.327,0,0,0,8,27.422c0,2.022,2.988,4.206,3.591,4.628a.738.738,0,0,0,.866,0,15.519,15.519,0,0,0,1.74-1.429,11.961,11.961,0,0,0,5.875,1.529A12.068,12.068,0,0,0,30.616,14.2a4.688,4.688,0,0,0,1.529-2.876ZM12.879,29.767c-.282.261-.573.5-.856.724-1.136-.875-2.514-2.264-2.514-3.069a.819.819,0,0,1,.472-.724.96.96,0,0,1,.483-.121.8.8,0,0,1,.412.1.865.865,0,0,1,.463.423.786.786,0,0,0,1.106.282.65.65,0,0,0,.261-.282.969.969,0,0,1,.875-.524.9.9,0,0,1,.955.845,2.275,2.275,0,0,1-.614,1.237,4.172,4.172,0,0,1-.493.573c-.167.181-.359.362-.551.534Zm2.666-13.712a2.517,2.517,0,0,1,2.516,2.516.755.755,0,1,1-1.509,0,1.007,1.007,0,0,0-2.013,0,.755.755,0,1,1-1.509,0A2.517,2.517,0,0,1,15.545,16.055ZM14.258,23.71a.772.772,0,0,1,0-1.076.761.761,0,0,1,1.067,0,6.3,6.3,0,0,0,.614.543,6.7,6.7,0,0,0,8.269,0,6.3,6.3,0,0,0,.614-.543.761.761,0,0,1,1.067,0,.772.772,0,0,1,0,1.076,8.237,8.237,0,0,1-11.631,0Zm12.1-4.385a.761.761,0,0,1-.755-.755,1.007,1.007,0,1,0-2.013,0,.755.755,0,0,1-1.509,0,2.516,2.516,0,1,1,5.031,0A.761.761,0,0,1,26.36,19.325Zm2.867-5.885c-.181.171-.373.343-.563.5s-.362.312-.543.453c-1.136-.875-2.516-2.264-2.516-3.068a.547.547,0,0,1,.041-.222.883.883,0,0,1,.533-.554h.011a.917.917,0,0,1,.373-.071.969.969,0,0,1,.875.524.779.779,0,0,0,.966.352.7.7,0,0,0,.4-.352.969.969,0,0,1,.875-.524.906.906,0,0,1,.954.847,2.852,2.852,0,0,1-.875,1.559C29.6,13.067,29.417,13.258,29.227,13.439Z" transform="translate(-8 -8.007)"/></svg>