<?xml version="1.0" encoding="utf-8"?>
<!-- Generator: Adobe Illustrator 22.1.0, SVG Export Plug-In . SVG Version: 6.00 Build 0)  -->
<svg version="1.1" id="Layer_1" xmlns="http://www.w3.org/2000/svg" xmlns:xlink="http://www.w3.org/1999/xlink" x="0px" y="0px"
	 viewBox="0 0 56 56" style="enable-background:new 0 0 56 56;" xml:space="preserve">
<style type="text/css">
	.st0{fill:#4B3F4E;}
	.st1{fill:#CC8763;}
	.st2{fill:#CD7859;}
	.st3{fill:#ECEAEC;}
	.st4{fill:#3D3340;}
	.st5{fill:#5D5360;}
	.st6{fill:#FCC1AD;}
	.st7{fill:#FCDFD6;}
	.st8{fill:#C5D3FF;}
</style>
<g id="Group_231" transform="translate(-1116 -1157)">
	<g id="man-3" transform="translate(1031.599 1207.962)">
		<g id="Group_157-3">
			<path id="Path_317-3" class="st0" d="M113-11.7h-0.6c-2.3,1.8-3.9,4.3-4.3,7.2c-0.2,0.8-0.2,1.6-0.2,2.5h5.2l1.9-4.5L113-11.7z"
				/>
			<path id="Path_318-3" class="st0" d="M127.3-4.5c-0.5-2.9-2-5.4-4.3-7.2h-0.6v0.3l-1.8,5l1.8,4.2v0.2h5.2
				C127.6-2.9,127.5-3.7,127.3-4.5z"/>
			<path id="Path_319-3" class="st1" d="M133.5-48.9c-0.2-0.3-0.6-0.4-1-0.4c-5.4,0.9-10.9,0.7-16.3-0.5c-10-2.2-22.8,4.9-18.1,22.2
				l1.3,1.4H136l1.7-3.2C137.7-29.4,140.4-40.6,133.5-48.9z"/>
			<path id="Path_320-3" class="st2" d="M114.1-50.2c-9.5-0.8-20.3,6.5-15.9,22.6l1.3,1.4h2.9l-1.3-1.4
				C97.1-42.1,105.4-49.4,114.1-50.2z"/>
			<path id="Path_321-3" class="st3" d="M113-11.7v9.7h3.1l1.6-1l1.5,1h3.1v-9.7H113z"/>
			<path id="Path_322-3" class="st4" d="M119.3-2.1l-0.7-6.3h-1.8l-0.7,6.3H119.3z"/>
			<path id="Path_323-3" class="st5" d="M119.1-12h-2.7l-0.2,2.7c0,0.3,0.1,0.6,0.4,0.8l0.7,0.5c0.2,0.2,0.6,0.2,0.8,0l0.7-0.5
				c0.3-0.2,0.4-0.5,0.4-0.8L119.1-12z"/>
			<circle id="Ellipse_19-3" class="st6" cx="136" cy="-26.2" r="3.7"/>
			<path id="Path_324-3" class="st7" d="M132.4-39.8c-0.6-0.8-1.7-1.2-2.7-0.9c-3.9,1.1-8.1,1-12-0.3c-8.5-2.9-15.9,1-17.8,7.7
				c-0.2,0.9-0.4,1.8-0.5,2.7c0,0.2,0,0.5,0,0.7l0,0c0,0.3,0,0.6,0,0.9c0.2,10.1,8.5,18.2,18.7,18c0,0,0,0,0,0
				c9.9-0.2,17.9-8.1,18-18C136.1-32.9,134.8-36.7,132.4-39.8z"/>
			<path id="Path_325-3" class="st6" d="M102.3-29c0-1.4,0.2-2.9,0.5-4.3c1.4-4.8,5.7-8.3,10.8-8.6c-6.7-0.6-12.1,3.1-13.7,8.6
				c-0.3,1.1-0.5,2.3-0.5,3.4c-2,0-3.7,1.7-3.7,3.7c0,2,1.7,3.7,3.7,3.7c0.4,0,0.8-0.1,1.1-0.2c2.7,7.1,9.6,11.8,17.2,11.7
				c0.5,0,1,0,1.5-0.1C109.7-11.7,102.3-19.5,102.3-29z"/>
		</g>
		<g id="Group_158-3">
			<path id="Path_327-3" d="M127-29.9c-0.4,0-0.7,0.3-0.7,0.7v1.6c0,0.4,0.3,0.7,0.7,0.7l0,0c0.4,0,0.7-0.3,0.7-0.7v-1.6
				C127.8-29.6,127.4-29.9,127-29.9z"/>
			<path id="Path_328-3" d="M108.4-26.9c0.4,0,0.7-0.3,0.7-0.7v-1.6c0-0.4-0.3-0.7-0.7-0.7c-0.4,0-0.7,0.3-0.7,0.7c0,0,0,0,0,0l0,0
				v1.6C107.6-27.2,108-26.9,108.4-26.9z"/>
			<path id="Path_329-3" d="M118.2-25.1c-1.2,0-2.4,0.5-3.2,1.4c-0.4,0.4-0.3,1.1,0.1,1.5c0.4,0.4,1.1,0.3,1.5-0.1
				c0.8-0.9,2.2-0.9,3.1-0.1c0,0,0.1,0.1,0.1,0.1c0.4,0.4,1,0.5,1.5,0.1c0.4-0.4,0.5-1,0.1-1.5l0,0
				C120.6-24.6,119.4-25.1,118.2-25.1z"/>
			<path id="Path_330-3" d="M127.6-1.3c0.4,0,0.7-0.3,0.7-0.7l0,0c0-0.9-0.1-1.8-0.3-2.6c-0.5-2.6-1.7-5-3.6-6.8
				c4.9-1.8,8.8-5.6,10.9-10.4c2.4,0.4,4.6-1.3,5-3.7c0.3-1.7-0.4-3.3-1.8-4.3c0.4-2.1,0.5-4.2,0.4-6.3c-0.2-4.8-1.9-9.5-4.9-13.3
				c-0.4-0.5-1-0.7-1.6-0.7c-0.3,0-0.6,0.1-1,0.1c-5,0.7-10.1,0.5-15.1-0.6c-3.9-0.9-8-0.4-11.7,1.4c-0.4,0.2-0.5,0.6-0.3,1
				c0.2,0.4,0.6,0.5,1,0.3c3.3-1.6,7.1-2.1,10.7-1.3c5.1,1.2,10.4,1.4,15.6,0.7c0.4-0.1,0.7-0.1,0.9-0.1c0.1,0,0.3,0,0.3,0.1
				c2.8,3.5,4.4,7.9,4.5,12.4c0.1,1.9,0,3.8-0.3,5.6l0,0c-0.1,0-0.1,0-0.2,0l0,0c-0.1,0-0.1,0-0.2,0c-0.2-2.9-1.2-5.8-2.7-8.3
				c-0.3-0.6-0.8-1.2-1.2-1.7c-0.7-0.7-1.6-1-2.5-1c-0.5,0.1-0.9,0.2-1.4,0.3c-3.3,0.8-6.8,0.7-10.1-0.2l0,0c-1.7-0.6-3.5-1-5.3-1.2
				c-3.6-0.3-7.1,0.7-10,2.8c-2.3,1.8-3.9,4.3-4.4,7.1c-0.1,0.7-0.2,1.4-0.3,2.1c0,0,0,0.1,0,0.1c-0.1,0-0.5,0.1-0.5,0.1
				c-1.2-6.8,0.5-12.4,4.8-15.9c0.3-0.3,0.4-0.7,0.1-1c-0.3-0.3-0.7-0.4-1-0.1c-4.8,3.9-6.7,10.1-5.3,17.6c-2,1.4-2.5,4.1-1.1,6.1
				c0,0,0,0,0,0c1,1.4,2.6,2.1,4.3,1.8c2,4.8,6,8.5,10.8,10.4c-1.9,1.8-3.1,4.2-3.6,6.8c-0.2,0.9-0.3,1.7-0.3,2.6
				c0,0.4,0.3,0.7,0.7,0.7H127.6L127.6-1.3z M99.6-23.2h-0.1c-1.6,0-3-1.3-3-2.9c0,0,0,0,0,0c0-1.3,0.9-2.5,2.2-2.8v0
				c0,0.8,0.1,1.6,0.2,2.4C98.9-25.5,99.2-24.3,99.6-23.2z M108.8-4.4c0.4-2.4,1.6-4.7,3.5-6.3v7.9h-3.7
				C108.6-3.3,108.7-3.9,108.8-4.4z M113.7-10.7c0.6,0.1,1.3,0.2,1.9,0.3l-0.1,1.1c0,0.5,0.1,0.9,0.5,1.3l-0.6,5.3h-1.7L113.7-10.7
				L113.7-10.7z M120.3-10.4c0.5-0.1,0.9-0.1,1.4-0.2v7.9h-1.7L119.4-8c0.4-0.3,0.6-0.8,0.6-1.3l-0.1-1.1
				C120-10.4,120.2-10.4,120.3-10.4L120.3-10.4z M117.8-8.6l-0.7-0.5c0,0-0.1-0.1-0.1-0.2l0.1-1h1.4l0.1,1c0,0.1,0,0.1-0.1,0.2
				L117.8-8.6z M116.9-2.8l0.5-4.4c0.1,0,0.2,0,0.3,0c0.1,0,0.2,0,0.3,0l0.5,4.4H116.9L116.9-2.8z M126.6-4.4
				c0.1,0.5,0.2,1.1,0.2,1.6h-3.7v-7.9C125-9.1,126.2-6.8,126.6-4.4z M122.1-12.3c-2.9,0.7-5.9,0.7-8.8,0
				c-6.9-1.7-12.1-7.5-13.1-14.5c0,0,0,0,0,0c-0.3-2.1-0.2-4.2,0.4-6.3v0c1.2-3.8,4.2-6.6,8-7.7c3.3-0.9,6.5-0.2,9.7,0.7h0
				c3.5,1.1,7.3,1.2,10.9,0.3c0.4-0.1,0.8-0.2,1.2-0.3c0.6,0,1.1,0.3,1.4,0.7c2.7,3.6,3.9,8.1,3.3,12.5
				C134.2-19.7,129-14,122.1-12.3z M136-23.2h-0.1c0.4-1.1,0.6-2.2,0.8-3.4v0c0-0.1,0-0.3,0.1-0.4v0c0-0.3,0.1-0.6,0.1-0.9
				c0,0,0-0.1,0-0.1c0-0.1,0-0.2,0-0.3v-0.1c0-0.1,0-0.3,0-0.4v0l0,0c1.6,0.4,2.5,2,2.1,3.6c0,0,0,0,0,0
				C138.5-24.1,137.3-23.2,136-23.2L136-23.2z"/>
		</g>
	</g>
</g>
<g id="Group_232" transform="translate(-1116 -1155)">
	<g id="broken-heart" transform="translate(1239.696 1196.085)">
		<g id="Group_194" transform="translate(0.605 0.605)">
			<path id="Path_384" class="st8" d="M-113.3,8.7l2.5-3.2l-3.2-5.2l2.7-6.5c-1.3-1.1-3-1.8-4.8-1.8c-4.3,0.1-7.7,3.6-7.6,7.9
				c0,6.2,9.4,12.2,12.3,14L-113.3,8.7z"/>
			<path id="Path_385" class="st8" d="M-105.1-8.1c-0.5,0-1,0-1.4,0.1l-3.1,7.6l3.1,4.1l-2.9,4.4l0.5,3.2l-0.8,2.4
				c2.9-1.7,12.3-7.8,12.3-14C-97.5-4.5-100.9-8-105.1-8.1C-105.1-8.1-105.1-8.1-105.1-8.1z"/>
		</g>
		<path id="Path_386" d="M-105-5.9c-0.3,0-0.5,0.2-0.5,0.5c0,0.3,0.2,0.5,0.5,0.5l0,0l0,0c0.3,0,0.5-0.2,0.5-0.5c0,0,0,0,0,0
			C-104.4-5.7-104.7-5.9-105-5.9C-105-5.9-105-5.9-105-5.9z"/>
		<path id="Path_387" d="M-102.8-5.5c-0.3-0.1-0.6,0-0.7,0.3c0,0,0,0,0,0c-0.1,0.3,0,0.6,0.3,0.7c2.1,0.8,3.4,2.8,3.4,5.1
			c0,0.3,0.2,0.5,0.5,0.5c0.3,0,0.5-0.2,0.5-0.5c0,0,0,0,0,0C-98.7-2.1-100.3-4.5-102.8-5.5z"/>
		<path id="Path_388" d="M-109.8,5.8l-3.1-5l2.6-6.3c0.1-0.2,0-0.5-0.1-0.6c-1.4-1.2-3.3-1.9-5.1-1.9c-4.6,0.1-8.2,3.8-8.1,8.4
			c0,2.8,1.8,5.9,5.2,9c2.3,2,4.7,3.8,7.3,5.4c0.2,0.2,0.6,0.1,0.7-0.2c0.1-0.1,0.1-0.3,0-0.5l-1.7-4.8l2.3-3
			C-109.7,6.2-109.7,6-109.8,5.8z M-113.1,8.9c-0.1,0.1-0.1,0.3-0.1,0.5l1.3,3.7c-2.1-1.3-4-2.8-5.8-4.4c-3.2-3-4.9-5.8-4.9-8.3
			c-0.1-4,3.1-7.3,7.1-7.3c1.5,0,3,0.5,4.1,1.4l-2.5,6.2c-0.1,0.2-0.1,0.3,0,0.5l3,4.9L-113.1,8.9z"/>
		<path id="Path_389" d="M-104.5-8c-0.5,0-1,0.1-1.6,0.2c-0.2,0-0.3,0.2-0.4,0.3l-3.1,7.6c-0.1,0.2,0,0.4,0.1,0.5l2.9,3.8l-2.7,4
			c-0.1,0.1-0.1,0.2-0.1,0.4l0.4,3.1l-0.8,2.2c-0.1,0.3,0,0.6,0.3,0.7c0.2,0.1,0.3,0,0.5,0c2.6-1.5,5.1-3.3,7.3-5.4
			c3.5-3.2,5.2-6.2,5.2-9C-96.3-4.2-100-7.9-104.5-8z M-102.4,8.7c-1.8,1.6-3.8,3.1-5.8,4.4l0.3-0.9c0-0.1,0-0.2,0-0.3l-0.4-3
			l2.8-4.2c0.1-0.2,0.1-0.4,0-0.6l-2.9-3.9l2.9-7.1c0.4-0.1,0.7-0.1,1.1-0.1c4,0.1,7.1,3.4,7.1,7.3C-97.5,2.9-99.1,5.7-102.4,8.7
			L-102.4,8.7z"/>
	</g>
</g>
</svg>
