<svg xmlns="http://www.w3.org/2000/svg" width="24.144" height="24.144" viewBox="0 0 24.144 24.144"><defs><style>.a{fill:#fff;}</style></defs><path class="a" d="M20.072,8A12.072,12.072,0,1,0,32.144,20.072,12.082,12.082,0,0,0,20.072,8ZM13.03,17.054a2.012,2.012,0,1,1,2.013,2.012A2.018,2.018,0,0,1,13.03,17.054ZM25.814,26.03a8.12,8.12,0,0,1-11.484,0,1.006,1.006,0,1,1,1.423-1.423,6.108,6.108,0,0,0,8.638,0,1.007,1.007,0,0,1,1.423,1.425ZM25.1,19.066a2.012,2.012,0,1,1,2.012-2.012A2.018,2.018,0,0,1,25.1,19.066Z" transform="translate(-8 -8)"/></svg>