<?xml version="1.0" encoding="utf-8"?>
<!-- Generator: Adobe Illustrator 22.1.0, SVG Export Plug-In . SVG Version: 6.00 Build 0)  -->
<svg version="1.1" id="Layer_1" xmlns="http://www.w3.org/2000/svg" xmlns:xlink="http://www.w3.org/1999/xlink" x="0px" y="0px"
	 viewBox="0 0 56 56" style="enable-background:new 0 0 56 56;" xml:space="preserve">
<style type="text/css">
	.st0{fill:#4B3F4E;}
	.st1{fill:#CC8763;}
	.st2{fill:#CD7859;}
	.st3{fill:#ECEAEC;}
	.st4{fill:#3D3340;}
	.st5{fill:#5D5360;}
	.st6{fill:#FCC1AD;}
	.st7{fill:#FCDFD6;}
	.st8{fill:#FF6D6F;}
</style>
<g id="Group_231" transform="translate(-1116 -1157)">
	<g id="man-3" transform="translate(1031.599 1207.962)">
		<g id="Group_157-3">
			<path id="Path_317-3" class="st0" d="M113-11.7h-0.6c-2.3,1.8-3.9,4.3-4.3,7.2c-0.2,0.8-0.2,1.6-0.2,2.5h5.2l1.9-4.5L113-11.7z"
				/>
			<path id="Path_318-3" class="st0" d="M127.3-4.5c-0.5-2.9-2-5.4-4.3-7.2h-0.6v0.3l-1.8,5l1.8,4.2v0.2h5.2
				C127.6-2.9,127.5-3.7,127.3-4.5z"/>
			<path id="Path_319-3" class="st1" d="M133.5-48.9c-0.2-0.3-0.6-0.4-1-0.4c-5.4,0.9-10.9,0.7-16.3-0.5c-10-2.2-22.8,4.9-18.1,22.2
				l1.3,1.4H136l1.7-3.2C137.7-29.4,140.4-40.6,133.5-48.9z"/>
			<path id="Path_320-3" class="st2" d="M114.1-50.2c-9.5-0.8-20.3,6.5-15.9,22.6l1.3,1.4h2.9l-1.3-1.4
				C97.1-42.1,105.4-49.4,114.1-50.2z"/>
			<path id="Path_321-3" class="st3" d="M113-11.7v9.7h3.1l1.6-1l1.5,1h3.1v-9.7H113z"/>
			<path id="Path_322-3" class="st4" d="M119.3-2.1l-0.7-6.3h-1.8l-0.7,6.3H119.3z"/>
			<path id="Path_323-3" class="st5" d="M119.1-12h-2.7l-0.2,2.7c0,0.3,0.1,0.6,0.4,0.8l0.7,0.5c0.2,0.2,0.6,0.2,0.8,0l0.7-0.5
				c0.3-0.2,0.4-0.5,0.4-0.8L119.1-12z"/>
			<circle id="Ellipse_19-3" class="st6" cx="136" cy="-26.2" r="3.7"/>
			<path id="Path_324-3" class="st7" d="M132.4-39.8c-0.6-0.8-1.7-1.2-2.7-0.9c-3.9,1.1-8.1,1-12-0.3c-8.5-2.9-15.9,1-17.8,7.7
				c-0.2,0.9-0.4,1.8-0.5,2.7c0,0.2,0,0.5,0,0.7l0,0c0,0.3,0,0.6,0,0.9c0.2,10.1,8.5,18.2,18.7,18c0,0,0,0,0,0
				c9.9-0.2,17.9-8.1,18-18C136.1-32.9,134.8-36.7,132.4-39.8z"/>
			<path id="Path_325-3" class="st6" d="M102.3-29c0-1.4,0.2-2.9,0.5-4.3c1.4-4.8,5.7-8.3,10.8-8.6c-6.7-0.6-12.1,3.1-13.7,8.6
				c-0.3,1.1-0.5,2.3-0.5,3.4c-2,0-3.7,1.7-3.7,3.7c0,2,1.7,3.7,3.7,3.7c0.4,0,0.8-0.1,1.1-0.2c2.7,7.1,9.6,11.8,17.2,11.7
				c0.5,0,1,0,1.5-0.1C109.7-11.7,102.3-19.5,102.3-29z"/>
		</g>
		<g id="Group_158-3">
			<path id="Path_327-3" d="M127-29.9c-0.4,0-0.7,0.3-0.7,0.7v1.6c0,0.4,0.3,0.7,0.7,0.7l0,0c0.4,0,0.7-0.3,0.7-0.7v-1.6
				C127.8-29.6,127.4-29.9,127-29.9z"/>
			<path id="Path_328-3" d="M108.4-26.9c0.4,0,0.7-0.3,0.7-0.7v-1.6c0-0.4-0.3-0.7-0.7-0.7c-0.4,0-0.7,0.3-0.7,0.7c0,0,0,0,0,0l0,0
				v1.6C107.6-27.2,108-26.9,108.4-26.9z"/>
			<path id="Path_329-3" d="M118.2-21.9c1.2,0,2.4-0.5,3.2-1.4c0.4-0.4,0.3-1.1-0.1-1.5c-0.4-0.4-1.1-0.3-1.5,0.1
				c-0.8,0.9-2.2,0.9-3.1,0.1c0,0-0.1-0.1-0.1-0.1c-0.4-0.4-1-0.5-1.5-0.1c-0.4,0.4-0.5,1-0.1,1.5l0,0
				C115.8-22.5,117-21.9,118.2-21.9z"/>
			<path id="Path_330-3" d="M127.6-1.3c0.4,0,0.7-0.3,0.7-0.7l0,0c0-0.9-0.1-1.8-0.3-2.6c-0.5-2.6-1.7-5-3.6-6.8
				c4.9-1.8,8.8-5.6,10.9-10.4c2.4,0.4,4.6-1.3,5-3.7c0.3-1.7-0.4-3.3-1.8-4.3c0.4-2.1,0.5-4.2,0.4-6.3c-0.2-4.8-1.9-9.5-4.9-13.3
				c-0.4-0.5-1-0.7-1.6-0.7c-0.3,0-0.6,0.1-1,0.1c-5,0.7-10.1,0.5-15.1-0.6c-3.9-0.9-8-0.4-11.7,1.4c-0.4,0.2-0.5,0.6-0.3,1
				c0.2,0.4,0.6,0.5,1,0.3c3.3-1.6,7.1-2.1,10.7-1.3c5.1,1.2,10.4,1.4,15.6,0.7c0.4-0.1,0.7-0.1,0.9-0.1c0.1,0,0.3,0,0.3,0.1
				c2.8,3.5,4.4,7.9,4.5,12.4c0.1,1.9,0,3.8-0.3,5.6l0,0c-0.1,0-0.1,0-0.2,0l0,0c-0.1,0-0.1,0-0.2,0c-0.2-2.9-1.2-5.8-2.7-8.3
				c-0.3-0.6-0.8-1.2-1.2-1.7c-0.7-0.7-1.6-1-2.5-1c-0.5,0.1-0.9,0.2-1.4,0.3c-3.3,0.8-6.8,0.7-10.1-0.2l0,0c-1.7-0.6-3.5-1-5.3-1.2
				c-3.6-0.3-7.1,0.7-10,2.8c-2.3,1.8-3.9,4.3-4.4,7.1c-0.1,0.7-0.2,1.4-0.3,2.1c0,0,0,0.1,0,0.1c-0.1,0-0.5,0.1-0.5,0.1
				c-1.2-6.8,0.5-12.4,4.8-15.9c0.3-0.3,0.4-0.7,0.1-1c-0.3-0.3-0.7-0.4-1-0.1c-4.8,3.9-6.7,10.1-5.3,17.6c-2,1.4-2.5,4.1-1.1,6.1
				c0,0,0,0,0,0c1,1.4,2.6,2.1,4.3,1.8c2,4.8,6,8.5,10.8,10.4c-1.9,1.8-3.1,4.2-3.6,6.8c-0.2,0.9-0.3,1.7-0.3,2.6
				c0,0.4,0.3,0.7,0.7,0.7H127.6L127.6-1.3z M99.6-23.2h-0.1c-1.6,0-3-1.3-3-2.9c0,0,0,0,0,0c0-1.3,0.9-2.5,2.2-2.8v0
				c0,0.8,0.1,1.6,0.2,2.4C98.9-25.5,99.2-24.3,99.6-23.2z M108.8-4.4c0.4-2.4,1.6-4.7,3.5-6.3v7.9h-3.7
				C108.6-3.3,108.7-3.9,108.8-4.4z M113.7-10.7c0.6,0.1,1.3,0.2,1.9,0.3l-0.1,1.1c0,0.5,0.1,0.9,0.5,1.3l-0.6,5.3h-1.7L113.7-10.7
				L113.7-10.7z M120.3-10.4c0.5-0.1,0.9-0.1,1.4-0.2v7.9h-1.7L119.4-8c0.4-0.3,0.6-0.8,0.6-1.3l-0.1-1.1
				C120-10.4,120.2-10.4,120.3-10.4L120.3-10.4z M117.8-8.6l-0.7-0.5c0,0-0.1-0.1-0.1-0.2l0.1-1h1.4l0.1,1c0,0.1,0,0.1-0.1,0.2
				L117.8-8.6z M116.9-2.8l0.5-4.4c0.1,0,0.2,0,0.3,0c0.1,0,0.2,0,0.3,0l0.5,4.4H116.9L116.9-2.8z M126.6-4.4
				c0.1,0.5,0.2,1.1,0.2,1.6h-3.7v-7.9C125-9.1,126.2-6.8,126.6-4.4z M122.1-12.3c-2.9,0.7-5.9,0.7-8.8,0
				c-6.9-1.7-12.1-7.5-13.1-14.5c0,0,0,0,0,0c-0.3-2.1-0.2-4.2,0.4-6.3v0c1.2-3.8,4.2-6.6,8-7.7c3.3-0.9,6.5-0.2,9.7,0.7h0
				c3.5,1.1,7.3,1.2,10.9,0.3c0.4-0.1,0.8-0.2,1.2-0.3c0.6,0,1.1,0.3,1.4,0.7c2.7,3.6,3.9,8.1,3.3,12.5
				C134.2-19.7,129-14,122.1-12.3z M136-23.2h-0.1c0.4-1.1,0.6-2.2,0.8-3.4v0c0-0.1,0-0.3,0.1-0.4v0c0-0.3,0.1-0.6,0.1-0.9
				c0,0,0-0.1,0-0.1c0-0.1,0-0.2,0-0.3v-0.1c0-0.1,0-0.3,0-0.4v0l0,0c1.6,0.4,2.5,2,2.1,3.6c0,0,0,0,0,0
				C138.5-24.1,137.3-23.2,136-23.2L136-23.2z"/>
		</g>
	</g>
	<g id="Group_174" transform="translate(1031.599 1207.962)">
		<g id="Group_15">
			<g id="love">
				<path id="Path_1594" class="st8" d="M102.5-16.2c-2,0-3.8,0.8-5.1,2.3c-1.3-1.4-3.2-2.3-5.1-2.3c-0.1,0-3.8,1.1-4,1.2
					c-1.1,1.4-2.9,3.3-2.9,5.1c0,4.5,8.1,11.4,12,14.2C101,1.5,109.6-5.4,109.6-9C109.6-12.9,106.4-16.2,102.5-16.2
					C102.5-16.2,102.5-16.2,102.5-16.2L102.5-16.2z"/>
				<path id="Path_1597" d="M97.4,5c-0.1,0-0.3,0-0.4-0.1c-2.2-1.4-4.2-2.9-6.2-4.6c-4.2-3.6-6.3-6.8-6.3-9.3c0-4.3,3.4-7.9,7.8-7.9
					c1.9,0,3.7,0.7,5.1,2c1.4-1.3,3.2-2,5.1-2c4.3,0.1,7.8,3.6,7.8,8c0,2.5-2.1,5.7-6.3,9.3c-2,1.7-4,3.2-6.2,4.6
					C97.6,5,97.5,5,97.4,5z M92.2-15.5c-3.6,0.1-6.4,3-6.3,6.5c0,2.1,2,4.9,5.8,8.2c1.8,1.5,3.7,2.9,5.6,4.3
					c3.5-2.3,11.5-8.3,11.5-12.5c0-3.6-2.8-6.5-6.3-6.5c-1.8,0-3.4,0.7-4.6,2c-0.3,0.3-0.7,0.3-1,0c0,0,0,0,0,0
					C95.7-14.8,94-15.5,92.2-15.5L92.2-15.5z"/>
				<path id="Path_1598" d="M106.5-8.3c-0.4,0-0.7-0.3-0.7-0.7c0-1.9-1.4-3.4-3.3-3.5c-0.2,0-0.4,0-0.5,0c-0.4,0.1-0.8-0.2-0.8-0.6
					c-0.1-0.4,0.2-0.8,0.6-0.8c0.3,0,0.5-0.1,0.8-0.1c2.7,0.1,4.8,2.2,4.7,4.9C107.2-8.6,106.9-8.3,106.5-8.3
					C106.5-8.3,106.5-8.3,106.5-8.3L106.5-8.3L106.5-8.3z M99.6-11.2c-0.4,0-0.7-0.3-0.7-0.7c0,0,0,0,0,0c0-0.2,0.1-0.4,0.2-0.5v0
					c0.3-0.3,0.7-0.3,1,0c0,0,0,0,0,0c0.3,0.3,0.3,0.7,0,1c0,0,0,0,0,0l0,0l0,0C100-11.3,99.8-11.2,99.6-11.2L99.6-11.2z"/>
			</g>
		</g>
	</g>
</g>
</svg>