<svg xmlns="http://www.w3.org/2000/svg" width="10.209" height="8.167" viewBox="0 0 10.209 8.167"><defs><style>.a{fill:#484761;}</style></defs><g transform="translate(-0.896 -0.083)"><path class="a" d="M.02,4.667a.437.437,0,0,1,.835-.258A4.374,4.374,0,0,0,5.1,7.292,4.373,4.373,0,0,0,9.353,4.409a.438.438,0,0,1,.836.258A5.253,5.253,0,0,1,5.1,8.167,5.252,5.252,0,0,1,.02,4.667Zm6.835-3.5A1.167,1.167,0,1,1,8.021,2.334,1.167,1.167,0,0,1,6.854,1.166Zm.875,0A.292.292,0,1,0,8.021.875.292.292,0,0,0,7.729,1.166Zm-6.709,0A1.167,1.167,0,1,1,2.187,2.334,1.168,1.168,0,0,1,1.021,1.166Zm.875,0A.292.292,0,1,0,2.187.875.292.292,0,0,0,1.9,1.166Z" transform="translate(0.896 0.083)"/></g></svg>