<svg xmlns="http://www.w3.org/2000/svg" width="9.333" height="7.896" viewBox="0 0 9.333 7.896"><defs><style>.a{fill:#484761;}</style></defs><g transform="translate(-0.333 -0.167)"><path class="a" d="M7.682,7.749a4.268,4.268,0,0,0-6.031,0,.5.5,0,0,1-.707-.707,5.27,5.27,0,0,1,7.445,0,.5.5,0,1,1-.706.707ZM6,.5a.5.5,0,1,1,1,0A.666.666,0,0,0,8.333.5a.5.5,0,1,1,1,0A1.666,1.666,0,0,1,6,.5ZM0,.5a.5.5,0,1,1,1,0A.667.667,0,0,0,2.334.5a.5.5,0,1,1,1,0A1.667,1.667,0,0,1,0,.5Z" transform="translate(0.333 0.167)"/></g></svg>