<svg xmlns="http://www.w3.org/2000/svg" width="12.646" height="12.358" viewBox="0 0 12.646 12.358"><defs><style>.a{fill:#CA4875;}</style></defs><g transform="translate(-0.337 -0.679)"><path class="a" d="M7.224,2.389a.5.5,0,0,1-.353-.146,4.262,4.262,0,0,0-6.02,0,.5.5,0,0,1-.706-.706,5.26,5.26,0,0,1,7.431,0,.5.5,0,0,1-.353.852Z" transform="translate(1.133 10.648)"/><path class="a" d="M1.663,2.162A1.665,1.665,0,0,1,0,.5a.5.5,0,0,1,1,0A.665.665,0,1,0,2.329.5a.5.5,0,0,1,1,0A1.665,1.665,0,0,1,1.663,2.162Z" transform="translate(0.337 5.157)"/><path class="a" d="M1.663,2.162A1.665,1.665,0,0,1,0,.5a.5.5,0,0,1,1,0A.665.665,0,1,0,2.329.5a.5.5,0,0,1,1,0A1.665,1.665,0,0,1,1.663,2.162Z" transform="translate(6.326 5.157)"/><path class="a" d="M0,2.926A7.365,7.365,0,0,1,1.308.2a.518.518,0,0,1,.822,0A7.351,7.351,0,0,1,3.437,2.926,1.719,1.719,0,0,1,0,2.926Z" transform="translate(9.546 0.679)"/></g></svg>