<svg xmlns="http://www.w3.org/2000/svg" width="12" height="10.198" viewBox="0 0 12 10.198"><defs><style>.a{fill:#CA4875;}</style></defs><g transform="translate(0 -0.6)"><path class="a" d="M6,4.8A6.176,6.176,0,0,1,.023.669.514.514,0,1,1,1.005.364,5.143,5.143,0,0,0,6,3.767a5.143,5.143,0,0,0,4.995-3.4.514.514,0,1,1,.982.306A6.176,6.176,0,0,1,6,4.8Z" transform="translate(0 5.998)"/><path class="a" d="M2.155,4.168C1.795,3.923,0,2.644,0,1.438A1.487,1.487,0,0,1,1.529,0,1.592,1.592,0,0,1,2.45.29,1.6,1.6,0,0,1,3.371,0,1.487,1.487,0,0,1,4.9,1.438c0,1.206-1.795,2.485-2.155,2.73a.518.518,0,0,1-.3.09A.524.524,0,0,1,2.155,4.168Z" transform="translate(6.7 0.6)"/><path class="a" d="M2.155,4.168C1.795,3.923,0,2.644,0,1.438A1.487,1.487,0,0,1,1.529,0,1.592,1.592,0,0,1,2.45.29,1.6,1.6,0,0,1,3.371,0,1.487,1.487,0,0,1,4.9,1.438c0,1.206-1.795,2.485-2.155,2.73a.518.518,0,0,1-.3.09A.524.524,0,0,1,2.155,4.168Z" transform="translate(0.4 0.6)"/></g></svg>