<?xml version="1.0" encoding="utf-8"?>
<!-- Generator: Adobe Illustrator 24.0.2, SVG Export Plug-In . SVG Version: 6.00 Build 0)  -->
<svg version="1.1" id="Group_271" xmlns="http://www.w3.org/2000/svg" xmlns:xlink="http://www.w3.org/1999/xlink" x="0px" y="0px"
	 viewBox="0 0 69.4 29" style="enable-background:new 0 0 69.4 29;" xml:space="preserve">
<style type="text/css">
	.st0{fill:#FFFFFF;}
	.st1{opacity:0.1;}
	.st2{fill:#E4E4E4;}
	.st3{fill:#9B9B9B;}
</style>
<title>Artboard 1 copy 3</title>
<path id="Path_624" class="st0" d="M19.5,27.8c-0.5-4.6-4.7-7.9-9.3-7.4c-3.9,0.4-6.9,3.5-7.4,7.4H19.5z"/>
<g id="Group_273" class="st1">
	<path id="Path_625" d="M13.6,20.8C9.1,19.5,4.4,22,3.1,26.4c-0.1,0.5-0.2,0.9-0.3,1.4h4.8C8,24.5,10.4,21.7,13.6,20.8z"/>
</g>
<path id="Path_626" class="st0" d="M68.6,27.8c-0.5-4.6-4.7-7.9-9.3-7.4c-3.9,0.4-6.9,3.5-7.4,7.4H68.6z"/>
<g id="Group_274" class="st1">
	<path id="Path_627" d="M62.7,20.8c-4.5-1.3-9.1,1.2-10.5,5.7c-0.1,0.5-0.2,0.9-0.2,1.4h4.8C57.2,24.5,59.5,21.8,62.7,20.8z"/>
</g>
<g id="Group_275">
	<path id="Path_628" class="st2" d="M51.3,27.8l1.8-2.4l-2.7-7.6l-6.2-4.4h-8.4l-11.6,2.5l-4.1,4.8L19.5,27L51.3,27.8z"/>
	<path id="Path_629" class="st3" d="M20.1,27c0.4-8.6,7.7-15.3,16.3-15c8.1,0.4,14.6,6.9,15,15h2c-0.6-9.8-8.9-17.2-18.7-16.6
		c-9,0.5-16.1,7.7-16.6,16.6H20.1z"/>
</g>
<path id="Path_631" class="st2" d="M44.2,9.4l-0.5-3.7c-0.4-2.9-3.2-5-6.1-4.6c0,0,0,0,0,0l0,0l-9.2,1.3c-2.9,0.4-5,3.2-4.6,6.1
	c0,0,0,0,0,0l0,0l0.5,3.7L44.2,9.4z"/>
<path id="Path_632" class="st0" d="M48.4,11.4c0.1,0.4-0.2,0.8-0.6,0.9c0,0,0,0,0,0l-26,3.8c-0.4,0.1-0.8-0.2-0.9-0.6l-0.3-1.8
	c0-0.4,0.2-0.8,0.6-0.9l26-3.7c0.4-0.1,0.8,0.2,0.9,0.6L48.4,11.4L48.4,11.4z"/>
<path id="Path_633" class="st3" d="M21.3,17.2l15.3-2.2c0.5-0.4,0.6-1.1,0.3-1.6c0,0,0,0,0,0c-0.2-0.4-0.7-0.5-1.1-0.5l-13.8,2
	l-0.2-1.1L47,10.1l0.2,1.1L41.5,12c-0.6,0.1-1,0.7-1,1.3c0.1,0.4,0.4,0.8,0.8,0.9l7.2-1.1c0.7-0.4,1.1-1.1,1-1.9l-0.3-1.8
	c-0.2-1-1.1-1.7-2.2-1.6l-2,0.3l-0.4-2.5c-0.5-3.5-3.8-6-7.3-5.5l-9.2,1.3c-3.6,0.5-6,3.8-5.5,7.4l0.4,2.5l-2,0.3
	c-1,0.1-1.7,1.1-1.6,2.1l0.3,1.8C19.9,16.4,20.5,17,21.3,17.2z M25,8.5c-0.3-2.3,1.3-4.5,3.6-4.8l9.1-1.3C40,2,42.2,3.6,42.5,5.9
	l0.4,2.5L25.3,11L25,8.5z"/>
<path class="st3" d="M69.4,26.2c-0.2-0.6-0.4-1.2-0.7-1.8c-0.3-0.5-1-0.7-1.6-0.3c-0.5,0.3-0.7,0.9-0.4,1.4c0.2,0.4,0.4,0.8,0.5,1.3
	H53.3c1.2-3.8,5.3-6,9.1-4.8c0,0,0,0,0,0c0.3,0.1,0.5,0.2,0.8,0.3c0.6,0.3,1.2,0,1.5-0.6c0.3-0.6,0-1.2-0.6-1.5
	c-0.6-0.3-1.3-0.5-2-0.7l-2.3-0.2c-4.3,0.2-7.9,3.2-8.9,7.4H20.5c-0.6-2.6-2.3-4.9-4.7-6.2L14.9,20c-1.2-0.9-6.7-0.4-6.6-0.2
	c-3.2,1-5.7,3.7-6.4,7H1.2c-0.6-0.2-1.2,0.2-1.4,0.8C-0.4,28.2,0,28.8,0.6,29c0.2,0,0.3,0.1,0.5,0h68.3V26.2z M4.2,26.7
	c1.2-3.8,5.3-6,9.1-4.8c2.3,0.7,4.1,2.5,4.8,4.8H4.2z"/>
</svg>
