<?xml version="1.0" encoding="utf-8"?>
<!-- Generator: Adobe Illustrator 24.0.2, SVG Export Plug-In . SVG Version: 6.00 Build 0)  -->
<svg version="1.1" id="Group_271" xmlns="http://www.w3.org/2000/svg" xmlns:xlink="http://www.w3.org/1999/xlink" x="0px" y="0px"
	 viewBox="0 0 109.5 75.6" style="enable-background:new 0 0 109.5 75.6;" xml:space="preserve">
<style type="text/css">
	.st0{fill:#E2EEFD;}
	.st1{opacity:0.1;}
	.st2{fill:#FFFFFF;}
	.st3{fill:#ABB53C;}
	.st4{fill:#5E9900;}
	.st5{fill:#FF9300;}
	.st6{fill:#C1262C;}
	.st7{fill:#3A5792;}
	.st8{opacity:0.1;fill:#2F003A;enable-background:new    ;}
	.st9{fill:#11867F;}
	.st10{fill:#D5D962;}
</style>
<g>
	<path class="st0" d="M59.2,69.3c-3.5,0.4-6.3,2.9-7.1,6.2h16.3C67.3,71.6,63.5,68.8,59.2,69.3z"/>
</g>
<path class="st1" d="M56.9,75.6c0.7-2.8,2.9-5.1,5.7-5.9c-4.5-1.3-9.2,1.2-10.5,5.7c0,0.1,0,0.1,0,0.2H56.9z"/>
<g>
	<path class="st0" d="M10.1,69.3c-3.5,0.4-6.3,2.9-7.1,6.2h16.3C18.2,71.6,14.4,68.8,10.1,69.3z"/>
</g>
<title>Artboard 1</title>
<path id="Path_590" class="st0" d="M13.8,63.2c0-0.7,0-1.3,0.1-2c-2.7,1.5-4.4,4.3-4.5,7.4c0,0.3,0,0.6,0,0.8
	c1.8-0.4,3.7-0.1,5.3,0.7C14.1,67.9,13.8,65.5,13.8,63.2z"/>
<g id="Group_261">
	<path id="Path_591" class="st2" d="M54.1,38.6c4.9-8.5,2.5-19.4-5.6-25H27c-8.1,5.6-10.5,16.5-5.6,25H54.1z"/>
	<path id="Path_592" class="st2" d="M54.7,46.3c-0.1,0-0.1,0-0.2,0H44.2l6.6,6.6c0.3,0.3,0.3,0.8,0,1.1c0,0,0,0,0,0l-4.4,4.4
		c-0.3,0.3-0.8,0.3-1.1,0c0,0,0,0,0,0l-12-12H21c-0.1,0-0.1,0-0.2,0c-6.2,6.2-8.5,15.4-6,23.8c2.6,1.2,4.4,2.7,4.7,5.6h32.5
		c0.5-4.2,4.1-6.4,8.4-6.4h0.5C63.1,61.1,60.7,52.3,54.7,46.3L54.7,46.3z"/>
</g>
<g id="Group_262" class="st1">
	<path id="Path_593" d="M26.2,38.6c-4.9-8.5-2.5-19.4,5.6-25H27c-8.1,5.6-10.5,16.5-5.6,25H26.2z"/>
	<path id="Path_594" d="M25.5,46.3H21c-0.1,0-0.1,0-0.2,0c-6.2,6.2-8.5,15.4-6,23.8c2.6,1.2,4.4,2.7,4.7,5.6h3.2
		C16.3,66.2,17.5,54.5,25.5,46.3L25.5,46.3z"/>
</g>
<path id="Path_595" class="st3" d="M33.3,46.3h-1.8l-8.2,8.2c-0.3,0.3-0.3,0.8,0,1.1l4.4,4.4c0.3,0.3,0.8,0.3,1.1,0c0,0,0,0,0,0l9-9
	L33.3,46.3z"/>
<rect id="Rectangle_50" x="28.4" y="48.7" transform="matrix(0.7071 -0.7071 0.7071 0.7071 -28.1478 37.1467)" class="st4" width="4.8" height="7.8"/>
<circle id="Ellipse_48" class="st5" cx="37.7" cy="26.8" r="2"/>
<g id="Group_263">
	<path id="Path_596" class="st4" d="M26,39.1c-0.3-0.3-0.2-0.5,0.2-0.5H21c-0.4,0-0.8,0.3-0.8,0.8v6.2c0,0.4,0.3,0.8,0.8,0.8h12.3
		L26,39.1z"/>
	<path id="Path_597" class="st4" d="M54.5,38.6H35.7c0.5,0,0.9,0.2,1.3,0.5l7.2,7.2h10.3c0.4,0,0.8-0.3,0.8-0.8v-6.2
		C55.3,38.9,54.9,38.6,54.5,38.6z"/>
</g>
<g id="Group_264">
	<path id="Path_598" class="st3" d="M44.2,46.3h5.6v-7.8H35.7c0.5,0,0.9,0.2,1.3,0.5L44.2,46.3z"/>
	<path id="Path_599" class="st3" d="M26,39.1c-0.3-0.3-0.2-0.5,0.2-0.5h-0.6v7.8h7.7L26,39.1z"/>
</g>
<path id="Path_600" class="st4" d="M43.7,45.8v-7.3h-8c0.5,0,0.9,0.2,1.3,0.5L43.7,45.8z"/>
<g id="Group_265">
	<circle id="Ellipse_49" class="st6" cx="37.7" cy="60.5" r="2"/>
	<circle id="Ellipse_50" class="st6" cx="37.7" cy="69.3" r="2"/>
</g>
<path id="Path_605" class="st7" d="M47.8,10.3V6.5c0-3-2.4-5.4-5.4-5.4c0,0,0,0,0,0h-9.3c-3,0-5.4,2.4-5.4,5.4l0,0v3.7H47.8z"/>
<path id="Path_606" class="st8" d="M32.4,10.3V6.5c0-3,2.4-5.4,5.4-5.4c0,0,0,0,0,0h-4.7c-3,0-5.4,2.4-5.4,5.4l0,0v3.7H32.4z"/>
<path id="Path_607" class="st9" d="M51.7,12.9c0,0.4-0.3,0.8-0.8,0.8H24.6c-0.4,0-0.8-0.3-0.8-0.8V11c0-0.4,0.3-0.8,0.8-0.8h26.3
	c0.4,0,0.8,0.3,0.8,0.8L51.7,12.9z"/>
<g id="Group_268" class="st1">
	<path id="Path_608" d="M28.6,12.9V11c0-0.4,0.3-0.8,0.8-0.8l0,0h-4.8c-0.4,0-0.8,0.3-0.8,0.8v1.9c0,0.4,0.3,0.8,0.8,0.8h4.8
		C29,13.6,28.6,13.3,28.6,12.9z"/>
</g>
<path id="Path_609" class="st10" d="M45.3,58.4c0.3,0.3,0.8,0.3,1.1,0c0,0,0,0,0,0l4.4-4.4c0.3-0.3,0.3-0.8,0-1.1c0,0,0,0,0,0
	L37,39.1c-0.4-0.3-0.8-0.5-1.3-0.5h-9.4c-0.4,0-0.5,0.2-0.2,0.5L45.3,58.4z"/>
<g id="Group_269">
	
		<rect id="Rectangle_51" x="39.5" y="48.5" transform="matrix(0.7071 -0.7071 0.7071 0.7071 -23.32 45.5802)" class="st3" width="7.8" height="4.8"/>
	
		<rect id="Rectangle_52" x="32.1" y="41.2" transform="matrix(0.7071 -0.7071 0.7071 0.7071 -20.2857 38.24)" class="st3" width="7.8" height="4.8"/>
</g>
<g id="Group_270">
	<circle id="Ellipse_51" class="st0" cx="71" cy="42.1" r="2.6"/>
	<circle id="Ellipse_52" class="st0" cx="11.3" cy="27.6" r="2.6"/>
	<circle id="Ellipse_53" class="st0" cx="60.3" cy="13.1" r="2.6"/>
	<circle id="Ellipse_54" class="st0" cx="6.2" cy="47.6" r="2.6"/>
</g>
<path id="Path_610" d="M37.7,29.9c1.7,0,3.1-1.4,3.1-3.1c0-1.7-1.4-3.1-3.1-3.1c-1.7,0-3.1,1.4-3.1,3.1l0,0
	C34.6,28.5,36,29.9,37.7,29.9L37.7,29.9z M37.7,25.9c0.5,0,0.9,0.4,0.9,0.9c0,0.5-0.4,0.9-0.9,0.9c-0.5,0-0.9-0.4-0.9-0.9
	C36.9,26.3,37.3,25.9,37.7,25.9z"/>
<path id="Path_611" d="M43.7,31.1L43.7,31.1c0,0.6,0.5,1.2,1.1,1.2c0,0,0,0,0,0l0,0c0.6,0,1.2-0.4,1.2-1.1c0,0,0,0,0,0v-0.1
	c0-0.6-0.5-1.1-1.1-1.1C44.2,30,43.7,30.5,43.7,31.1L43.7,31.1z"/>
<path id="Path_612" d="M37.8,33.6h-0.2c-0.6,0-1.1,0.5-1.1,1.1c0,0,0,0,0,0c0,0.6,0.5,1.1,1.1,1.2h0.2c0.6,0,1.2-0.5,1.2-1.1
	c0,0,0,0,0,0C39,34.1,38.5,33.6,37.8,33.6C37.9,33.6,37.9,33.6,37.8,33.6L37.8,33.6z"/>
<path id="Path_613" d="M33,35.1l0.2,0.1c0.6,0.3,1.2,0,1.5-0.6c0.3-0.6,0-1.2-0.6-1.5c0,0-0.1,0-0.1,0l0,0l-0.1-0.1
	c-0.6-0.2-1.3,0-1.5,0.6S32.4,34.8,33,35.1z"/>
<path id="Path_614" d="M40.8,34.5c0.2,0.6,0.9,0.9,1.4,0.7c0,0,0,0,0,0l0,0l0.2-0.1c0.6-0.2,0.9-0.9,0.6-1.5
	c-0.2-0.6-0.9-0.9-1.5-0.7l0,0L41.5,33C40.9,33.2,40.6,33.9,40.8,34.5C40.8,34.5,40.8,34.5,40.8,34.5L40.8,34.5z"/>
<path id="Path_615" d="M30.6,32.3L30.6,32.3c0.7,0,1.2-0.5,1.2-1.2c0,0,0,0,0,0l0,0l0,0c0-0.6-0.5-1.1-1.1-1.1
	c-0.6,0-1.1,0.5-1.1,1.1v0.1C29.6,31.9,30.1,32.3,30.6,32.3z"/>
<path id="Path_616" d="M31.2,24.4c0.6,0,1.1-0.5,1.1-1.2c0-0.6-0.5-1.1-1.2-1.1c-0.6,0-1.1,0.5-1.1,1.1c0,0.3,0.1,0.6,0.3,0.8
	C30.6,24.3,30.9,24.4,31.2,24.4z"/>
<path id="Path_617" d="M44.3,24.4c0.6,0,1.1-0.5,1.1-1.1c0-0.6-0.5-1.1-1.1-1.1c-0.6,0-1.1,0.5-1.1,1.1c0,0.3,0.1,0.6,0.3,0.8
	C43.7,24.3,44,24.4,44.3,24.4z"/>
<path id="Path_619" d="M37.7,63.7c1.7,0,3.1-1.4,3.1-3.1c0-1.7-1.4-3.1-3.1-3.1c-1.7,0-3.1,1.4-3.1,3.1l0,0l0,0
	C34.6,62.3,36,63.7,37.7,63.7z M37.7,59.7c0.5,0,0.9,0.4,0.9,0.9s-0.4,0.9-0.9,0.9s-0.9-0.4-0.9-0.9S37.3,59.7,37.7,59.7z"/>
<path id="Path_620" d="M37.7,72.4c1.7,0,3.1-1.4,3.1-3.1c0-1.7-1.4-3.1-3.1-3.1c-1.7,0-3.1,1.4-3.1,3.1l0,0
	C34.6,71,36,72.4,37.7,72.4C37.7,72.4,37.7,72.4,37.7,72.4z M37.7,68.4c0.5,0,0.9,0.4,0.9,0.9s-0.4,0.9-0.9,0.9s-0.9-0.4-0.9-0.9
	S37.3,68.4,37.7,68.4L37.7,68.4z"/>
<path id="Path_621" d="M60.3,16.8c2.1,0,3.7-1.7,3.7-3.7c0-2.1-1.7-3.7-3.7-3.7c-2.1,0-3.7,1.7-3.7,3.7
	C56.6,15.1,58.2,16.8,60.3,16.8C60.3,16.8,60.3,16.8,60.3,16.8z M60.3,11.6c0.8,0,1.4,0.6,1.4,1.4s-0.6,1.4-1.4,1.4
	c-0.8,0-1.4-0.6-1.4-1.4v0C58.8,12.3,59.5,11.6,60.3,11.6C60.3,11.6,60.3,11.6,60.3,11.6z"/>
<path id="Path_622" d="M71,45.8c2.1,0,3.7-1.7,3.7-3.7s-1.7-3.7-3.7-3.7c-2.1,0-3.7,1.7-3.7,3.7C67.3,44.2,68.9,45.8,71,45.8
	L71,45.8z M71,40.7c0.8,0,1.4,0.6,1.4,1.4c0,0.8-0.6,1.4-1.4,1.4c-0.8,0-1.4-0.6-1.4-1.4C69.6,41.3,70.2,40.7,71,40.7L71,40.7z"/>
<path id="Path_623" d="M11.3,31.3c2.1,0,3.7-1.7,3.7-3.7c0-2.1-1.7-3.7-3.7-3.7s-3.7,1.7-3.7,3.7l0,0C7.6,29.6,9.3,31.3,11.3,31.3z
	 M11.3,26.1c0.8,0,1.4,0.6,1.4,1.4c0,0.8-0.6,1.4-1.4,1.4c-0.8,0-1.4-0.6-1.4-1.4C9.9,26.8,10.5,26.1,11.3,26.1
	C11.3,26.1,11.3,26.1,11.3,26.1z"/>
<g>
	<path d="M67.4,75.6h2.4c-0.2-0.8-0.5-1.6-0.9-2.4c-0.3-0.5-1-0.7-1.6-0.3c-0.5,0.3-0.7,0.9-0.4,1.4C67.1,74.7,67.3,75.1,67.4,75.6z
		"/>
	<path d="M4.2,75.6c1.2-3.8,5.3-6,9.1-4.8c2.3,0.7,4.1,2.5,4.8,4.8h2.4c-0.6-2.7-2.3-4.9-4.7-6.2c-2.1-7.7-0.1-16,5.5-21.8h7.5
		l-6.2,6.2c-0.7,0.7-0.8,1.9,0,2.7c0,0,0,0,0,0l0.3,0.3c0.5,0.4,1.2,0.4,1.6,0c0.4-0.5,0.4-1.2,0-1.6l1.9-1.9l3.9,3.9l-1.9,1.9
		L28,58.6c-0.4-0.4-1.2-0.4-1.6,0c-0.4,0.5-0.4,1.2,0,1.6l0.5,0.5c0.7,0.7,1.9,0.7,2.7,0l8.2-8.2l6.6,6.6c0.7,0.7,1.9,0.8,2.7,0
		c0,0,0,0,0,0l4.4-4.4c0.7-0.7,0.7-1.9,0-2.7L47,47.5h7.3c5.2,5.5,7.4,13.3,5.7,20.7c-4.3,0.2-7.9,3.2-8.9,7.4h2.4
		c1.2-3.8,5.3-6,9.1-4.8c0.3,0.1,0.5,0.2,0.8,0.3c0.5,0.3,1.2,0.2,1.6-0.3s0.2-1.2-0.3-1.6c-0.1-0.1-0.2-0.1-0.3-0.1
		c-0.6-0.3-1.3-0.5-2-0.6c1.6-7.9-0.6-16-6-22c0.1-0.2,0.1-0.5,0.1-0.7v-6.3c0-0.6-0.2-1.1-0.7-1.5c3.8-7.8,2.1-17.2-4.2-23.3
		c0.8-0.3,1.3-1,1.3-1.8V11c0-1-0.9-1.9-1.9-1.9h-2V6.5C49,2.9,46,0,42.4,0c0,0,0,0,0,0h-9.3c-3.6,0-6.5,2.9-6.5,6.5v2.6h-2
		c-1,0-1.9,0.9-1.9,1.9v1.9c0,0.8,0.5,1.5,1.3,1.8c-6.3,6-8,15.4-4.2,23.3c-0.4,0.4-0.7,0.9-0.7,1.5v6.2c0,0.2,0,0.5,0.1,0.7
		c-3.6,3.9-5.8,8.9-6.4,14.2c-2.8,1.7-4.5,4.8-4.5,8.1c-3.2,1-5.7,3.7-6.4,7H4.2z M24.5,45.2h-3.1v-5.5h3.1V45.2z M26.7,45.2v-3.8
		l3.8,3.8H26.7z M31.6,43l-3.3-3.3h6.6L31.6,43z M37.1,40.8l1.8,1.8L35,46.4l-1.8-1.8L37.1,40.8z M31.8,55.4l-3.9-3.9l1.8-1.8
		l3.9,3.9L31.8,55.4z M35.2,52l-3.9-3.9l0.6-0.6h0.8l3.5,3.5L35.2,52z M36.6,48.1l3.9-3.9l2.3,2.3l-3.9,3.9L36.6,48.1z M39.2,39.7
		h3.4v3.4L39.2,39.7z M40.5,52l3.9-3.9l1.8,1.8l-3.9,3.9L40.5,52z M47.8,51.5l1.9,1.9l-3.9,3.9l-1.9-1.9L47.8,51.5z M48.7,45.2h-3.9
		v-5.5h3.9V45.2z M54.1,45.2H51v-5.5h3.1V45.2z M28.8,6.5c0-2.4,1.9-4.3,4.3-4.3h9.3c2.3,0,4.3,1.9,4.3,4.3c0,0,0,0,0,0v2.6H28.8
		V6.5z M27.3,14.8H39c0.6,0,1.1-0.5,1.1-1.1c0-0.6-0.5-1.1-1.1-1.1c0,0,0,0,0,0H25v-1.1h25.5v1.1h-5.8c-0.6,0-1.1,0.5-1.1,1.1
		c0,0.6,0.5,1.1,1.1,1.1h3.4c7.2,5.2,9.4,14.9,5.3,22.7H22.1C17.9,29.6,20.2,19.9,27.3,14.8z M12.7,63.5L12.7,63.5
		c0,1.6,0.2,3.2,0.5,4.8c-0.7-0.1-1.3-0.2-2-0.2h-0.6C10.7,66.4,11.4,64.7,12.7,63.5z"/>
</g>
<path class="st1" d="M7.8,75.6c0.7-2.8,2.9-5.1,5.7-5.9c-4.5-1.3-9.2,1.2-10.5,5.7c0,0.1,0,0.1,0,0.2H7.8z"/>
</svg>
