<?xml version="1.0" encoding="utf-8"?>
<!-- Generator: Adobe Illustrator 24.0.2, SVG Export Plug-In . SVG Version: 6.00 Build 0)  -->
<svg version="1.1" id="Group_271" xmlns="http://www.w3.org/2000/svg" xmlns:xlink="http://www.w3.org/1999/xlink" x="0px" y="0px"
	 viewBox="0 0 109.5 75.5" style="enable-background:new 0 0 109.5 75.5;" xml:space="preserve">
<style type="text/css">
	.st0{opacity:0.1;}
	.st1{fill:#FFFFFF;}
	.st2{fill:#E4E4E4;}
	.st3{fill:#C8C8C8;}
	.st4{fill:#D9D9D9;}
	.st5{opacity:0.1;fill:#2F003A;enable-background:new    ;}
	.st6{fill:#9B9B9B;}
</style>
<path class="st0" d="M7.9,75.5c0.8-2.7,2.9-4.8,5.6-5.6c-4.5-1.3-9.1,1.2-10.5,5.6H7.9z"/>
<path class="st0" d="M57.3,75.5c0.8-2.7,2.9-4.8,5.6-5.6c-4.5-1.3-9.1,1.2-10.5,5.6H57.3z"/>
<title>Artboard 1 copy</title>
<path id="Path_590" class="st1" d="M13.8,63.5c0-0.7,0-1.3,0.1-2c-2.7,1.5-4.5,4.3-4.5,7.4c0,0.3,0,0.6,0,0.8
	c1.8-0.4,3.7-0.1,5.3,0.7C14.1,68.1,13.8,65.8,13.8,63.5z"/>
<g id="Group_262" class="st0">
	<path id="Path_593" d="M26.2,38.8c-4.9-8.5-2.5-19.4,5.6-25H27c-8.1,5.6-10.5,16.5-5.6,25H26.2z"/>
	<path id="Path_594" d="M25.5,46.6H21c-0.1,0-0.1,0-0.2,0c-6.2,6.2-8.5,15.4-6,23.8c2.6,1.2,4.4,2.7,4.7,5.6h3.2
		C16.3,66.5,17.4,54.8,25.5,46.6L25.5,46.6z"/>
</g>
<path id="Path_595" class="st2" d="M33.3,46.6h-1.8l-8.2,8.2c-0.3,0.3-0.3,0.8,0,1.1l4.4,4.4c0.3,0.3,0.8,0.3,1.1,0c0,0,0,0,0,0l9-9
	L33.3,46.6z"/>
<rect id="Rectangle_50" x="28.4" y="48.9" transform="matrix(0.7071 -0.7071 0.7071 0.7071 -28.3174 37.2167)" class="st3" width="4.8" height="7.8"/>
<circle id="Ellipse_48" class="st4" cx="37.7" cy="27" r="2"/>
<g id="Group_263">
	<path id="Path_596" class="st2" d="M26,39.4c-0.3-0.3-0.2-0.5,0.2-0.5H21c-0.4,0-0.8,0.3-0.8,0.8v6.2c0,0.4,0.3,0.8,0.8,0.8h12.3
		L26,39.4z"/>
	<path id="Path_597" class="st2" d="M54.5,38.8H35.7c0.5,0,0.9,0.2,1.3,0.5l7.2,7.2h10.3c0.4,0,0.8-0.3,0.8-0.8v-6.2
		C55.3,39.2,54.9,38.8,54.5,38.8z"/>
</g>
<g id="Group_264">
	<path id="Path_598" class="st2" d="M44.2,46.6h5.6v-7.8H35.7c0.5,0,0.9,0.2,1.3,0.5L44.2,46.6z"/>
	<path id="Path_599" class="st2" d="M26,39.4c-0.3-0.3-0.2-0.5,0.2-0.5h-0.6v7.8h7.7L26,39.4z"/>
</g>
<path id="Path_600" class="st2" d="M43.7,46.1v-7.3h-8c0.5,0,0.9,0.2,1.3,0.5L43.7,46.1z"/>
<g id="Group_265">
	<circle id="Ellipse_49" class="st2" cx="37.7" cy="60.8" r="2"/>
	<circle id="Ellipse_50" class="st2" cx="37.7" cy="69.5" r="2"/>
</g>
<path id="Path_605" class="st4" d="M47.8,10.5V6.8c0-3-2.4-5.4-5.4-5.4c0,0,0,0,0,0h-9.3c-3,0-5.4,2.4-5.4,5.4l0,0v3.7H47.8z"/>
<path id="Path_606" class="st5" d="M32.4,10.5V6.8c0-3,2.4-5.4,5.4-5.4c0,0,0,0,0,0h-4.7c-3,0-5.4,2.4-5.4,5.4l0,0v3.7H32.4z"/>
<path id="Path_607" class="st4" d="M51.7,13.1c0,0.4-0.3,0.8-0.8,0.8H24.6c-0.4,0-0.8-0.3-0.8-0.8v-1.9c0-0.4,0.3-0.8,0.8-0.8h26.3
	c0.4,0,0.8,0.3,0.8,0.8L51.7,13.1z"/>
<g id="Group_268" class="st0">
	<path id="Path_608" d="M28.6,13.1v-1.9c0-0.4,0.3-0.8,0.8-0.8l0,0h-4.8c-0.4,0-0.8,0.3-0.8,0.8v1.9c0,0.4,0.3,0.8,0.8,0.8h4.8
		C29,13.9,28.6,13.5,28.6,13.1z"/>
</g>
<path id="Path_609" class="st2" d="M45.3,58.6c0.3,0.3,0.8,0.3,1.1,0l4.4-4.4c0.3-0.3,0.3-0.8,0-1.1c0,0,0,0,0,0L37,39.4
	c-0.4-0.3-0.8-0.5-1.3-0.5h-9.4c-0.4,0-0.5,0.3-0.2,0.5L45.3,58.6z"/>
<g id="Group_269">
	
		<rect id="Rectangle_51" x="39.5" y="48.8" transform="matrix(0.7071 -0.7071 0.7071 0.7071 -23.4955 45.6502)" class="st2" width="7.8" height="4.8"/>
	
		<rect id="Rectangle_52" x="32.1" y="41.4" transform="matrix(0.7071 -0.7071 0.7071 0.7071 -20.4552 38.31)" class="st2" width="7.8" height="4.8"/>
</g>
<g id="Group_270">
	<circle id="Ellipse_51" class="st2" cx="71" cy="42.4" r="2.6"/>
	<circle id="Ellipse_52" class="st2" cx="11.3" cy="27.8" r="2.6"/>
	<circle id="Ellipse_53" class="st2" cx="60.3" cy="13.3" r="2.6"/>
	<circle id="Ellipse_54" class="st2" cx="6.2" cy="47.9" r="2.6"/>
</g>
<path id="Path_610" class="st6" d="M37.7,30.2c1.7,0,3.2-1.4,3.2-3.1c0-1.7-1.4-3.2-3.1-3.2c-1.7,0-3.1,1.4-3.2,3.1l0,0
	C34.6,28.7,36,30.2,37.7,30.2C37.7,30.2,37.7,30.2,37.7,30.2z M37.7,26.2c0.5,0,0.9,0.4,0.9,0.9s-0.4,0.9-0.9,0.9
	c-0.5,0-0.9-0.4-0.9-0.9S37.3,26.2,37.7,26.2L37.7,26.2z"/>
<path id="Path_611" class="st6" d="M43.7,31.4L43.7,31.4c0,0.6,0.5,1.2,1.1,1.2c0,0,0,0,0,0l0,0c0.6,0.1,1.2-0.4,1.2-1c0,0,0,0,0,0
	v-0.1c0-0.6-0.5-1.1-1.1-1.1C44.2,30.2,43.7,30.7,43.7,31.4L43.7,31.4z"/>
<path id="Path_612" class="st6" d="M37.8,33.8h-0.2c-0.6,0-1.1,0.5-1.1,1.1c0,0.6,0.5,1.1,1.1,1.1h0.2c0.6,0,1.1-0.5,1.2-1.1
	c0,0,0,0,0-0.1C39,34.4,38.5,33.9,37.8,33.8L37.8,33.8z"/>
<path id="Path_613" class="st6" d="M33,35.3l0.2,0.1c0.6,0.2,1.2-0.1,1.5-0.7c0.2-0.6-0.1-1.2-0.7-1.5l0,0h-0.1
	c-0.5-0.4-1.2-0.2-1.6,0.3c-0.4,0.5-0.2,1.2,0.3,1.6C32.7,35.2,32.8,35.3,33,35.3z"/>
<path id="Path_614" class="st6" d="M40.8,34.7c0.2,0.6,0.9,0.9,1.4,0.7c0,0,0,0,0,0l0,0l0.2-0.1c0.6-0.3,0.8-0.9,0.6-1.5
	c-0.2-0.5-0.8-0.8-1.4-0.6h-0.1C40.9,33.4,40.6,34.1,40.8,34.7C40.8,34.6,40.8,34.6,40.8,34.7L40.8,34.7z"/>
<path id="Path_615" class="st6" d="M30.6,32.6L30.6,32.6c0.7,0,1.2-0.5,1.2-1.2c0,0,0,0,0,0l0,0l0,0c0-0.6-0.5-1.1-1.1-1.1
	c-0.6,0-1.1,0.5-1.1,1.1l0,0v0.1C29.6,32.1,30.1,32.6,30.6,32.6z"/>
<path id="Path_616" class="st6" d="M31.2,24.6c0.6,0,1.1-0.5,1.1-1.1c0-0.6-0.5-1.1-1.1-1.1c-0.6,0-1.1,0.5-1.1,1.1
	c0,0.3,0.1,0.6,0.3,0.8C30.6,24.5,30.9,24.6,31.2,24.6z"/>
<path id="Path_617" class="st6" d="M44.3,24.6c0.6,0,1.1-0.5,1.1-1.1c0-0.6-0.5-1.1-1.1-1.1c-0.6,0-1.1,0.5-1.1,1.1
	c0,0.3,0.1,0.6,0.3,0.8C43.7,24.5,44,24.6,44.3,24.6z"/>
<path id="Path_619" class="st6" d="M37.7,63.9c1.7,0,3.1-1.4,3.1-3.1c0-1.7-1.4-3.1-3.1-3.1c-1.7,0-3.1,1.4-3.1,3.1l0,0l0,0
	C34.6,62.5,36,63.9,37.7,63.9C37.7,63.9,37.7,63.9,37.7,63.9z M37.7,59.9c0.5,0,0.9,0.4,0.9,0.9c0,0.5-0.4,0.9-0.9,0.9
	c-0.5,0-0.9-0.4-0.9-0.9c0,0,0,0,0,0C36.9,60.3,37.3,59.9,37.7,59.9z"/>
<path id="Path_620" class="st6" d="M37.7,72.7c1.7,0,3.1-1.4,3.1-3.1c0-1.7-1.4-3.1-3.1-3.1c-1.7,0-3.1,1.4-3.1,3.1l0,0l0,0
	C34.6,71.3,36,72.7,37.7,72.7C37.7,72.7,37.7,72.7,37.7,72.7z M37.7,68.7c0.5,0,0.9,0.4,0.9,0.9s-0.4,0.9-0.9,0.9s-0.9-0.4-0.9-0.9
	S37.3,68.7,37.7,68.7z"/>
<path id="Path_621" class="st6" d="M60.3,17c2.1,0,3.7-1.7,3.7-3.7c0-2.1-1.7-3.7-3.7-3.7c-2.1,0-3.7,1.7-3.7,3.7S58.2,17,60.3,17
	L60.3,17z M60.3,11.8c0.8,0,1.4,0.6,1.4,1.4s-0.6,1.4-1.4,1.4c-0.8,0-1.4-0.6-1.4-1.4v0C58.9,12.5,59.5,11.9,60.3,11.8L60.3,11.8z"
	/>
<path id="Path_622" class="st6" d="M71,46.1c2.1,0,3.7-1.7,3.7-3.7c0-2.1-1.7-3.7-3.7-3.7c-2.1,0-3.7,1.7-3.7,3.7c0,0,0,0,0,0
	C67.3,44.4,68.9,46.1,71,46.1L71,46.1z M71,40.9c0.8,0,1.5,0.6,1.5,1.4c0,0.8-0.6,1.5-1.4,1.5c-0.8,0-1.5-0.6-1.5-1.4c0,0,0,0,0,0
	C69.6,41.6,70.2,40.9,71,40.9z"/>
<path id="Path_623" class="st6" d="M11.3,31.5c2.1,0,3.7-1.7,3.7-3.7c0-2.1-1.7-3.7-3.7-3.7s-3.7,1.7-3.7,3.7l0,0
	C7.6,29.9,9.3,31.5,11.3,31.5z M11.3,26.4c0.8,0,1.4,0.6,1.4,1.4c0,0.8-0.6,1.4-1.4,1.4c-0.8,0-1.4-0.6-1.4-1.4S10.5,26.4,11.3,26.4
	C11.3,26.4,11.3,26.4,11.3,26.4z"/>
<g>
	<path class="st6" d="M4.3,75.5c1.2-3.8,5.3-6,9.1-4.8c2.3,0.7,4.1,2.5,4.8,4.8h2.3c-0.6-2.6-2.3-4.9-4.7-6.1
		c-2.2-7.7-0.1-16,5.4-21.9v0h7.5l-6.2,6.2c-0.7,0.7-0.7,1.9,0,2.7l0.3,0.3c0.5,0.4,1.2,0.4,1.6-0.1c0.4-0.4,0.4-1.1,0-1.5l1.9-1.9
		l3.9,3.8l-1.9,2l-0.3-0.3c-0.4-0.5-1.1-0.5-1.6-0.1c-0.5,0.4-0.5,1.1-0.1,1.6c0,0,0.1,0.1,0.1,0.1l0.5,0.5c0.7,0.7,1.9,0.7,2.7,0
		l8.2-8.3l6.6,6.6c0.7,0.7,1.9,0.7,2.7,0l4.4-4.4c0.7-0.7,0.7-1.9,0-2.7L47,47.5h7.3c5.2,5.5,7.4,13.2,5.7,20.7
		c-4.3,0.2-7.9,3.2-8.9,7.3h2.4c1.2-3.8,5.3-5.9,9.1-4.7c0.3,0.1,0.5,0.2,0.8,0.3c0.6,0.2,1.3-0.2,1.4-0.8c0.2-0.5,0-1-0.5-1.3
		c-0.7-0.3-1.3-0.5-2-0.6c1.6-7.9-0.6-16.1-6-22c0.1-0.2,0.1-0.5,0.1-0.7v-6.3c0-0.6-0.2-1.1-0.7-1.5c3.8-7.8,2.1-17.2-4.2-23.3
		c0.7-0.3,1.2-1,1.3-1.8V11c0-1-0.9-1.9-1.9-1.9h-2V6.6C49,2.9,46.1,0,42.5,0c0,0,0,0,0,0h-9.3c-3.6,0-6.5,2.9-6.5,6.5v2.6h-2
		c-1,0-1.9,0.9-1.9,1.9v1.9c0,0.8,0.5,1.5,1.3,1.8c-6.3,6-8,15.4-4.2,23.3c-0.4,0.4-0.7,0.9-0.7,1.5v6.2c0,0.2,0.1,0.5,0.1,0.7
		c-3.6,3.9-5.8,8.9-6.4,14.2c-2.8,1.7-4.5,4.8-4.5,8.1c-3.2,1-5.6,3.6-6.4,6.9H4.3z M24.5,45.2h-3.1v-5.5h3.1V45.2z M26.8,45.2v-3.8
		l3.8,3.8H26.8z M31.6,43.1l-3.3-3.3H35L31.6,43.1z M37.1,40.8l1.8,1.8L35,46.5l-1.8-1.8L37.1,40.8z M31.9,55.4L28,51.5l1.8-1.8
		l3.9,3.9L31.9,55.4z M35.3,52l-3.9-3.9l0.6-0.6h0.8l3.5,3.5L35.3,52z M36.7,48.1l3.9-3.9l2.3,2.3L39,50.4L36.7,48.1z M39.3,39.7
		h3.4v3.4L39.3,39.7z M40.6,52l3.9-3.9l1.8,1.8l-3.9,3.9L40.6,52z M47.9,51.5l1.9,1.9l-3.9,3.9L44,55.4L47.9,51.5z M48.8,45.2h-3.9
		v-5.5h3.9V45.2z M54.2,45.2h-3.1l0-5.5h3.1V45.2z M28.9,6.6c0-2.3,1.9-4.3,4.3-4.3c0,0,0,0,0,0h9.3c2.3,0,4.3,1.9,4.3,4.2
		c0,0,0,0,0,0v2.6H28.9V6.6z M27.4,14.8H39c0.6,0,1.1-0.5,1.1-1.1c0-0.6-0.5-1.1-1.1-1.1c0,0,0,0,0,0H25v-1.1h25.6v1.1h-5.8
		c-0.6,0-1.1,0.5-1.1,1.1c0,0.6,0.5,1.1,1.1,1.1h3.4c7.2,5.2,9.4,14.9,5.3,22.7H22.1C18,29.7,20.2,20,27.4,14.8z M12.7,63.5
		L12.7,63.5c0,1.6,0.2,3.2,0.5,4.8c-0.7-0.1-1.3-0.2-2-0.2h-0.6C10.8,66.4,11.5,64.8,12.7,63.5z"/>
	<path class="st6" d="M67,74.3c0.2,0.4,0.4,0.8,0.5,1.2h2.3c-0.2-0.8-0.4-1.6-0.8-2.3c-0.3-0.6-0.9-0.8-1.5-0.6s-0.8,0.9-0.6,1.5
		C66.9,74.2,67,74.2,67,74.3z"/>
</g>
</svg>
