<svg id="Layer_1" data-name="Layer 1" xmlns="http://www.w3.org/2000/svg" viewBox="0 0 56.93 62.4"><defs><style>.cls-1{fill:#f7b081;}.cls-2{fill:#546f7a;}.cls-3{fill:#465a65;}.cls-4{fill:#efe7e4;}.cls-5{fill:#d8d1d0;}.cls-6{fill:#ffc89f;}.cls-7{fill:#dd9a76;}.cls-8{fill:#f7cb4f;}.cls-9{fill:#fbab00;}</style></defs><title>Artboard 1</title><g id="thumbs-up"><path id="Path_490" data-name="Path 490" class="cls-1" d="M39.76,42.38l2-9.83a9.54,9.54,0,0,0,.07-3.37c-.33-2.05-1.3-3.57-3.59-3.57h0l-.6,3.54a27.72,27.72,0,0,1-1,4.09c-1.1,3.32-2.54,5.48-5.55,6.77-1.57.67-2.74,1.2-2.74,1.2H23.42V57.8h4.89l2.22,1.8a8.39,8.39,0,0,0,5.28,1.87h6V42.38Z"/><rect id="Rectangle_40" data-name="Rectangle 40" class="cls-2" x="0.91" y="37.66" width="15.39" height="23.38"/><rect id="Rectangle_41" data-name="Rectangle 41" class="cls-3" x="0.91" y="58.45" width="15.39" height="2.6"/><rect id="Rectangle_42" data-name="Rectangle 42" class="cls-4" x="16.3" y="39.57" width="7.11" height="19.57"/><rect id="Rectangle_43" data-name="Rectangle 43" class="cls-5" x="16.3" y="56.41" width="7.11" height="2.73"/><path id="Path_491" data-name="Path 491" class="cls-6" d="M39.35,44.88v-.52a2.16,2.16,0,0,1,2.16-2.15H51a2.16,2.16,0,0,1,2.16,2.15h0v.52A2.16,2.16,0,0,1,51,47H41.51a2.16,2.16,0,0,1-2.16-2.15Z"/><path id="Path_492" data-name="Path 492" class="cls-1" d="M50.79,45h-9a2.39,2.39,0,0,1-2.17-1.38,2.28,2.28,0,0,0-.24,1h0A2.41,2.41,0,0,0,41.76,47h9a2.41,2.41,0,0,0,2.41-2.41h0a2.42,2.42,0,0,0-.24-1A2.39,2.39,0,0,1,50.79,45Z"/><path id="Path_493" data-name="Path 493" class="cls-6" d="M39.35,54.26h0a2.41,2.41,0,0,1,2.41-2.41h9a2.4,2.4,0,0,1,2.4,2.41h0a2.41,2.41,0,0,1-2.4,2.41h-9a2.41,2.41,0,0,1-2.41-2.41Z"/><path id="Path_494" data-name="Path 494" class="cls-1" d="M50.79,54.61h-9a2.38,2.38,0,0,1-2.17-1.38,2.39,2.39,0,0,0,1.13,3.2,2.2,2.2,0,0,0,1,.23h9a2.4,2.4,0,0,0,2.41-2.39,2.37,2.37,0,0,0-.24-1A2.38,2.38,0,0,1,50.79,54.61Z"/><path id="Path_495" data-name="Path 495" class="cls-6" d="M39.35,59.07h0a2.41,2.41,0,0,1,2.41-2.41H48.3a2.41,2.41,0,0,1,2.41,2.41h0a2.41,2.41,0,0,1-2.41,2.41H41.76a2.41,2.41,0,0,1-2.41-2.41Z"/><path id="Path_496" data-name="Path 496" class="cls-1" d="M48.3,59.43H41.76a2.42,2.42,0,0,1-2.18-1.38,2.4,2.4,0,0,0,1.14,3.2,2.47,2.47,0,0,0,1,.23H48.3a2.39,2.39,0,0,0,2.41-2.39,2.47,2.47,0,0,0-.23-1A2.42,2.42,0,0,1,48.3,59.43Z"/><path id="Path_497" data-name="Path 497" class="cls-6" d="M39.35,49.69v-.51A2.16,2.16,0,0,1,41.51,47H52.16a2.15,2.15,0,0,1,2.15,2.15h0v.51a2.16,2.16,0,0,1-2.15,2.16H41.51a2.16,2.16,0,0,1-2.16-2.16Z"/><path id="Path_498" data-name="Path 498" class="cls-1" d="M51.9,49.8H41.76a2.39,2.39,0,0,1-2.17-1.39,2.28,2.28,0,0,0-.23,1h0a2.4,2.4,0,0,0,2.4,2.41H51.9a2.41,2.41,0,0,0,2.41-2.41h0a2.42,2.42,0,0,0-.23-1A2.41,2.41,0,0,1,51.9,49.8Z"/><path id="Path_499" data-name="Path 499" class="cls-7" d="M39.36,59.07a2.4,2.4,0,0,1,2.4-2.41,2.41,2.41,0,0,1-.09-4.81h.09A2.41,2.41,0,0,1,41.67,47h.09a2.41,2.41,0,0,1,0-4.82H39A2.41,2.41,0,0,0,39,47a2.41,2.41,0,0,0,0,4.82,2.41,2.41,0,0,0,0,4.81,2.41,2.41,0,0,0,0,4.82h2.73a2.4,2.4,0,0,1-2.4-2.41Z"/><path id="SVGCleanerId_0" data-name="SVGCleanerId 0" class="cls-8" d="M10.14,8.07,12,11.9a.79.79,0,0,0,.6.44l4.22.61a.8.8,0,0,1,.67.91.77.77,0,0,1-.22.45l-3.06,3A.81.81,0,0,0,14,18l.72,4.2a.8.8,0,0,1-.66.92.76.76,0,0,1-.49-.08l-3.78-2a.77.77,0,0,0-.75,0L5.28,23a.8.8,0,0,1-1.16-.84L4.84,18a.81.81,0,0,0-.23-.71l-3.05-3a.79.79,0,0,1,0-1.13A.85.85,0,0,1,2,13l4.22-.61a.79.79,0,0,0,.6-.44L8.71,8.07a.81.81,0,0,1,1.08-.35A.84.84,0,0,1,10.14,8.07Z"/><g id="Group_253" data-name="Group 253"><path id="SVGCleanerId_0-2" data-name="SVGCleanerId 0" class="cls-8" d="M10.14,8.07,12,11.9a.8.8,0,0,0,.6.44l4.22.61a.8.8,0,0,1,.67.91.77.77,0,0,1-.22.45l-3.06,3A.81.81,0,0,0,14,18l.72,4.2a.8.8,0,0,1-.66.92.76.76,0,0,1-.49-.08l-3.78-2a.81.81,0,0,0-.74,0L5.28,23a.8.8,0,0,1-1.16-.84L4.84,18a.78.78,0,0,0-.23-.71l-3.05-3a.79.79,0,0,1,0-1.13A.85.85,0,0,1,2,13l4.22-.61a.79.79,0,0,0,.6-.44L8.71,8.07a.81.81,0,0,1,1.08-.35A.84.84,0,0,1,10.14,8.07Z"/></g><path id="Path_500" data-name="Path 500" class="cls-9" d="M17.29,14.31a.79.79,0,0,0,0-1.13.85.85,0,0,0-.45-.23l-.73-.11-3.94,3.84a1,1,0,0,0-.3.91l.87,5,.82.43a.8.8,0,0,0,1.08-.34.85.85,0,0,0,.07-.5L14,18a.81.81,0,0,1,.23-.71Z"/><path id="SVGCleanerId_1" data-name="SVGCleanerId 1" class="cls-8" d="M29.4,1.36l1.89,3.83a.8.8,0,0,0,.6.43l4.22.62a.79.79,0,0,1,.67.91.73.73,0,0,1-.23.45l-3,3a.76.76,0,0,0-.23.7L34,15.49a.8.8,0,0,1-.66.92.87.87,0,0,1-.5-.08l-3.77-2a.81.81,0,0,0-.74,0l-3.78,2A.8.8,0,0,1,23.46,16a.76.76,0,0,1-.08-.49l.72-4.21a.76.76,0,0,0-.23-.7l-3.05-3a.79.79,0,0,1,0-1.13.73.73,0,0,1,.45-.23l4.22-.62a.77.77,0,0,0,.6-.43L28,1.36A.81.81,0,0,1,29.05,1,.84.84,0,0,1,29.4,1.36Z"/><g id="Group_254" data-name="Group 254"><path id="SVGCleanerId_1-2" data-name="SVGCleanerId 1" class="cls-8" d="M29.4,1.36l1.89,3.83a.8.8,0,0,0,.6.43l4.22.62a.79.79,0,0,1,.67.91.85.85,0,0,1-.23.45l-3,3a.76.76,0,0,0-.23.7L34,15.49a.81.81,0,0,1-.66.92.87.87,0,0,1-.5-.08l-3.77-2a.83.83,0,0,0-.75,0l-3.77,2A.8.8,0,0,1,23.46,16a.76.76,0,0,1-.08-.49l.72-4.21a.76.76,0,0,0-.23-.7l-3.05-3a.79.79,0,0,1,0-1.13.73.73,0,0,1,.45-.23l4.22-.62a.77.77,0,0,0,.6-.43L28,1.36A.81.81,0,0,1,29.05,1,.84.84,0,0,1,29.4,1.36Z"/></g><path id="Path_501" data-name="Path 501" class="cls-9" d="M36.55,7.6a.8.8,0,0,0,0-1.13.75.75,0,0,0-.45-.23l-.74-.11L31.44,10a1,1,0,0,0-.3.91l.86,5,.82.43A.8.8,0,0,0,33.9,16a.76.76,0,0,0,.08-.49l-.72-4.21a.76.76,0,0,1,.23-.7Z"/><path id="SVGCleanerId_2" data-name="SVGCleanerId 2" class="cls-8" d="M48.62,8.07l1.89,3.83a.8.8,0,0,0,.6.44l4.22.61a.8.8,0,0,1,.67.91.77.77,0,0,1-.22.45l-3.06,3a.81.81,0,0,0-.23.71l.72,4.2a.8.8,0,0,1-.66.92.76.76,0,0,1-.49-.08l-3.78-2a.77.77,0,0,0-.75,0l-3.77,2a.8.8,0,0,1-1.16-.84l.72-4.2a.78.78,0,0,0-.23-.71l-3.05-3a.79.79,0,0,1,0-1.13.85.85,0,0,1,.45-.23l4.22-.61a.79.79,0,0,0,.6-.44l1.89-3.83a.81.81,0,0,1,1.08-.35A.84.84,0,0,1,48.62,8.07Z"/><g id="Group_255" data-name="Group 255"><path id="SVGCleanerId_2-2" data-name="SVGCleanerId 2" class="cls-8" d="M48.62,8.07l1.89,3.83a.8.8,0,0,0,.6.44l4.22.61a.8.8,0,0,1,.67.91.77.77,0,0,1-.22.45l-3.06,3a.81.81,0,0,0-.23.71l.72,4.2a.8.8,0,0,1-.66.92.76.76,0,0,1-.49-.08l-3.78-2a.83.83,0,0,0-.75,0l-3.77,2a.8.8,0,0,1-1.16-.84l.72-4.2a.78.78,0,0,0-.23-.71l-3.05-3a.79.79,0,0,1,0-1.13.85.85,0,0,1,.45-.23l4.22-.61a.79.79,0,0,0,.6-.44l1.89-3.83a.81.81,0,0,1,1.08-.35A.84.84,0,0,1,48.62,8.07Z"/></g><path id="Path_502" data-name="Path 502" class="cls-9" d="M55.78,14.31a.8.8,0,0,0,0-1.13.85.85,0,0,0-.45-.23l-.73-.11-3.93,3.84a1,1,0,0,0-.3.91l.86,5,.82.43a.8.8,0,0,0,1.08-.34.86.86,0,0,0,.08-.5L52.48,18a.84.84,0,0,1,.23-.71Z"/><circle id="Ellipse_35" data-name="Ellipse 35" cx="11.45" cy="56.34" r="1.46"/><path id="Path_503" data-name="Path 503" d="M53.64,46.5a3,3,0,0,0,.47-1.62v-.52A3.06,3.06,0,0,0,51,41.3H41.51a3.08,3.08,0,0,0-.61.06l1.71-8.63A10.46,10.46,0,0,0,42.7,29c-.32-2-1.37-4.33-4.5-4.33a.9.9,0,0,0-.9.76L36.7,29a27.23,27.23,0,0,1-1,4c-1.12,3.4-2.53,5.14-5,6.21l-2.58,1.13H24.33v-.73a.91.91,0,0,0-.91-.91h-6.2v-1a.91.91,0,0,0-.92-.91H.91a.91.91,0,0,0-.91.91v5.43a.92.92,0,1,0,1.83,0V38.58H15.39V60.13H1.83v-14a.92.92,0,1,0-1.83,0v14.9A.92.92,0,0,0,.92,62H16.3a.92.92,0,0,0,.92-.91v-1h6.2a.92.92,0,0,0,.92-.92v-.43H28l2,1.6a9.33,9.33,0,0,0,5.86,2.07h5.6l.36,0h6.54a3.32,3.32,0,0,0,3.32-3.32,3.39,3.39,0,0,0-.37-1.53,3.32,3.32,0,0,0,2.3-5.12,3.1,3.1,0,0,0,1.67-2.73v-.52A3.07,3.07,0,0,0,53.64,46.5Zm-1.48,4.43H41.51a1.23,1.23,0,0,1-1.24-1.23v-.52A1.23,1.23,0,0,1,41.51,48H52.16a1.23,1.23,0,0,1,1.23,1.23v.52A1.23,1.23,0,0,1,52.16,50.93ZM51,43.13a1.24,1.24,0,0,1,1.24,1.24v.51A1.24,1.24,0,0,1,51,46.12H41.51a1.24,1.24,0,0,1-1.24-1.24v-.49c.06-.22.11-.43.16-.62a1.25,1.25,0,0,1,1.08-.64ZM31.1,58.88l-2.22-1.8a.9.9,0,0,0-.57-.2h-4V54.26a.92.92,0,1,0-1.83,0v4H17.22V40.48H22.5V51.2h0a.92.92,0,1,0,1.83,0h0V42.13h4a1,1,0,0,0,.38-.08s1.17-.54,2.72-1.2c3-1.29,4.77-3.41,6.06-7.32a29.31,29.31,0,0,0,1-4.23L39,26.61c1.07.25,1.67,1.1,1.93,2.72a8.63,8.63,0,0,1-.07,3l-2,9.84v0s-.06.36-.18.9a3.19,3.19,0,0,0-.23.92c-.72,2.59-2.59,7-6.86,7a.92.92,0,1,0,0,1.83c2.83,0,5.2-1.46,6.89-4.25a2.77,2.77,0,0,0,0,.49v.51a3,3,0,0,0,1,2.23,3.32,3.32,0,0,0,0,4.69l0,0a3.33,3.33,0,0,0-.69,3.89h-3A7.57,7.57,0,0,1,31.1,58.88Zm17.2,1.69H41.76a1.5,1.5,0,0,1,0-3H48.3a1.5,1.5,0,0,1,0,3Zm2.49-4.82h-9a1.5,1.5,0,0,1,0-3h9a1.5,1.5,0,0,1,0,3Z"/><path id="Path_504" data-name="Path 504" d="M3.93,17.9l-.71,4.15a1.7,1.7,0,0,0,2.48,1.8l3.73-2,3.72,2a1.71,1.71,0,0,0,2.48-1.8l-.71-4.15,3-2.93A1.73,1.73,0,0,0,17,12l-4.16-.6L11,7.67a1.73,1.73,0,0,0-3.08,0L6,11.44,1.86,12A1.71,1.71,0,0,0,.42,14a1.69,1.69,0,0,0,.5,1Zm2.42-4.66a1.71,1.71,0,0,0,1.29-.93L9.43,8.69l1.78,3.62a1.71,1.71,0,0,0,1.29.93l4,.58L13.6,16.63a1.72,1.72,0,0,0-.49,1.52l.68,4-3.57-1.87a1.66,1.66,0,0,0-1.59,0L5.06,22.12l.68-4a1.7,1.7,0,0,0-.49-1.51L2.36,13.83Z"/><path id="Path_505" data-name="Path 505" d="M23.19,11.19l-.71,4.15a1.7,1.7,0,0,0,1.39,2A1.65,1.65,0,0,0,25,17.14l3.72-2,3.73,2a1.71,1.71,0,0,0,2.31-.72,1.77,1.77,0,0,0,.17-1.09l-.71-4.14,3-2.94a1.71,1.71,0,0,0-.95-2.92l-4.16-.6L30.22,1A1.71,1.71,0,0,0,27.93.18a1.66,1.66,0,0,0-.78.77L25.28,4.73l-4.16.6a1.72,1.72,0,0,0-1.45,1.94,1.78,1.78,0,0,0,.5,1Zm2.42-4.66a1.7,1.7,0,0,0,1.29-.94L28.68,2l1.79,3.61a1.69,1.69,0,0,0,1.28.94l4,.58L32.86,9.92a1.71,1.71,0,0,0-.49,1.52l.68,4-3.57-1.88a1.72,1.72,0,0,0-1.59,0l-3.57,1.88.68-4a1.71,1.71,0,0,0-.49-1.52L21.63,7.11Z"/><path id="Path_506" data-name="Path 506" d="M56.84,13.21a1.68,1.68,0,0,0-1.38-1.16l-4.16-.6L49.45,7.67a1.72,1.72,0,0,0-3.08,0l-1.86,3.77-4.16.6A1.71,1.71,0,0,0,38.9,14a1.69,1.69,0,0,0,.5,1l3,2.94L41.7,22a1.72,1.72,0,0,0,1.4,2,1.75,1.75,0,0,0,1.08-.17l3.73-2,3.72,2A1.72,1.72,0,0,0,54.12,22L53.4,17.9l3-2.94A1.69,1.69,0,0,0,56.84,13.21Zm-4.76,3.43a1.7,1.7,0,0,0-.5,1.51l.69,4L48.7,20.25a1.66,1.66,0,0,0-1.59,0l-3.56,1.87.68-4a1.7,1.7,0,0,0-.5-1.51l-2.89-2.82,4-.57a1.75,1.75,0,0,0,1.29-.94L47.9,8.7l1.79,3.61a1.75,1.75,0,0,0,1.29.94l4,.58Z"/></g></svg>