<svg id="Layer_1" data-name="Layer 1" xmlns="http://www.w3.org/2000/svg" viewBox="0 0 56.93 62.4"><defs><style>.cls-1{fill:#fff;}.cls-2{fill:#f7cb4f;}</style></defs><title>Artboard 1 copy</title><g id="thumbs-up"><path id="Path_490" data-name="Path 490" class="cls-1" d="M39.77,42.62l1.95-9.84a9.54,9.54,0,0,0,.08-3.37c-.34-2.05-1.3-3.56-3.6-3.56h0l-.6,3.54a27.29,27.29,0,0,1-1,4.08c-1.1,3.33-2.54,5.48-5.55,6.77-1.57.67-2.74,1.21-2.74,1.21H23.42V58h4.89l2.22,1.8a8.39,8.39,0,0,0,5.28,1.87h6V42.62Z"/><rect id="Rectangle_40" data-name="Rectangle 40" class="cls-1" x="0.92" y="37.9" width="15.39" height="23.38"/><rect id="Rectangle_41" data-name="Rectangle 41" class="cls-1" x="0.92" y="58.68" width="15.39" height="2.6"/><rect id="Rectangle_42" data-name="Rectangle 42" class="cls-1" x="16.31" y="39.8" width="7.11" height="19.57"/><rect id="Rectangle_43" data-name="Rectangle 43" class="cls-1" x="16.31" y="56.64" width="7.11" height="2.73"/><path id="Path_491" data-name="Path 491" class="cls-1" d="M39.36,45.11V44.6a2.15,2.15,0,0,1,2.15-2.15H51A2.16,2.16,0,0,1,53.2,44.6h0v.51A2.16,2.16,0,0,1,51,47.27H41.51a2.16,2.16,0,0,1-2.15-2.16Z"/><path id="Path_492" data-name="Path 492" class="cls-1" d="M50.79,45.22h-9a2.39,2.39,0,0,1-2.17-1.39,2.28,2.28,0,0,0-.23,1h0a2.4,2.4,0,0,0,2.4,2.41h9a2.41,2.41,0,0,0,2.41-2.41h0a2.42,2.42,0,0,0-.23-1A2.41,2.41,0,0,1,50.79,45.22Z"/><path id="Path_493" data-name="Path 493" class="cls-1" d="M39.36,54.49h0a2.4,2.4,0,0,1,2.4-2.41h9a2.41,2.41,0,0,1,2.41,2.41h0a2.41,2.41,0,0,1-2.41,2.41h-9a2.4,2.4,0,0,1-2.4-2.41Z"/><path id="Path_494" data-name="Path 494" class="cls-1" d="M50.79,54.85h-9a2.39,2.39,0,0,1-2.17-1.38,2.4,2.4,0,0,0,1.13,3.2,2.5,2.5,0,0,0,1,.23h9a2.4,2.4,0,0,0,2.41-2.39,2.33,2.33,0,0,0-.24-1A2.39,2.39,0,0,1,50.79,54.85Z"/><path id="Path_495" data-name="Path 495" class="cls-1" d="M39.36,59.31h0a2.4,2.4,0,0,1,2.4-2.41H48.3a2.41,2.41,0,0,1,2.41,2.41h0a2.41,2.41,0,0,1-2.41,2.41H41.76a2.4,2.4,0,0,1-2.4-2.41Z"/><path id="Path_496" data-name="Path 496" class="cls-1" d="M48.3,59.67H41.76a2.39,2.39,0,0,1-2.17-1.38,2.41,2.41,0,0,0,2.17,3.43H48.3a2.4,2.4,0,0,0,2.41-2.39,2.2,2.2,0,0,0-.23-1A2.41,2.41,0,0,1,48.3,59.67Z"/><path id="Path_497" data-name="Path 497" class="cls-1" d="M39.36,49.93v-.51a2.15,2.15,0,0,1,2.15-2.15H52.16a2.15,2.15,0,0,1,2.15,2.15h0v.51a2.15,2.15,0,0,1-2.15,2.15H41.51a2.15,2.15,0,0,1-2.15-2.15Z"/><path id="Path_498" data-name="Path 498" class="cls-1" d="M51.9,50H41.76a2.39,2.39,0,0,1-2.17-1.38,2.41,2.41,0,0,0-.23,1h0a2.4,2.4,0,0,0,2.41,2.41H51.9a2.41,2.41,0,0,0,2.41-2.41h0a2.41,2.41,0,0,0-.23-1A2.42,2.42,0,0,1,51.9,50Z"/><path id="Path_499" data-name="Path 499" class="cls-1" d="M39.36,59.31a2.4,2.4,0,0,1,2.41-2.41,2.41,2.41,0,0,1-.1-4.82h.1a2.41,2.41,0,1,1-.1-4.81.17.17,0,0,1,.1,0,2.41,2.41,0,0,1,0-4.82H39a2.41,2.41,0,0,0,0,4.82,2.41,2.41,0,0,0,0,4.81,2.41,2.41,0,0,0,0,4.82,2.41,2.41,0,0,0,0,4.82h2.74a2.41,2.41,0,0,1-2.41-2.41Z"/><path id="SVGCleanerId_0" data-name="SVGCleanerId 0" class="cls-2" d="M10.14,8.31,12,12.14a.81.81,0,0,0,.6.43l4.22.62a.79.79,0,0,1,.67.91.77.77,0,0,1-.22.45l-3.06,3a.79.79,0,0,0-.23.7l.72,4.21a.8.8,0,0,1-.66.92.83.83,0,0,1-.49-.08l-3.78-2a.81.81,0,0,0-.74,0l-3.78,2a.8.8,0,0,1-1.08-.35.76.76,0,0,1-.08-.49l.72-4.21a.76.76,0,0,0-.23-.7l-3.05-3a.81.81,0,0,1,0-1.14A.77.77,0,0,1,2,13.19l4.22-.62a.8.8,0,0,0,.6-.43L8.71,8.31A.8.8,0,0,1,9.79,8,.79.79,0,0,1,10.14,8.31Z"/><g id="Group_253" data-name="Group 253"><path id="SVGCleanerId_0-2" data-name="SVGCleanerId 0" class="cls-1" d="M10.14,8.31,12,12.14a.81.81,0,0,0,.6.43l4.23.62a.79.79,0,0,1,.66.91.77.77,0,0,1-.22.45l-3.06,3a.79.79,0,0,0-.23.7l.72,4.21a.8.8,0,0,1-.66.92.83.83,0,0,1-.49-.08l-3.78-2a.81.81,0,0,0-.74,0l-3.78,2a.8.8,0,0,1-1.08-.35.76.76,0,0,1-.08-.49l.72-4.21a.76.76,0,0,0-.23-.7l-3.05-3a.81.81,0,0,1,0-1.14A.77.77,0,0,1,2,13.19l4.22-.62a.8.8,0,0,0,.6-.43L8.71,8.31A.8.8,0,0,1,9.79,8,.79.79,0,0,1,10.14,8.31Z"/></g><path id="Path_500" data-name="Path 500" class="cls-1" d="M17.3,14.55a.8.8,0,0,0,0-1.13.73.73,0,0,0-.45-.23l-.73-.11-3.93,3.83a1,1,0,0,0-.3.91l.86,5,.82.43a.8.8,0,0,0,1.08-.35.83.83,0,0,0,.08-.49L14,18.23a.79.79,0,0,1,.23-.7Z"/><path id="SVGCleanerId_1" data-name="SVGCleanerId 1" class="cls-2" d="M29.4,1.6l1.89,3.82a.79.79,0,0,0,.6.44l4.22.61a.8.8,0,0,1,.67.92.77.77,0,0,1-.22.44l-3.06,3a.82.82,0,0,0-.23.71l.72,4.2a.8.8,0,0,1-.66.92.76.76,0,0,1-.49-.08l-3.78-2a.81.81,0,0,0-.74,0l-3.78,2a.81.81,0,0,1-1.08-.35.77.77,0,0,1-.08-.49l.72-4.21a.81.81,0,0,0-.22-.71l-3.06-3a.79.79,0,0,1,0-1.13.85.85,0,0,1,.45-.23l4.23-.61a.82.82,0,0,0,.6-.44L28,1.6a.8.8,0,0,1,1.08-.35A.79.79,0,0,1,29.4,1.6Z"/><g id="Group_254" data-name="Group 254"><path id="SVGCleanerId_1-2" data-name="SVGCleanerId 1" class="cls-1" d="M29.4,1.6l1.89,3.82a.79.79,0,0,0,.6.44l4.22.61a.8.8,0,0,1,.67.92.73.73,0,0,1-.23.44l-3,3a.79.79,0,0,0-.23.71l.72,4.2a.8.8,0,0,1-1.16.84l-3.77-2a.81.81,0,0,0-.74,0l-3.78,2a.81.81,0,0,1-1.08-.35.77.77,0,0,1-.08-.49l.72-4.21a.79.79,0,0,0-.23-.71l-3.05-3a.79.79,0,0,1,0-1.13.85.85,0,0,1,.45-.23l4.22-.61a.79.79,0,0,0,.6-.44L28,1.6a.8.8,0,0,1,1.08-.35A.79.79,0,0,1,29.4,1.6Z"/></g><path id="Path_501" data-name="Path 501" class="cls-1" d="M36.55,7.83a.8.8,0,0,0,0-1.13.85.85,0,0,0-.45-.23l-.74-.1L31.44,10.2a1,1,0,0,0-.3.91l.86,5,.83.44a.8.8,0,0,0,1.07-.35.77.77,0,0,0,.08-.49l-.72-4.21a.82.82,0,0,1,.23-.71Z"/><path id="SVGCleanerId_2" data-name="SVGCleanerId 2" class="cls-2" d="M48.62,8.31l1.89,3.83a.81.81,0,0,0,.6.43l4.23.62a.79.79,0,0,1,.66.91.77.77,0,0,1-.22.45l-3.06,3a.79.79,0,0,0-.23.7l.72,4.21a.8.8,0,0,1-.66.92.83.83,0,0,1-.49-.08l-3.78-2a.81.81,0,0,0-.74,0l-3.78,2a.8.8,0,0,1-1.08-.35.76.76,0,0,1-.08-.49l.72-4.21a.76.76,0,0,0-.23-.7l-3.05-3a.81.81,0,0,1,0-1.14.77.77,0,0,1,.45-.22l4.22-.62a.8.8,0,0,0,.6-.43l1.89-3.83A.8.8,0,0,1,48.27,8,.79.79,0,0,1,48.62,8.31Z"/><g id="Group_255" data-name="Group 255"><path id="SVGCleanerId_2-2" data-name="SVGCleanerId 2" class="cls-1" d="M48.62,8.31l1.89,3.83a.81.81,0,0,0,.6.43l4.23.62a.79.79,0,0,1,.66.91.77.77,0,0,1-.22.45l-3.06,3a.79.79,0,0,0-.23.7l.72,4.21a.8.8,0,0,1-.66.92.83.83,0,0,1-.49-.08l-3.78-2a.81.81,0,0,0-.74,0l-3.78,2a.8.8,0,0,1-1.08-.35.76.76,0,0,1-.08-.49l.72-4.21a.76.76,0,0,0-.23-.7l-3.05-3a.81.81,0,0,1,0-1.14.77.77,0,0,1,.45-.22l4.22-.62a.8.8,0,0,0,.6-.43l1.89-3.83A.8.8,0,0,1,48.27,8,.79.79,0,0,1,48.62,8.31Z"/></g><path id="Path_502" data-name="Path 502" class="cls-1" d="M55.78,14.55a.8.8,0,0,0,0-1.13.73.73,0,0,0-.44-.23l-.74-.11-3.93,3.83a1,1,0,0,0-.3.91l.86,5,.82.43a.8.8,0,0,0,1.08-.35.83.83,0,0,0,.08-.49l-.72-4.21a.78.78,0,0,1,.22-.7Z"/><circle id="Ellipse_35" data-name="Ellipse 35" cx="11.45" cy="56.58" r="1.46"/><path id="Path_503" data-name="Path 503" d="M53.65,46.74a3.11,3.11,0,0,0,.46-1.63V44.6a3.07,3.07,0,0,0-3.06-3.07H41.51a3.08,3.08,0,0,0-.61.06L42.62,33a10.46,10.46,0,0,0,.08-3.7c-.32-2-1.37-4.33-4.5-4.33a.91.91,0,0,0-.9.76l-.6,3.54a26.79,26.79,0,0,1-1,3.95c-1.12,3.4-2.53,5.14-5,6.22-1.21.51-2.19,1-2.58,1.13H24.33V39.8a.92.92,0,0,0-.91-.92h-6.2v-1A.92.92,0,0,0,16.3,37H.92A.92.92,0,0,0,0,37.9v5.43a.92.92,0,0,0,1.83,0V38.81H15.39V60.36H1.83v-14a.92.92,0,0,0-1.83,0v14.9a.92.92,0,0,0,.92.92H16.31a.92.92,0,0,0,.91-.92v-1h6.2a.92.92,0,0,0,.92-.92V59H28l2,1.59a9.35,9.35,0,0,0,5.85,2.08h5.6l.36,0h6.54a3.32,3.32,0,0,0,3.32-3.32,3.23,3.23,0,0,0-.37-1.53A3.32,3.32,0,0,0,54.08,54a3.36,3.36,0,0,0-.52-1.37,3.09,3.09,0,0,0,1.67-2.73v-.51A3.08,3.08,0,0,0,53.65,46.74Zm-1.49,4.43H41.51a1.23,1.23,0,0,1-1.24-1.24v-.51a1.25,1.25,0,0,1,1.24-1.24H52.16a1.24,1.24,0,0,1,1.23,1.24v.51A1.23,1.23,0,0,1,52.16,51.17Zm-1.11-7.8a1.23,1.23,0,0,1,1.23,1.24v.51a1.23,1.23,0,0,1-1.23,1.23H41.51a1.23,1.23,0,0,1-1.24-1.23v-.49l.16-.63a1.24,1.24,0,0,1,1.08-.63ZM31.11,59.12l-2.22-1.8a1,1,0,0,0-.58-.2h-4V54.49a.92.92,0,0,0-1.83,0v4H17.22V40.72H22.5V51.44h0a.92.92,0,0,0,1.83,0h0V42.37h4a1,1,0,0,0,.38-.08s1.18-.54,2.72-1.2c3-1.29,4.77-3.42,6.06-7.33a29.18,29.18,0,0,0,1-4.22L39,26.85c1.08.25,1.67,1.1,1.93,2.71a8.46,8.46,0,0,1-.07,3.05l-2,9.83s0,0,0,.06a8.91,8.91,0,0,1-.18.9,3.19,3.19,0,0,0-.23.92c-.72,2.59-2.59,7-6.86,7a.92.92,0,1,0,0,1.83c2.83,0,5.2-1.46,6.89-4.24a2.63,2.63,0,0,0,0,.49v.51a3.09,3.09,0,0,0,1,2.23,3.32,3.32,0,0,0,0,4.69l.06,0a3.33,3.33,0,0,0-.7,3.88h-3A7.51,7.51,0,0,1,31.11,59.12Zm17.2,1.68H41.77a1.49,1.49,0,1,1,0-3h6.54a1.49,1.49,0,1,1,0,3ZM50.79,56h-9a1.49,1.49,0,0,1,0-3h9a1.49,1.49,0,1,1,0,3Z"/><path id="Path_504" data-name="Path 504" d="M3.93,18.14l-.71,4.14a1.71,1.71,0,0,0,1.39,2,1.65,1.65,0,0,0,1.09-.17l3.73-2,3.72,2a1.72,1.72,0,0,0,2.31-.73,1.75,1.75,0,0,0,.17-1.08l-.71-4.14,3-2.94a1.71,1.71,0,0,0,0-2.42,1.75,1.75,0,0,0-1-.5l-4.16-.6L11,7.91a1.72,1.72,0,0,0-2.3-.78,1.66,1.66,0,0,0-.77.78L6,11.68l-4.16.6A1.71,1.71,0,0,0,.92,15.2Zm2.42-4.66a1.7,1.7,0,0,0,1.29-.94L9.43,8.93l1.78,3.61a1.7,1.7,0,0,0,1.29.94l4,.58L13.6,16.87a1.71,1.71,0,0,0-.49,1.52l.68,4-3.57-1.88a1.72,1.72,0,0,0-1.59,0L5.06,22.36l.68-4a1.71,1.71,0,0,0-.49-1.52L2.37,14.06Z"/><path id="Path_505" data-name="Path 505" d="M23.19,11.43l-.71,4.14a1.71,1.71,0,0,0,1.39,2A1.78,1.78,0,0,0,25,17.38l3.72-2,3.73,2a1.71,1.71,0,0,0,2.48-1.81l-.71-4.14,3-2.94a1.71,1.71,0,0,0-.95-2.92L32.08,5,30.22,1.19A1.71,1.71,0,0,0,27.93.41a1.69,1.69,0,0,0-.78.78L25.29,5l-4.17.6a1.71,1.71,0,0,0-.95,2.92Zm2.42-4.66a1.72,1.72,0,0,0,1.29-.94l1.78-3.61,1.79,3.61a1.72,1.72,0,0,0,1.29.94l4,.58-2.88,2.81a1.7,1.7,0,0,0-.49,1.51l.68,4-3.57-1.87a1.72,1.72,0,0,0-1.59,0l-3.57,1.87.68-4a1.7,1.7,0,0,0-.49-1.51L21.63,7.35Z"/><path id="Path_506" data-name="Path 506" d="M56.85,13.45a1.71,1.71,0,0,0-1.39-1.17l-4.16-.6L49.45,7.9a1.72,1.72,0,0,0-2.3-.77,1.69,1.69,0,0,0-.77.77l-1.87,3.78-4.16.6a1.71,1.71,0,0,0-1.45,1.94,1.78,1.78,0,0,0,.5,1l3,2.93-.71,4.15a1.71,1.71,0,0,0,2.49,1.8l3.72-1.95,3.72,1.95a1.72,1.72,0,0,0,2.49-1.8l-.71-4.15,3-2.93A1.73,1.73,0,0,0,56.85,13.45Zm-4.77,3.42a1.68,1.68,0,0,0-.49,1.52l.68,4L48.7,20.48a1.72,1.72,0,0,0-1.59,0l-3.56,1.88.68-4a1.75,1.75,0,0,0-.49-1.52l-2.89-2.81,4-.58a1.7,1.7,0,0,0,1.29-.94l1.79-3.61,1.78,3.62a1.71,1.71,0,0,0,1.29.93l4,.58Z"/></g></svg>