<svg id="Layer_1" data-name="Layer 1" xmlns="http://www.w3.org/2000/svg" viewBox="0 0 56.93 62.4"><title>Artboard 1 copy 3</title><g id="Group_286" data-name="Group 286"><path id="Path_503" data-name="Path 503" d="M53.94,40.6a3.06,3.06,0,0,1,.47,1.62v.51a3.08,3.08,0,0,1-3.07,3.07H41.8a3,3,0,0,1-.6-.06l1.71,8.63a10.23,10.23,0,0,1,.08,3.7c-.32,2-1.36,4.33-4.5,4.33a.92.92,0,0,1-.9-.76L37,58.1a26.76,26.76,0,0,0-1-4C34.9,50.75,33.49,49,31,47.93c-1.2-.51-2.18-1-2.57-1.13H24.63v.73a.92.92,0,0,1-.92.92h-6.2v1a.91.91,0,0,1-.91.91H1.21a.92.92,0,0,1-.92-.91V44a.92.92,0,0,1,1.84,0v4.52H15.68V27H2.13V41A.92.92,0,0,1,.29,41V26.05a.92.92,0,0,1,.92-.91H16.6a.91.91,0,0,1,.91.91v1h6.2a.92.92,0,0,1,.92.91v.43h3.65l2-1.59a9.31,9.31,0,0,1,5.85-2.07h5.6a2.17,2.17,0,0,1,.36,0H48.6A3.32,3.32,0,0,1,51.93,28a3.27,3.27,0,0,1-.38,1.53,3.32,3.32,0,0,1,2.82,3.76,3.19,3.19,0,0,1-.52,1.36,3.07,3.07,0,0,1,1.67,2.73v.51A3.09,3.09,0,0,1,53.94,40.6Zm-1.49-4.44H41.8a1.26,1.26,0,0,0-1.24,1.24v.51a1.25,1.25,0,0,0,1.24,1.24H52.45a1.24,1.24,0,0,0,1.24-1.24V37.4A1.25,1.25,0,0,0,52.45,36.16ZM51.34,44a1.23,1.23,0,0,0,1.23-1.23v-.51A1.23,1.23,0,0,0,51.34,41H41.8a1.25,1.25,0,0,0-1.24,1.24v.49c.06.22.12.43.16.62A1.27,1.27,0,0,0,41.8,44ZM31.4,28.21,29.18,30a.87.87,0,0,1-.58.2h-4v2.63a.92.92,0,0,1-1.83,0v-4H17.51V46.61H22.8V35.89h0a.92.92,0,0,1,1.83,0h0V45h4a.88.88,0,0,1,.39.08s1.17.54,2.71,1.2c3,1.29,4.77,3.41,6.06,7.32a29,29,0,0,1,1,4.23l.45,2.69c1.08-.25,1.67-1.1,1.94-2.72a8.63,8.63,0,0,0-.08-3l-2-9.84s0,0,0,0,0-.36-.17-.9a3,3,0,0,1-.23-.92c-.73-2.59-2.6-7-6.87-7a.92.92,0,0,1,0-1.83c2.84,0,5.2,1.46,6.89,4.25a4.22,4.22,0,0,1,0-.49v-.51a3.07,3.07,0,0,1,1-2.23,3.32,3.32,0,0,1,0-4.69l.06,0a3.32,3.32,0,0,1-.69-3.89h-3A7.51,7.51,0,0,0,31.4,28.21Zm17.2-1.68H42.06a1.5,1.5,0,0,0,0,3H48.6a1.5,1.5,0,0,0,0-3Zm2.48,4.82h-9a1.49,1.49,0,1,0,0,3h9a1.49,1.49,0,1,0,0-3Z"/><path id="Path_504" data-name="Path 504" d="M3.57,16.56,2.86,20.7a1.7,1.7,0,0,0,1.39,2,1.65,1.65,0,0,0,1.09-.17l3.73-2,3.72,2a1.71,1.71,0,0,0,2.31-.73,1.75,1.75,0,0,0,.17-1.08l-.71-4.14,3-2.94a1.71,1.71,0,0,0,0-2.42,1.75,1.75,0,0,0-1-.5l-4.16-.6L10.59,6.33A1.71,1.71,0,0,0,8.3,5.55a1.73,1.73,0,0,0-.78.78L5.67,10.1l-4.17.6A1.72,1.72,0,0,0,.05,12.64a1.78,1.78,0,0,0,.5,1ZM6,11.9A1.7,1.7,0,0,0,7.28,11L9.07,7.35,10.85,11a1.7,1.7,0,0,0,1.29.94l4,.58-2.89,2.81a1.71,1.71,0,0,0-.49,1.52l.68,4L9.86,18.9a1.72,1.72,0,0,0-1.59,0L4.7,20.78l.68-4a1.72,1.72,0,0,0-.49-1.52L2,12.48Z"/><path id="Path_505" data-name="Path 505" d="M22.82,11.19l-.71,4.15a1.71,1.71,0,0,0,1.4,2,1.66,1.66,0,0,0,1.09-.17l3.72-2,3.72,2a1.72,1.72,0,0,0,2.32-.72,1.75,1.75,0,0,0,.17-1.08l-.71-4.15,3-2.94a1.71,1.71,0,0,0,0-2.42,1.75,1.75,0,0,0-1-.5l-4.16-.6L29.86,1a1.72,1.72,0,0,0-2.3-.78,1.66,1.66,0,0,0-.77.78L24.92,4.73l-4.16.6a1.71,1.71,0,0,0-1.45,1.94,1.75,1.75,0,0,0,.5,1Zm2.43-4.66a1.7,1.7,0,0,0,1.29-.94L28.32,2,30.1,5.59a1.7,1.7,0,0,0,1.29.94l4,.58L32.5,9.92a1.72,1.72,0,0,0-.5,1.52l.69,4-3.57-1.88a1.72,1.72,0,0,0-1.59,0L24,15.41l.68-4a1.72,1.72,0,0,0-.49-1.52L21.26,7.11Z"/><path id="Path_506" data-name="Path 506" d="M56.85,11.87a1.71,1.71,0,0,0-1.38-1.17l-4.17-.6L49.45,6.32a1.72,1.72,0,0,0-2.3-.77,1.69,1.69,0,0,0-.77.77L44.51,10.1l-4.16.6a1.72,1.72,0,0,0-1.45,1.94,1.78,1.78,0,0,0,.5,1l3,2.93L41.7,20.7a1.71,1.71,0,0,0,2.49,1.8l3.72-1.95,3.72,1.95A1.72,1.72,0,0,0,54,21.79a1.79,1.79,0,0,0,.17-1.09l-.71-4.15,3-2.93A1.71,1.71,0,0,0,56.85,11.87Zm-4.77,3.42a1.71,1.71,0,0,0-.49,1.52l.68,4L48.7,18.9a1.72,1.72,0,0,0-1.59,0l-3.56,1.88.68-4a1.75,1.75,0,0,0-.49-1.52l-2.89-2.81,4-.58A1.7,1.7,0,0,0,46.12,11l1.79-3.61L49.69,11A1.7,1.7,0,0,0,51,11.9l4,.58Z"/></g></svg>