<svg xmlns="http://www.w3.org/2000/svg" width="37.784" height="38.378" viewBox="0 0 37.784 38.378">
  <g id="Group_2201" data-name="Group 2201" transform="translate(-1885 680.345)">
    <g id="Group_2196" data-name="Group 2196" transform="translate(2110.693 -686.061)">
      <path id="Path_5969" data-name="Path 5969" d="M-191.571,26.734A16.763,16.763,0,0,1-208.334,43.5a16.706,16.706,0,0,1-6.41-1.27,16.782,16.782,0,0,1-10.195-13.189,16.832,16.832,0,0,1-.157-2.3A16.763,16.763,0,0,1-208.334,9.971,16.763,16.763,0,0,1-191.571,26.734Z" fill="#937de2"/>
      <path id="Path_5970" data-name="Path 5970" d="M-208.334,9.971a16.948,16.948,0,0,0-2.6.2,16.767,16.767,0,0,1,14.158,16.561,16.767,16.767,0,0,1-14.157,16.561,16.935,16.935,0,0,0,2.6.2,16.763,16.763,0,0,0,16.763-16.763A16.763,16.763,0,0,0-208.334,9.971Z" fill="#7570d6"/>
      <path id="Path_5971" data-name="Path 5971" d="M-189.478,25.5l-9.572,6.339a3.26,3.26,0,0,1-2.316.5,3.274,3.274,0,0,0-2.321.5l-1.281.849-7.174-10.575,1.76-7.6a7.935,7.935,0,0,0,.205-1.79A7.94,7.94,0,0,0-211.5,9.335a1.883,1.883,0,0,1-.315-1.046,1.894,1.894,0,0,1,.849-1.583,1.9,1.9,0,0,1,2.368.219l1.14,1.1a12.188,12.188,0,0,1,2.942,4.509l.619,1.664L-197.527,10a2.172,2.172,0,0,1,3.042.662,2.2,2.2,0,0,1-.682,2.983.023.023,0,0,0-.008.03.024.024,0,0,0,.031.012,2.15,2.15,0,0,1,.776-.144,2.19,2.19,0,0,1,1.183.348,2.173,2.173,0,0,1,.629.624,2.16,2.16,0,0,1,.319,1.62,2.219,2.219,0,0,1-.91,1.375.047.047,0,0,0-.012.065h0a.045.045,0,0,0,.061.012,2.233,2.233,0,0,1,.527-.062,2.287,2.287,0,0,1,1.224.355,2.115,2.115,0,0,1,.633.621,2.17,2.17,0,0,1-.612,3.009l-.073.049a.032.032,0,0,0-.011.042l.007.008a.035.035,0,0,0,.044,0,2.127,2.127,0,0,1,1.842.238,2.2,2.2,0,0,1,.648.643A2.172,2.172,0,0,1-189.478,25.5Z" fill="#fdd7bd"/>
      <path id="Path_5972" data-name="Path 5972" d="M-204.876,35.692l-4.038,2.674-5.83,3.861a16.782,16.782,0,0,1-10.195-13.189l6.766-4.48,4.119-2.728a1.03,1.03,0,0,1,1.428.291l8.041,12.142A1.032,1.032,0,0,1-204.876,35.692Z" fill="#87dbff"/>
      <path id="Path_5973" data-name="Path 5973" d="M-204.876,35.692l-4.038,2.674-9.259-13.808,4.119-2.728a1.03,1.03,0,0,1,1.428.291l8.041,12.142A1.032,1.032,0,0,1-204.876,35.692Z" fill="#6fc7ff"/>
      <g id="Group_2195" data-name="Group 2195">
        <path id="Path_5974" data-name="Path 5974" d="M-193.185,13.888l-3.185,1.705a1.032,1.032,0,0,1-1.316-.3l2.511-1.625a.023.023,0,0,0,.031.012,2.15,2.15,0,0,1,.776-.144A2.187,2.187,0,0,1-193.185,13.888Z" fill="#fac5aa"/>
        <path id="Path_5975" data-name="Path 5975" d="M-191.345,17.878l-3.116,1.666a1.031,1.031,0,0,1-1.316-.3l2.511-1.625.109-.051a.045.045,0,0,0,.061.012,2.233,2.233,0,0,1,.527-.062A2.287,2.287,0,0,1-191.345,17.878Z" fill="#fac5aa"/>
        <path id="Path_5976" data-name="Path 5976" d="M-189.515,21.843l-2.745,1.468a1.033,1.033,0,0,1-1.316-.3l2.175-1.407a.038.038,0,0,0,.044,0A2.124,2.124,0,0,1-189.515,21.843Z" fill="#fac5aa"/>
      </g>
      <path id="Path_5977" data-name="Path 5977" d="M-188.369,22.157a2.751,2.751,0,0,0-1.7-1.172,2.77,2.77,0,0,0-.142-2.815,2.762,2.762,0,0,0-1.7-1.171,2.781,2.781,0,0,0,.262-.736,2.749,2.749,0,0,0-.4-2.08,2.749,2.749,0,0,0-1.7-1.172A2.772,2.772,0,0,0-193.9,10.2a2.771,2.771,0,0,0-3.836-.779l-2.756,1.825a17.2,17.2,0,0,0-4.652-1.575,12.745,12.745,0,0,0-1.775-2.147l-1.14-1.105a2.509,2.509,0,0,0-3.113-.289,2.5,2.5,0,0,0-.7,3.457c.03.045.059.091.088.137a17.358,17.358,0,0,0-9.662,5.644,17.354,17.354,0,0,0-4.242,11.371,17.489,17.489,0,0,0,.163,2.385,17.411,17.411,0,0,0,10.557,13.658,17.242,17.242,0,0,0,6.639,1.315,17.245,17.245,0,0,0,10.08-3.224A17.308,17.308,0,0,0-192,32.631a.6.6,0,0,0-.358-.764.6.6,0,0,0-.764.358,16.118,16.118,0,0,1-5.823,7.672,16.053,16.053,0,0,1-9.387,3,16.112,16.112,0,0,1-5.1-.822l4.855-3.216h0l4.036-2.672h0a1.62,1.62,0,0,0,.7-1.033,1.613,1.613,0,0,0-.238-1.222l-.053-.081.784-.519a2.657,2.657,0,0,1,1.894-.41,3.848,3.848,0,0,0,2.742-.593l6.5-4.305a16.381,16.381,0,0,1-.22,1.676.6.6,0,0,0,.477.7.592.592,0,0,0,.11.01.6.6,0,0,0,.586-.488,17.551,17.551,0,0,0,.285-2.714l1.832-1.213a2.754,2.754,0,0,0,1.184-1.757A2.749,2.749,0,0,0-188.369,22.157Zm-13.284-10.148-1.824,1.207-.358-.967a12.659,12.659,0,0,0-.513-1.186A16.074,16.074,0,0,1-201.653,12.009Zm-18.9,4.137a16.168,16.168,0,0,1,9.332-5.321,7.375,7.375,0,0,1,.372,4.465l-1.455,6.286a1.618,1.618,0,0,0-.86-.481,1.615,1.615,0,0,0-1.223.238l-4.121,2.729h0L-224.45,28c-.032-.419-.049-.842-.049-1.264A16.159,16.159,0,0,1-220.55,16.146Zm15.531,18.772a.432.432,0,0,1-.187.276h0l-3.544,2.347-6.578-9.81a.6.6,0,0,0-.828-.163.6.6,0,0,0-.163.828l6.573,9.8-5.059,3.351a16.217,16.217,0,0,1-9.49-12.247l5.951-3.928.685,1.022a.6.6,0,0,0,.5.264.59.59,0,0,0,.332-.1.6.6,0,0,0,.163-.828l-.68-1.014,3.622-2.391a.43.43,0,0,1,.326-.063.435.435,0,0,1,.276.186l8.04,12.142A.429.429,0,0,1-205.019,34.918ZM-189.134,24a1.566,1.566,0,0,1-.674,1l-2.094,1.387h0l-7.476,4.95a2.657,2.657,0,0,1-1.894.41,3.848,3.848,0,0,0-2.742.593l-.784.519-6.586-9.945,1.7-7.353a8.579,8.579,0,0,0-.628-5.629c-.008-.018-.016-.035-.025-.052a8.521,8.521,0,0,0-.546-.955,1.3,1.3,0,0,1,.366-1.8,1.31,1.31,0,0,1,1.624.151l1.139,1.105a11.649,11.649,0,0,1,2.8,4.288l.621,1.672,0,.009,0,.011.013.028a.6.6,0,0,0,.041.074.6.6,0,0,0,.827.168l6.365-4.215a1.577,1.577,0,0,1,2.182.444,1.577,1.577,0,0,1-.444,2.182l-.552.366h0l-1.232.816-.005,0-.019.015a.6.6,0,0,0-.144.809.6.6,0,0,0,.827.168l1.233-.817a1.566,1.566,0,0,1,1.182-.229,1.562,1.562,0,0,1,1,.673,1.565,1.565,0,0,1,.231,1.183,1.564,1.564,0,0,1-.674,1l-1.785,1.183a.6.6,0,0,0-.169.827.6.6,0,0,0,.5.267.591.591,0,0,0,.328-.1l.277-.183.956-.633a1.575,1.575,0,0,1,2.182.443,1.577,1.577,0,0,1-.443,2.182l-.892.591-.014.009-.88.582a.6.6,0,0,0-.168.828.6.6,0,0,0,.5.267.594.594,0,0,0,.329-.1l.276-.183h0l.956-.633a1.563,1.563,0,0,1,1.183-.23,1.564,1.564,0,0,1,1,.674A1.566,1.566,0,0,1-189.134,24Z"/>
    </g>
  </g>
</svg>
