<svg xmlns="http://www.w3.org/2000/svg" width="37.784" height="38.378" viewBox="0 0 37.784 38.378">
  <g id="Group_2202" data-name="Group 2202" transform="translate(-1944.842 680.345)">
    <g id="Group_2197" data-name="Group 2197" transform="translate(2110.693 -686.061)">
      <path id="Path_5978" data-name="Path 5978" d="M-131.729,26.734A16.764,16.764,0,0,1-148.492,43.5a16.715,16.715,0,0,1-6.411-1.27A16.781,16.781,0,0,1-165.1,29.038a16.831,16.831,0,0,1-.158-2.3A16.763,16.763,0,0,1-148.492,9.971,16.764,16.764,0,0,1-131.729,26.734Z" fill="#fff"/>
      <path id="Path_5979" data-name="Path 5979" d="M-148.492,9.971a16.951,16.951,0,0,0-2.606.2A16.767,16.767,0,0,1-136.94,26.734,16.767,16.767,0,0,1-151.1,43.295a16.925,16.925,0,0,0,2.6.2,16.764,16.764,0,0,0,16.763-16.763A16.764,16.764,0,0,0-148.492,9.971Z" fill="#fff"/>
      <path id="Path_5980" data-name="Path 5980" d="M-129.637,25.5l-9.572,6.339a3.258,3.258,0,0,1-2.315.5,3.272,3.272,0,0,0-2.321.5l-1.281.849L-152.3,23.11l1.76-7.6a7.935,7.935,0,0,0,.2-1.79,7.94,7.94,0,0,0-1.319-4.382,1.891,1.891,0,0,1-.315-1.046,1.893,1.893,0,0,1,.85-1.583,1.9,1.9,0,0,1,2.368.219l1.14,1.1a12.188,12.188,0,0,1,2.942,4.509l.618,1.664L-137.685,10a2.172,2.172,0,0,1,3.042.662,2.2,2.2,0,0,1-.682,2.983.023.023,0,0,0-.009.03.024.024,0,0,0,.031.012,2.158,2.158,0,0,1,.776-.144,2.185,2.185,0,0,1,1.183.348,2.176,2.176,0,0,1,.63.624,2.168,2.168,0,0,1,.319,1.62,2.219,2.219,0,0,1-.911,1.375.048.048,0,0,0-.012.065h0a.046.046,0,0,0,.061.012,2.239,2.239,0,0,1,.527-.062,2.293,2.293,0,0,1,1.225.355,2.139,2.139,0,0,1,.633.621,2.171,2.171,0,0,1-.612,3.009l-.074.049a.034.034,0,0,0-.011.042l.008.008a.033.033,0,0,0,.043,0,2.127,2.127,0,0,1,1.842.238,2.181,2.181,0,0,1,.648.643A2.171,2.171,0,0,1-129.637,25.5Z" fill="#fff"/>
      <path id="Path_5981" data-name="Path 5981" d="M-145.035,35.692l-4.038,2.674-5.83,3.861A16.781,16.781,0,0,1-165.1,29.038l6.766-4.48,4.118-2.728a1.03,1.03,0,0,1,1.428.291l8.041,12.142A1.031,1.031,0,0,1-145.035,35.692Z" fill="#fff"/>
      <path id="Path_5982" data-name="Path 5982" d="M-145.035,35.692l-4.038,2.674-9.258-13.808,4.118-2.728a1.03,1.03,0,0,1,1.428.291l8.041,12.142A1.031,1.031,0,0,1-145.035,35.692Z" fill="#fff"/>
      <path id="Path_5983" data-name="Path 5983" d="M-128.528,22.157a2.749,2.749,0,0,0-1.7-1.172,2.77,2.77,0,0,0-.143-2.815,2.762,2.762,0,0,0-1.7-1.171,2.781,2.781,0,0,0,.262-.736,2.753,2.753,0,0,0-.4-2.08,2.748,2.748,0,0,0-1.7-1.172,2.77,2.77,0,0,0-.142-2.815,2.771,2.771,0,0,0-3.836-.779l-2.755,1.825A17.221,17.221,0,0,0-145.3,9.667,12.793,12.793,0,0,0-147.08,7.52l-1.14-1.105a2.509,2.509,0,0,0-3.113-.289,2.5,2.5,0,0,0-.7,3.457c.03.045.059.091.088.137a17.365,17.365,0,0,0-9.662,5.644,17.353,17.353,0,0,0-4.241,11.371,17.332,17.332,0,0,0,.163,2.385,17.409,17.409,0,0,0,10.557,13.658,17.24,17.24,0,0,0,6.638,1.315,17.248,17.248,0,0,0,10.081-3.224,17.32,17.32,0,0,0,6.252-8.238.6.6,0,0,0-.359-.764.6.6,0,0,0-.764.358,16.112,16.112,0,0,1-5.823,7.672,16.053,16.053,0,0,1-9.387,3,16.122,16.122,0,0,1-5.1-.822l4.855-3.216h0l4.035-2.672h0a1.621,1.621,0,0,0,.7-1.033,1.617,1.617,0,0,0-.238-1.222l-.053-.081.783-.519a2.658,2.658,0,0,1,1.894-.41,3.851,3.851,0,0,0,2.743-.593l6.5-4.305a16.372,16.372,0,0,1-.22,1.676.6.6,0,0,0,.478.7.574.574,0,0,0,.109.01.6.6,0,0,0,.586-.488,17.31,17.31,0,0,0,.285-2.714l1.833-1.213a2.754,2.754,0,0,0,1.184-1.757A2.75,2.75,0,0,0-128.528,22.157Zm-13.284-10.148-1.823,1.207-.359-.967c-.15-.4-.322-.8-.512-1.186A16.063,16.063,0,0,1-141.812,12.009Zm-18.9,4.137a16.165,16.165,0,0,1,9.331-5.321,7.375,7.375,0,0,1,.372,4.465l-1.455,6.286a1.615,1.615,0,0,0-.86-.481,1.616,1.616,0,0,0-1.223.238l-4.121,2.729h0L-164.608,28c-.033-.419-.05-.842-.05-1.264A16.16,16.16,0,0,1-160.708,16.146Zm15.53,18.772a.43.43,0,0,1-.186.276h0l-3.544,2.347-6.578-9.81a.6.6,0,0,0-.828-.163.6.6,0,0,0-.163.828l6.574,9.8-5.059,3.351a16.215,16.215,0,0,1-9.49-12.247l5.951-3.928.684,1.022a.6.6,0,0,0,.5.264.585.585,0,0,0,.331-.1.6.6,0,0,0,.164-.828l-.68-1.014,3.622-2.391a.429.429,0,0,1,.325-.063.43.43,0,0,1,.276.186l8.041,12.142A.429.429,0,0,1-145.178,34.918ZM-129.293,24a1.566,1.566,0,0,1-.674,1l-2.094,1.387h0l-7.476,4.95a2.656,2.656,0,0,1-1.894.41,3.85,3.85,0,0,0-2.742.593l-.784.519-6.585-9.945,1.7-7.353a8.579,8.579,0,0,0-.628-5.629.355.355,0,0,0-.025-.052,8.223,8.223,0,0,0-.546-.955,1.3,1.3,0,0,1,.367-1.8,1.309,1.309,0,0,1,1.623.151l1.14,1.105a11.649,11.649,0,0,1,2.8,4.288l.621,1.672,0,.009.005.011.013.028a.6.6,0,0,0,.041.074.6.6,0,0,0,.827.168l6.364-4.215a1.576,1.576,0,0,1,2.182.444,1.577,1.577,0,0,1-.443,2.182l-.553.366h0l-1.233.816,0,0-.02.015a.6.6,0,0,0-.144.809.6.6,0,0,0,.827.168l1.234-.817a1.565,1.565,0,0,1,1.182-.229,1.562,1.562,0,0,1,1,.673,1.565,1.565,0,0,1,.23,1.183,1.564,1.564,0,0,1-.674,1l-1.785,1.183a.6.6,0,0,0-.168.827.6.6,0,0,0,.5.267.6.6,0,0,0,.329-.1l.276-.183.956-.633a1.575,1.575,0,0,1,2.182.443,1.575,1.575,0,0,1-.443,2.182l-.892.591-.014.009-.879.582a.6.6,0,0,0-.168.828.6.6,0,0,0,.5.267.591.591,0,0,0,.328-.1l.277-.183h0l.956-.633a1.565,1.565,0,0,1,1.183-.23,1.564,1.564,0,0,1,1,.674A1.561,1.561,0,0,1-129.293,24Z"/>
    </g>
  </g>
</svg>
