<svg xmlns="http://www.w3.org/2000/svg" width="37.784" height="38.378" viewBox="0 0 37.784 38.378">
  <g id="Group_2204" data-name="Group 2204" transform="translate(-2113.573 680.346)">
    <g id="Group_2200" data-name="Group 2200" transform="translate(2110.693 -686.061)">
      <path id="Path_5993" data-name="Path 5993" d="M6.543,23.074A16.763,16.763,0,1,1,23.306,39.838,16.763,16.763,0,0,1,6.543,23.074Z" fill="#fff"/>
      <path id="Path_5994" data-name="Path 5994" d="M23.306,39.838a16.948,16.948,0,0,0,2.6-.2,16.765,16.765,0,0,1,0-33.122,16.935,16.935,0,0,0-2.6-.2,16.763,16.763,0,0,0,0,33.526Z" fill="#fff"/>
      <path id="Path_5995" data-name="Path 5995" d="M4.45,24.314l9.572-6.339a3.265,3.265,0,0,1,2.316-.5,3.273,3.273,0,0,0,2.321-.5l1.281-.849L27.114,26.7l-1.76,7.6a7.933,7.933,0,0,0,1.114,6.172,1.9,1.9,0,0,1-2.9,2.41l-1.14-1.1a12.188,12.188,0,0,1-2.942-4.509L18.866,35.6,12.5,39.812a2.172,2.172,0,0,1-3.042-.662,2.2,2.2,0,0,1,.682-2.983.023.023,0,0,0,.008-.03.024.024,0,0,0-.031-.012,2.15,2.15,0,0,1-.776.144A2.163,2.163,0,0,1,7.528,35.3a2.159,2.159,0,0,1-.319-1.62,2.219,2.219,0,0,1,.91-1.375.047.047,0,0,0,.012-.065h0a.045.045,0,0,0-.061-.012,2.233,2.233,0,0,1-.527.062,2.287,2.287,0,0,1-1.224-.355,2.115,2.115,0,0,1-.633-.621A2.17,2.17,0,0,1,6.3,28.3l.073-.049a.032.032,0,0,0,.011-.042L6.373,28.2a.035.035,0,0,0-.043,0,2.123,2.123,0,0,1-1.842-.237,2.2,2.2,0,0,1-.649-.643A2.172,2.172,0,0,1,4.45,24.314Z" fill="#fff"/>
      <path id="Path_5996" data-name="Path 5996" d="M19.848,14.117l4.038-2.674,5.83-3.861A16.782,16.782,0,0,1,39.911,20.771l-6.766,4.48-4.119,2.728a1.031,1.031,0,0,1-1.428-.291L19.557,15.546A1.032,1.032,0,0,1,19.848,14.117Z" fill="#fff"/>
      <path id="Path_5997" data-name="Path 5997" d="M19.848,14.117l4.038-2.674,9.259,13.808-4.119,2.728a1.031,1.031,0,0,1-1.428-.291L19.557,15.546A1.032,1.032,0,0,1,19.848,14.117Z" fill="#fff"/>
      <path id="Path_5998" data-name="Path 5998" d="M3.342,27.652a2.746,2.746,0,0,0,1.7,1.172A2.765,2.765,0,0,0,6.888,32.81a2.781,2.781,0,0,0-.262.736A2.766,2.766,0,0,0,8.733,36.8a2.768,2.768,0,0,0,3.978,3.595l2.756-1.825a17.2,17.2,0,0,0,4.652,1.575,12.745,12.745,0,0,0,1.775,2.147l1.14,1.1a2.494,2.494,0,0,0,3.815-3.168c-.03-.045-.059-.091-.088-.137A17.36,17.36,0,1,0,6.974,17.178a.6.6,0,1,0,1.122.406A16.189,16.189,0,0,1,28.41,7.731l-4.855,3.216h0L19.518,13.62h0a1.627,1.627,0,0,0-.458,2.255l.053.081-.784.519a2.657,2.657,0,0,1-1.894.41,3.843,3.843,0,0,0-2.742.593l-6.5,4.305a16.1,16.1,0,0,1,.219-1.676.6.6,0,1,0-1.173-.218A17.553,17.553,0,0,0,5.953,22.6L4.121,23.816a2.768,2.768,0,0,0-.779,3.836ZM16.625,37.8l1.824-1.207.359.967a12.4,12.4,0,0,0,.512,1.186A16.073,16.073,0,0,1,16.625,37.8Zm18.9-4.137a16.168,16.168,0,0,1-9.332,5.321,7.375,7.375,0,0,1-.372-4.465l1.455-6.286a1.623,1.623,0,0,0,2.083.243l4.121-2.729h0l5.944-3.936c.032.419.049.842.049,1.264A16.159,16.159,0,0,1,35.522,33.663ZM19.991,14.891a.432.432,0,0,1,.187-.276h0l3.544-2.347,6.578,9.81a.6.6,0,0,0,.991-.665l-6.573-9.8,5.059-3.351A16.217,16.217,0,0,1,39.266,20.5l-5.951,3.928-.685-1.022a.6.6,0,1,0-.991.665l.68,1.014L28.7,27.481a.434.434,0,0,1-.6-.123L20.055,15.216A.429.429,0,0,1,19.991,14.891ZM4.106,25.811a1.566,1.566,0,0,1,.674-1l2.094-1.387h0l7.475-4.95a2.657,2.657,0,0,1,1.894-.41,3.848,3.848,0,0,0,2.742-.593l.784-.519L26.358,26.9l-1.7,7.353a8.575,8.575,0,0,0,.628,5.628c.008.019.016.036.025.053a8.522,8.522,0,0,0,.546.955,1.3,1.3,0,0,1-1.989,1.652l-1.14-1.1a11.649,11.649,0,0,1-2.8-4.288l-.621-1.672,0-.009,0-.012-.013-.027a.592.592,0,0,0-.868-.242L12.052,39.4a1.575,1.575,0,1,1-1.738-2.626l.552-.366h0l1.232-.816.005,0,.019-.015a.6.6,0,0,0-.683-.977l-1.233.817a1.575,1.575,0,1,1-1.738-2.626L10.255,31.6a.6.6,0,0,0-.659-.995l-.277.183-.956.633A1.574,1.574,0,0,1,6.624,28.8l.892-.591L7.53,28.2l.88-.582a.6.6,0,0,0-.659-1l-.276.183h0l-.956.633a1.574,1.574,0,0,1-2.412-1.626Z"/>
    </g>
  </g>
</svg>
