<?xml version="1.0"?>
<svg xmlns="http://www.w3.org/2000/svg" xmlns:xlink="http://www.w3.org/1999/xlink" xmlns:svgjs="http://svgjs.com/svgjs" version="1.1" width="512" height="512" x="0" y="0" viewBox="0 0 32 32" style="enable-background:new 0 0 512 512" xml:space="preserve" class=""><g><path xmlns="http://www.w3.org/2000/svg" d="m26 32h-20c-3.314 0-6-2.686-6-6v-20c0-3.314 2.686-6 6-6h20c3.314 0 6 2.686 6 6v20c0 3.314-2.686 6-6 6z" fill="#fff0e4" data-original="#e3f8fa" style="" class=""/><path xmlns="http://www.w3.org/2000/svg" d="m18.667 14.093c-.04-.793-.7-1.427-1.5-1.427h-.5v-1.333c0-1.838-1.496-3.333-3.334-3.333s-3.333 1.495-3.333 3.333v1.333h-.5c-.827 0-1.5.673-1.5 1.5v5.667c0 .827.673 1.5 1.5 1.5h4.747c-.16-.526-.247-1.086-.247-1.666 0-2.787 2.013-5.107 4.667-5.574zm-7.334-1.426v-1.333c0-1.103.897-2 2-2s2 .897 2 2v1.333z" fill="#ffa658" data-original="#26c6da" style="" class=""/><path xmlns="http://www.w3.org/2000/svg" d="m19.667 15.333c-2.389 0-4.334 1.944-4.334 4.333s1.944 4.334 4.334 4.334 4.333-1.944 4.333-4.333-1.944-4.334-4.333-4.334zm0 1.334c.586 0 1.129.175 1.591.467l-4.125 4.124c-.291-.462-.466-1.005-.466-1.591 0-1.655 1.345-3 3-3zm0 6c-.586 0-1.129-.175-1.591-.467l4.125-4.124c.291.462.466 1.005.466 1.591 0 1.654-1.346 3-3 3z" fill="#ffc18b" data-original="#8ce1eb" style="" class=""/></g></svg>
