<?xml version="1.0"?>
<svg xmlns="http://www.w3.org/2000/svg" xmlns:xlink="http://www.w3.org/1999/xlink" xmlns:svgjs="http://svgjs.com/svgjs" version="1.1" width="512" height="512" x="0" y="0" viewBox="0 0 32 32" style="enable-background:new 0 0 512 512" xml:space="preserve" class=""><g><path xmlns="http://www.w3.org/2000/svg" d="m26 32h-20c-3.314 0-6-2.686-6-6v-20c0-3.314 2.686-6 6-6h20c3.314 0 6 2.686 6 6v20c0 3.314-2.686 6-6 6z" fill="#eaf3ff" data-original="#fff9dd" style="" class=""/><path xmlns="http://www.w3.org/2000/svg" d="m17.167 12.667h-.5v-1.333c0-1.839-1.496-3.334-3.334-3.334s-3.333 1.495-3.333 3.333v1.333h-.5c-.827 0-1.5.673-1.5 1.5v5.667c0 .827.673 1.5 1.5 1.5h6.534c.067-.38.26-.72.527-.987-.44-.6-.533-1.427-.153-2.127.513-.953 1.313-1.687 2.26-2.113v-1.94c-.001-.826-.675-1.499-1.501-1.499zm-5.834-1.334c0-1.103.897-2 2-2s2 .897 2 2v1.333h-4z" fill="#2c87ff" data-original="#ffd200" style="" class=""/><g xmlns="http://www.w3.org/2000/svg" fill="#ffe777"><path d="m23.484 21.254c-.324-.175-.728-.055-.904.269-.382.706-1.116 1.144-1.914 1.144-.407 0-.793-.123-1.131-.329l.317-.317c.143-.143.186-.358.108-.545s-.26-.309-.462-.309h-1.667c-.276 0-.5.224-.5.5v1.667c0 .202.122.384.309.462.062.026.127.038.191.038.13 0 .258-.051.354-.146l.382-.382c.601.446 1.334.694 2.1.694 1.288 0 2.471-.706 3.086-1.843.175-.323.055-.728-.269-.903z" fill="#86baff" data-original="#ffe777" style="" class=""/><path d="m23.692 17.205c-.187-.077-.402-.035-.545.108l-.382.382c-.599-.447-1.332-.695-2.098-.695-1.29 0-2.474.709-3.087 1.851-.174.325-.053.729.271.903.101.054.209.079.315.079.238 0 .467-.127.588-.351.381-.709 1.114-1.149 1.913-1.149.407 0 .793.123 1.131.329l-.318.318c-.143.143-.186.358-.108.545.077.187.26.309.462.309h1.666c.276 0 .5-.224.5-.5v-1.667c0-.202-.121-.385-.308-.462z" fill="#86baff" data-original="#ffe777" style="" class=""/></g></g></svg>
