<svg id="bold" enable-background="new 0 0 32 32" height="512" viewBox="0 0 32 32" width="512" xmlns="http://www.w3.org/2000/svg"><path d="m26 32h-20c-3.314 0-6-2.686-6-6v-20c0-3.314 2.686-6 6-6h20c3.314 0 6 2.686 6 6v20c0 3.314-2.686 6-6 6z" fill="#ffe6e2"/><path d="m17.167 12.667h-.5v-1.333c0-1.839-1.496-3.334-3.334-3.334s-3.333 1.495-3.333 3.333v1.333h-.5c-.827 0-1.5.673-1.5 1.5v5.667c0 .827.673 1.5 1.5 1.5h4.734c.366-.786 1.173-1.333 2.099-1.333h2.327c.007-.053.007-.113.007-.167v-5.667c0-.826-.674-1.499-1.5-1.499zm-5.834 0v-1.333c0-1.103.897-2 2-2s2 .897 2 2v1.333z" fill="#fc573b"/><path d="m22 20c-.868 0-1.601.559-1.877 1.333h-3.79c-.551 0-1 .449-1 1v1c0 .369.298.667.667.667s.667-.299.667-.667v-.667h3.456c.276.775 1.009 1.334 1.877 1.334 1.103 0 2-.897 2-2s-.897-2-2-2zm0 2.667c-.368 0-.667-.299-.667-.667s.299-.667.667-.667.667.299.667.667-.299.667-.667.667z" fill="#fd907e"/></svg>